<svg width="375" height="667" viewBox="0 0 375 667" fill="none" xmlns="http://www.w3.org/2000/svg">
<rect width="375" height="667" fill="#1A2A33"/>
<g filter="url(#filter0_i_0_734)">
<rect x="24" y="183" width="327" height="205" rx="15" fill="#1F3641"/>
</g>
<rect x="48" y="251" width="279" height="72" rx="10" fill="#1A2A33"/>
<rect x="187" y="260" width="131.985" height="54" rx="10" fill="#A8BFC9"/>
<path fill-rule="evenodd" clip-rule="evenodd" d="M268.741 286.871C268.741 278.106 261.636 271 252.871 271C244.106 271 237 278.106 237 286.871C237 295.636 244.106 302.741 252.871 302.741C261.636 302.741 268.741 295.636 268.741 286.871ZM246.405 286.871C246.405 283.3 249.3 280.405 252.871 280.405C256.442 280.405 259.336 283.3 259.336 286.871C259.336 290.442 256.442 293.336 252.871 293.336C249.3 293.336 246.405 290.442 246.405 286.871Z" fill="#1A2A33"/>
<path fill-rule="evenodd" clip-rule="evenodd" d="M137.557 276.29L132.71 271.443C132.12 270.852 131.162 270.852 130.571 271.443L122 280.014L113.429 271.443C112.838 270.852 111.88 270.852 111.29 271.443L106.443 276.29C105.852 276.88 105.852 277.838 106.443 278.429L115.014 287L106.443 295.571C105.852 296.162 105.852 297.12 106.443 297.71L111.29 302.557C111.88 303.148 112.838 303.148 113.429 302.557L122 293.986L130.571 302.557C131.162 303.148 132.12 303.148 132.71 302.557L137.557 297.71C138.148 297.12 138.148 296.162 137.557 295.571L128.986 287L137.557 278.429C138.148 277.838 138.148 276.88 137.557 276.29Z" fill="#A8BFC9"/>
<path d="M95.0002 218.888V216.936H97.4322C97.7415 216.936 98.0242 216.872 98.2802 216.744C98.5362 216.616 98.7389 216.429 98.8882 216.184C99.0375 215.939 99.1122 215.64 99.1122 215.288C99.1122 214.947 99.0375 214.653 98.8882 214.408C98.7389 214.163 98.5362 213.976 98.2802 213.848C98.0242 213.72 97.7415 213.656 97.4322 213.656H95.0002V211.704H97.8002C98.5149 211.704 99.1602 211.848 99.7362 212.136C100.312 212.424 100.766 212.84 101.096 213.384C101.438 213.917 101.608 214.552 101.608 215.288C101.608 216.024 101.438 216.664 101.096 217.208C100.766 217.741 100.312 218.157 99.7362 218.456C99.1602 218.744 98.5149 218.888 97.8002 218.888H95.0002ZM93.0802 223V211.704H95.5922V223H93.0802ZM104.018 223V211.704H106.53V223H104.018ZM115.065 223.176C114.223 223.176 113.439 223.032 112.713 222.744C111.999 222.445 111.369 222.029 110.825 221.496C110.292 220.963 109.876 220.344 109.577 219.64C109.279 218.925 109.129 218.157 109.129 217.336C109.129 216.515 109.279 215.752 109.577 215.048C109.876 214.333 110.292 213.715 110.825 213.192C111.359 212.669 111.983 212.264 112.697 211.976C113.423 211.677 114.207 211.528 115.049 211.528C115.945 211.528 116.74 211.672 117.433 211.96C118.137 212.248 118.751 212.643 119.273 213.144L117.593 214.84C117.295 214.52 116.932 214.269 116.505 214.088C116.089 213.907 115.604 213.816 115.049 213.816C114.559 213.816 114.105 213.901 113.689 214.072C113.284 214.232 112.932 214.467 112.633 214.776C112.345 215.085 112.116 215.459 111.945 215.896C111.785 216.333 111.705 216.813 111.705 217.336C111.705 217.869 111.785 218.355 111.945 218.792C112.116 219.229 112.345 219.603 112.633 219.912C112.932 220.221 113.284 220.461 113.689 220.632C114.105 220.803 114.559 220.888 115.049 220.888C115.625 220.888 116.127 220.797 116.553 220.616C116.98 220.435 117.348 220.184 117.657 219.864L119.353 221.56C118.809 222.061 118.185 222.456 117.481 222.744C116.788 223.032 115.983 223.176 115.065 223.176ZM128.568 223L123.992 217.112L128.424 211.704H131.528L126.536 217.576V216.552L131.688 223H128.568ZM121.736 223V211.704H124.248V223H121.736ZM139.531 218.888V216.936H141.963C142.273 216.936 142.555 216.872 142.811 216.744C143.067 216.616 143.27 216.429 143.419 216.184C143.569 215.939 143.643 215.64 143.643 215.288C143.643 214.947 143.569 214.653 143.419 214.408C143.27 214.163 143.067 213.976 142.811 213.848C142.555 213.72 142.273 213.656 141.963 213.656H139.531V211.704H142.331C143.046 211.704 143.691 211.848 144.267 212.136C144.843 212.424 145.297 212.84 145.627 213.384C145.969 213.917 146.139 214.552 146.139 215.288C146.139 216.024 145.969 216.664 145.627 217.208C145.297 217.741 144.843 218.157 144.267 218.456C143.691 218.744 143.046 218.888 142.331 218.888H139.531ZM137.611 223V211.704H140.123V223H137.611ZM148.549 223V211.704H151.061V223H148.549ZM150.485 223V220.792H156.069V223H150.485ZM157.373 223L161.853 211.704H164.125L168.557 223H165.901L162.509 213.624H163.421L159.981 223H157.373ZM159.917 220.952V218.904H166.077V220.952H159.917ZM172.802 218.792L168.45 211.704H171.362L174.706 217.432H172.834L176.178 211.704H179.026L174.642 218.792H172.802ZM172.498 223V217.64H175.01V223H172.498ZM180.924 223V211.704H183.436V223H180.924ZM182.844 223V220.824H189.036V223H182.844ZM182.844 218.28V216.184H188.476V218.28H182.844ZM182.844 213.864V211.704H188.956V213.864H182.844ZM193.688 218.344V216.488H196.072C196.573 216.488 196.957 216.36 197.224 216.104C197.501 215.848 197.64 215.501 197.64 215.064C197.64 214.659 197.506 214.323 197.24 214.056C196.973 213.789 196.589 213.656 196.088 213.656H193.688V211.704H196.376C197.122 211.704 197.778 211.848 198.344 212.136C198.909 212.413 199.352 212.803 199.672 213.304C199.992 213.805 200.152 214.381 200.152 215.032C200.152 215.693 199.992 216.275 199.672 216.776C199.352 217.267 198.904 217.651 198.328 217.928C197.752 218.205 197.074 218.344 196.296 218.344H193.688ZM191.768 223V211.704H194.28V223H191.768ZM197.912 223L194.392 218.136L196.696 217.512L200.888 223H197.912ZM208.66 223V211.704H211.156V223H208.66ZM206.484 213.832V211.704H210.996V213.832H206.484ZM213.899 216.248L215.067 214.056L215.787 213.864C215.712 214.013 215.622 214.141 215.515 214.248C215.408 214.355 215.286 214.408 215.147 214.408C214.838 214.408 214.555 214.28 214.299 214.024C214.043 213.768 213.915 213.443 213.915 213.048C213.915 212.632 214.054 212.28 214.331 211.992C214.619 211.693 214.971 211.544 215.387 211.544C215.782 211.544 216.123 211.693 216.411 211.992C216.71 212.28 216.859 212.632 216.859 213.048C216.859 213.219 216.827 213.421 216.763 213.656C216.699 213.88 216.571 214.168 216.379 214.52L215.083 216.888L213.899 216.248ZM222.347 223.176C221.419 223.176 220.619 223.027 219.947 222.728C219.286 222.419 218.678 221.955 218.123 221.336L219.755 219.72C220.118 220.136 220.518 220.461 220.955 220.696C221.403 220.92 221.921 221.032 222.507 221.032C223.041 221.032 223.451 220.936 223.739 220.744C224.038 220.552 224.187 220.285 224.187 219.944C224.187 219.635 224.091 219.384 223.899 219.192C223.707 219 223.451 218.835 223.131 218.696C222.822 218.557 222.475 218.424 222.091 218.296C221.718 218.168 221.345 218.024 220.971 217.864C220.598 217.693 220.251 217.485 219.931 217.24C219.622 216.984 219.371 216.669 219.179 216.296C218.987 215.912 218.891 215.432 218.891 214.856C218.891 214.163 219.057 213.565 219.387 213.064C219.729 212.563 220.198 212.184 220.795 211.928C221.393 211.661 222.081 211.528 222.859 211.528C223.649 211.528 224.369 211.667 225.019 211.944C225.681 212.221 226.225 212.6 226.651 213.08L225.019 214.696C224.678 214.344 224.331 214.083 223.979 213.912C223.638 213.741 223.249 213.656 222.811 213.656C222.374 213.656 222.027 213.741 221.771 213.912C221.515 214.072 221.387 214.307 221.387 214.616C221.387 214.904 221.483 215.139 221.675 215.32C221.867 215.491 222.118 215.64 222.427 215.768C222.747 215.896 223.094 216.024 223.467 216.152C223.851 216.28 224.23 216.429 224.603 216.6C224.977 216.771 225.318 216.989 225.627 217.256C225.947 217.512 226.203 217.843 226.395 218.248C226.587 218.643 226.683 219.133 226.683 219.72C226.683 220.797 226.299 221.645 225.531 222.264C224.763 222.872 223.702 223.176 222.347 223.176ZM233.33 223V211.704H235.122L239.57 218.632H238.658L243.09 211.704H244.898V223H242.386V215.944L242.834 216.056L239.938 220.568H238.274L235.394 216.056L235.826 215.944V223H233.33ZM247.217 223L251.697 211.704H253.969L258.401 223H255.745L252.353 213.624H253.265L249.825 223H247.217ZM249.761 220.952V218.904H255.921V220.952H249.761ZM262.516 218.344V216.488H264.9C265.401 216.488 265.785 216.36 266.052 216.104C266.329 215.848 266.468 215.501 266.468 215.064C266.468 214.659 266.334 214.323 266.068 214.056C265.801 213.789 265.417 213.656 264.916 213.656H262.516V211.704H265.204C265.95 211.704 266.606 211.848 267.172 212.136C267.737 212.413 268.18 212.803 268.5 213.304C268.82 213.805 268.98 214.381 268.98 215.032C268.98 215.693 268.82 216.275 268.5 216.776C268.18 217.267 267.732 217.651 267.156 217.928C266.58 218.205 265.902 218.344 265.124 218.344H262.516ZM260.596 223V211.704H263.108V223H260.596ZM266.74 223L263.22 218.136L265.524 217.512L269.716 223H266.74ZM278.647 223L274.071 217.112L278.503 211.704H281.607L276.615 217.576V216.552L281.767 223H278.647ZM271.815 223V211.704H274.327V223H271.815Z" fill="#A8BFC9"/>
<path opacity="0.5" d="M94.5157 349.842V348.512H96.9937C97.4884 348.512 97.871 348.386 98.1417 348.134C98.4217 347.873 98.5617 347.513 98.5617 347.056C98.5617 346.645 98.4264 346.3 98.1557 346.02C97.885 345.74 97.5024 345.6 97.0077 345.6H94.5157V344.2H97.0777C97.6937 344.2 98.235 344.326 98.7017 344.578C99.1684 344.821 99.5277 345.157 99.7797 345.586C100.041 346.006 100.172 346.487 100.172 347.028C100.172 347.597 100.041 348.092 99.7797 348.512C99.5277 348.932 99.1684 349.259 98.7017 349.492C98.235 349.725 97.6937 349.842 97.0777 349.842H94.5157ZM93.4097 354V344.2H95.0197V354H93.4097ZM98.7857 354L95.3557 349.744L96.8537 349.198L100.816 354H98.7857ZM102.884 354V344.2H104.494V354H102.884ZM103.99 354V352.53H109.478V354H103.99ZM103.99 349.702V348.288H109.002V349.702H103.99ZM103.99 345.67V344.2H109.408V345.67H103.99ZM112.017 354V344.2H113.137L117.211 350.906H116.483L120.557 344.2H121.677V354H120.067V347.028L120.431 347.126L117.407 352.096H116.287L113.263 347.126L113.627 347.028V354H112.017ZM124.677 354V344.2H126.287V354H124.677ZM125.783 354V352.53H131.271V354H125.783ZM125.783 349.702V348.288H130.795V349.702H125.783ZM125.783 345.67V344.2H131.201V345.67H125.783ZM133.81 354V344.2H134.93L139.004 350.906H138.276L142.35 344.2H143.47V354H141.86V347.028L142.224 347.126L139.2 352.096H138.08L135.056 347.126L135.42 347.028V354H133.81ZM147.576 354V352.6H150.39C150.885 352.6 151.268 352.446 151.538 352.138C151.809 351.83 151.944 351.475 151.944 351.074C151.944 350.803 151.884 350.551 151.762 350.318C151.641 350.085 151.464 349.898 151.23 349.758C150.997 349.618 150.717 349.548 150.39 349.548H147.576V348.148H150.152C150.572 348.148 150.908 348.041 151.16 347.826C151.412 347.611 151.538 347.294 151.538 346.874C151.538 346.454 151.412 346.137 151.16 345.922C150.908 345.707 150.572 345.6 150.152 345.6H147.576V344.2H150.194C150.857 344.2 151.408 344.321 151.846 344.564C152.285 344.807 152.612 345.119 152.826 345.502C153.041 345.885 153.148 346.295 153.148 346.734C153.148 347.247 153.004 347.7 152.714 348.092C152.434 348.484 152.019 348.801 151.468 349.044L151.594 348.54C152.21 348.792 152.691 349.147 153.036 349.604C153.382 350.061 153.554 350.598 153.554 351.214C153.554 351.718 153.428 352.18 153.176 352.6C152.934 353.02 152.57 353.361 152.084 353.622C151.608 353.874 151.02 354 150.32 354H147.576ZM146.47 354V344.2H148.08V354H146.47ZM156.054 354V344.2H157.664V354H156.054ZM157.16 354V352.53H162.648V354H157.16ZM157.16 349.702V348.288H162.172V349.702H157.16ZM157.16 345.67V344.2H162.578V345.67H157.16ZM166.293 349.842V348.512H168.771C169.266 348.512 169.648 348.386 169.919 348.134C170.199 347.873 170.339 347.513 170.339 347.056C170.339 346.645 170.204 346.3 169.933 346.02C169.662 345.74 169.28 345.6 168.785 345.6H166.293V344.2H168.855C169.471 344.2 170.012 344.326 170.479 344.578C170.946 344.821 171.305 345.157 171.557 345.586C171.818 346.006 171.949 346.487 171.949 347.028C171.949 347.597 171.818 348.092 171.557 348.512C171.305 348.932 170.946 349.259 170.479 349.492C170.012 349.725 169.471 349.842 168.855 349.842H166.293ZM165.187 354V344.2H166.797V354H165.187ZM170.563 354L167.133 349.744L168.631 349.198L172.593 354H170.563ZM179.357 354.14C179.058 354.14 178.811 354.042 178.615 353.846C178.428 353.641 178.335 353.393 178.335 353.104C178.335 352.805 178.428 352.558 178.615 352.362C178.811 352.166 179.058 352.068 179.357 352.068C179.655 352.068 179.898 352.166 180.085 352.362C180.281 352.558 180.379 352.805 180.379 353.104C180.379 353.393 180.281 353.641 180.085 353.846C179.898 354.042 179.655 354.14 179.357 354.14ZM179.357 349.814C179.058 349.814 178.811 349.716 178.615 349.52C178.428 349.315 178.335 349.067 178.335 348.778C178.335 348.479 178.428 348.232 178.615 348.036C178.811 347.84 179.058 347.742 179.357 347.742C179.655 347.742 179.898 347.84 180.085 348.036C180.281 348.232 180.379 348.479 180.379 348.778C180.379 349.067 180.281 349.315 180.085 349.52C179.898 349.716 179.655 349.814 179.357 349.814ZM193.38 354L190.496 349.632H190.202L186.324 344.2H188.228L191.126 348.316H191.42L195.256 354H193.38ZM186.156 354L189.88 348.764L190.986 349.702L187.962 354H186.156ZM191.532 349.31L190.426 348.372L193.282 344.2H195.088L191.532 349.31ZM205.636 354.14C204.964 354.14 204.33 354.009 203.732 353.748C203.135 353.487 202.612 353.127 202.164 352.67C201.716 352.203 201.362 351.667 201.1 351.06C200.848 350.444 200.722 349.786 200.722 349.086C200.722 348.386 200.848 347.733 201.1 347.126C201.362 346.519 201.716 345.987 202.164 345.53C202.622 345.063 203.154 344.704 203.76 344.452C204.376 344.191 205.039 344.06 205.748 344.06C206.523 344.06 207.242 344.209 207.904 344.508C208.567 344.807 209.122 345.231 209.57 345.782L208.478 346.874C208.189 346.463 207.802 346.151 207.316 345.936C206.831 345.712 206.308 345.6 205.748 345.6C205.076 345.6 204.484 345.749 203.97 346.048C203.466 346.337 203.074 346.743 202.794 347.266C202.514 347.789 202.374 348.395 202.374 349.086C202.374 349.777 202.514 350.388 202.794 350.92C203.084 351.443 203.471 351.853 203.956 352.152C204.442 352.451 204.992 352.6 205.608 352.6C206.262 352.6 206.822 352.483 207.288 352.25C207.764 352.007 208.128 351.653 208.38 351.186C208.632 350.71 208.758 350.127 208.758 349.436L209.766 350.164H205.58V348.694H210.424V348.918C210.424 350.085 210.214 351.055 209.794 351.83C209.384 352.605 208.819 353.183 208.1 353.566C207.382 353.949 206.56 354.14 205.636 354.14ZM217.519 354.14C216.819 354.14 216.166 354.009 215.559 353.748C214.953 353.487 214.421 353.127 213.963 352.67C213.506 352.203 213.147 351.667 212.885 351.06C212.633 350.444 212.507 349.786 212.507 349.086C212.507 348.386 212.633 347.733 212.885 347.126C213.147 346.519 213.501 345.987 213.949 345.53C214.407 345.063 214.934 344.704 215.531 344.452C216.138 344.191 216.791 344.06 217.491 344.06C218.191 344.06 218.84 344.191 219.437 344.452C220.044 344.704 220.576 345.063 221.033 345.53C221.491 345.987 221.845 346.524 222.097 347.14C222.359 347.747 222.489 348.4 222.489 349.1C222.489 349.8 222.359 350.458 222.097 351.074C221.845 351.681 221.491 352.213 221.033 352.67C220.585 353.127 220.058 353.487 219.451 353.748C218.854 354.009 218.21 354.14 217.519 354.14ZM217.491 352.6C218.154 352.6 218.733 352.451 219.227 352.152C219.731 351.853 220.123 351.443 220.403 350.92C220.693 350.388 220.837 349.777 220.837 349.086C220.837 348.573 220.753 348.106 220.585 347.686C220.427 347.257 220.198 346.888 219.899 346.58C219.601 346.263 219.246 346.02 218.835 345.852C218.434 345.684 217.986 345.6 217.491 345.6C216.838 345.6 216.259 345.749 215.755 346.048C215.261 346.337 214.869 346.743 214.579 347.266C214.299 347.789 214.159 348.395 214.159 349.086C214.159 349.599 214.239 350.075 214.397 350.514C214.565 350.943 214.794 351.312 215.083 351.62C215.382 351.928 215.737 352.171 216.147 352.348C216.558 352.516 217.006 352.6 217.491 352.6ZM225.002 354V344.2H226.612V354H225.002ZM226.108 354V352.53H231.596V354H226.108ZM226.108 349.702V348.288H231.12V349.702H226.108ZM226.108 345.67V344.2H231.526V345.67H226.108ZM236.618 354.14C235.844 354.14 235.186 354 234.644 353.72C234.103 353.44 233.618 353.029 233.188 352.488L234.28 351.396C234.551 351.788 234.873 352.096 235.246 352.32C235.62 352.535 236.096 352.642 236.674 352.642C237.216 352.642 237.645 352.53 237.962 352.306C238.289 352.082 238.452 351.774 238.452 351.382C238.452 351.055 238.368 350.789 238.2 350.584C238.032 350.379 237.808 350.211 237.528 350.08C237.258 349.94 236.954 349.819 236.618 349.716C236.292 349.604 235.96 349.483 235.624 349.352C235.298 349.212 234.994 349.039 234.714 348.834C234.444 348.629 234.224 348.363 234.056 348.036C233.888 347.709 233.804 347.294 233.804 346.79C233.804 346.211 233.944 345.721 234.224 345.32C234.514 344.909 234.901 344.597 235.386 344.382C235.872 344.167 236.413 344.06 237.01 344.06C237.654 344.06 238.228 344.186 238.732 344.438C239.246 344.69 239.661 345.012 239.978 345.404L238.886 346.496C238.606 346.179 238.312 345.945 238.004 345.796C237.706 345.637 237.36 345.558 236.968 345.558C236.483 345.558 236.1 345.656 235.82 345.852C235.55 346.048 235.414 346.323 235.414 346.678C235.414 346.977 235.498 347.219 235.666 347.406C235.834 347.583 236.054 347.737 236.324 347.868C236.604 347.989 236.908 348.106 237.234 348.218C237.57 348.33 237.902 348.456 238.228 348.596C238.564 348.736 238.868 348.918 239.138 349.142C239.418 349.357 239.642 349.637 239.81 349.982C239.978 350.327 240.062 350.761 240.062 351.284C240.062 352.161 239.75 352.857 239.124 353.37C238.508 353.883 237.673 354.14 236.618 354.14ZM246.22 354V344.2H247.83V354H246.22ZM247.326 349.8V348.33H252.31V349.8H247.326ZM247.326 345.67V344.2H252.548V345.67H247.326ZM255.025 354V344.2H256.635V354H255.025ZM260.738 349.842V348.512H263.216C263.711 348.512 264.094 348.386 264.364 348.134C264.644 347.873 264.784 347.513 264.784 347.056C264.784 346.645 264.649 346.3 264.378 346.02C264.108 345.74 263.725 345.6 263.23 345.6H260.738V344.2H263.3C263.916 344.2 264.458 344.326 264.924 344.578C265.391 344.821 265.75 345.157 266.002 345.586C266.264 346.006 266.394 346.487 266.394 347.028C266.394 347.597 266.264 348.092 266.002 348.512C265.75 348.932 265.391 349.259 264.924 349.492C264.458 349.725 263.916 349.842 263.3 349.842H260.738ZM259.632 354V344.2H261.242V354H259.632ZM265.008 354L261.578 349.744L263.076 349.198L267.038 354H265.008ZM271.55 354.14C270.775 354.14 270.117 354 269.576 353.72C269.035 353.44 268.549 353.029 268.12 352.488L269.212 351.396C269.483 351.788 269.805 352.096 270.178 352.32C270.551 352.535 271.027 352.642 271.606 352.642C272.147 352.642 272.577 352.53 272.894 352.306C273.221 352.082 273.384 351.774 273.384 351.382C273.384 351.055 273.3 350.789 273.132 350.584C272.964 350.379 272.74 350.211 272.46 350.08C272.189 349.94 271.886 349.819 271.55 349.716C271.223 349.604 270.892 349.483 270.556 349.352C270.229 349.212 269.926 349.039 269.646 348.834C269.375 348.629 269.156 348.363 268.988 348.036C268.82 347.709 268.736 347.294 268.736 346.79C268.736 346.211 268.876 345.721 269.156 345.32C269.445 344.909 269.833 344.597 270.318 344.382C270.803 344.167 271.345 344.06 271.942 344.06C272.586 344.06 273.16 344.186 273.664 344.438C274.177 344.69 274.593 345.012 274.91 345.404L273.818 346.496C273.538 346.179 273.244 345.945 272.936 345.796C272.637 345.637 272.292 345.558 271.9 345.558C271.415 345.558 271.032 345.656 270.752 345.852C270.481 346.048 270.346 346.323 270.346 346.678C270.346 346.977 270.43 347.219 270.598 347.406C270.766 347.583 270.985 347.737 271.256 347.868C271.536 347.989 271.839 348.106 272.166 348.218C272.502 348.33 272.833 348.456 273.16 348.596C273.496 348.736 273.799 348.918 274.07 349.142C274.35 349.357 274.574 349.637 274.742 349.982C274.91 350.327 274.994 350.761 274.994 351.284C274.994 352.161 274.681 352.857 274.056 353.37C273.44 353.883 272.605 354.14 271.55 354.14ZM279.514 354V344.48H281.124V354H279.514ZM276.322 345.67V344.2H284.316V345.67H276.322Z" fill="#A8BFC9"/>
<g filter="url(#filter1_i_0_734)">
<rect x="24" y="420" width="327" height="56" rx="15" fill="#F2B137"/>
</g>
<path d="M103.416 450V438.704H105.176L105.928 440.96V450H103.416ZM111.208 450L104.552 441.472L105.176 438.704L111.832 447.232L111.208 450ZM111.208 450L110.536 447.744V438.704H113.048V450H111.208ZM116.229 450V438.704H118.741V450H116.229ZM118.149 450V447.824H124.341V450H118.149ZM118.149 445.28V443.184H123.781V445.28H118.149ZM118.149 440.864V438.704H124.261V440.864H118.149ZM129.888 450L126.256 438.704H128.752L131.408 447.392H130.432L133.024 438.704H134.992L137.584 447.392H136.624L139.264 438.704H141.744L138.112 450H136.144L133.536 441.312H134.464L131.856 450H129.888ZM153.479 450.176C152.657 450.176 151.884 450.027 151.159 449.728C150.444 449.429 149.82 449.019 149.287 448.496C148.753 447.963 148.332 447.344 148.023 446.64C147.724 445.925 147.575 445.157 147.575 444.336C147.575 443.515 147.729 442.752 148.039 442.048C148.348 441.344 148.775 440.731 149.319 440.208C149.873 439.675 150.519 439.264 151.255 438.976C151.991 438.677 152.78 438.528 153.623 438.528C154.593 438.528 155.473 438.704 156.263 439.056C157.063 439.408 157.724 439.893 158.247 440.512L156.535 442.224C156.172 441.755 155.745 441.403 155.255 441.168C154.764 440.933 154.209 440.816 153.591 440.816C152.929 440.816 152.337 440.965 151.815 441.264C151.292 441.552 150.881 441.963 150.583 442.496C150.295 443.019 150.151 443.632 150.151 444.336C150.151 445.04 150.295 445.659 150.583 446.192C150.871 446.725 151.265 447.141 151.766 447.44C152.268 447.739 152.844 447.888 153.495 447.888C154.156 447.888 154.716 447.765 155.175 447.52C155.644 447.264 156.001 446.901 156.247 446.432C156.503 445.952 156.631 445.371 156.631 444.688L158.295 445.808L153.255 445.728V443.6H159.191V443.968C159.191 445.323 158.945 446.464 158.455 447.392C157.975 448.309 157.303 449.003 156.439 449.472C155.585 449.941 154.599 450.176 153.479 450.176ZM160.381 450L164.861 438.704H167.133L171.565 450H168.909L165.517 440.624H166.429L162.989 450H160.381ZM162.925 447.952V445.904H169.085V447.952H162.925ZM173.76 450V438.704H175.552L180 445.632H179.088L183.52 438.704H185.328V450H182.816V442.944L183.264 443.056L180.368 447.568H178.704L175.824 443.056L176.256 442.944V450H173.76ZM188.494 450V438.704H191.006V450H188.494ZM190.414 450V447.824H196.606V450H190.414ZM190.414 445.28V443.184H196.046V445.28H190.414ZM190.414 440.864V438.704H196.526V440.864H190.414ZM205.673 452.032C205.065 451.509 204.548 450.88 204.121 450.144C203.694 449.408 203.369 448.603 203.145 447.728C202.921 446.853 202.809 445.936 202.809 444.976C202.809 444.016 202.921 443.099 203.145 442.224C203.369 441.349 203.694 440.544 204.121 439.808C204.548 439.072 205.065 438.443 205.673 437.92L207.017 439.216C206.334 439.877 205.812 440.693 205.449 441.664C205.086 442.635 204.905 443.739 204.905 444.976C204.905 446.203 205.086 447.307 205.449 448.288C205.812 449.259 206.334 450.08 207.017 450.752L205.673 452.032ZM212.858 450L208.506 438.704H211.194L214.506 447.84H213.402L216.762 438.704H219.418L215.018 450H212.858ZM224.511 450.176C223.583 450.176 222.783 450.027 222.111 449.728C221.45 449.419 220.842 448.955 220.287 448.336L221.919 446.72C222.282 447.136 222.682 447.461 223.119 447.696C223.567 447.92 224.085 448.032 224.671 448.032C225.205 448.032 225.615 447.936 225.903 447.744C226.202 447.552 226.351 447.285 226.351 446.944C226.351 446.635 226.255 446.384 226.063 446.192C225.871 446 225.615 445.835 225.295 445.696C224.986 445.557 224.639 445.424 224.255 445.296C223.882 445.168 223.509 445.024 223.135 444.864C222.762 444.693 222.415 444.485 222.095 444.24C221.786 443.984 221.535 443.669 221.343 443.296C221.151 442.912 221.055 442.432 221.055 441.856C221.055 441.163 221.221 440.565 221.551 440.064C221.893 439.563 222.362 439.184 222.959 438.928C223.557 438.661 224.245 438.528 225.023 438.528C225.813 438.528 226.533 438.667 227.183 438.944C227.845 439.221 228.389 439.6 228.815 440.08L227.183 441.696C226.842 441.344 226.495 441.083 226.143 440.912C225.802 440.741 225.413 440.656 224.975 440.656C224.538 440.656 224.191 440.741 223.935 440.912C223.679 441.072 223.551 441.307 223.551 441.616C223.551 441.904 223.647 442.139 223.839 442.32C224.031 442.491 224.282 442.64 224.591 442.768C224.911 442.896 225.258 443.024 225.631 443.152C226.015 443.28 226.394 443.429 226.767 443.6C227.141 443.771 227.482 443.989 227.791 444.256C228.111 444.512 228.367 444.843 228.559 445.248C228.751 445.643 228.847 446.133 228.847 446.72C228.847 447.797 228.463 448.645 227.695 449.264C226.927 449.872 225.866 450.176 224.511 450.176ZM240.854 450.176C240.012 450.176 239.228 450.032 238.502 449.744C237.788 449.445 237.158 449.029 236.614 448.496C236.081 447.963 235.665 447.344 235.366 446.64C235.068 445.925 234.918 445.157 234.918 444.336C234.918 443.515 235.068 442.752 235.366 442.048C235.665 441.333 236.081 440.715 236.614 440.192C237.148 439.669 237.772 439.264 238.486 438.976C239.212 438.677 239.996 438.528 240.838 438.528C241.734 438.528 242.529 438.672 243.222 438.96C243.926 439.248 244.54 439.643 245.062 440.144L243.382 441.84C243.084 441.52 242.721 441.269 242.294 441.088C241.878 440.907 241.393 440.816 240.838 440.816C240.348 440.816 239.894 440.901 239.478 441.072C239.073 441.232 238.721 441.467 238.422 441.776C238.134 442.085 237.905 442.459 237.734 442.896C237.574 443.333 237.494 443.813 237.494 444.336C237.494 444.869 237.574 445.355 237.734 445.792C237.905 446.229 238.134 446.603 238.422 446.912C238.721 447.221 239.073 447.461 239.478 447.632C239.894 447.803 240.348 447.888 240.838 447.888C241.414 447.888 241.916 447.797 242.342 447.616C242.769 447.435 243.137 447.184 243.446 446.864L245.142 448.56C244.598 449.061 243.974 449.456 243.27 449.744C242.577 450.032 241.772 450.176 240.854 450.176ZM249.446 445.888V443.936H251.878C252.187 443.936 252.47 443.872 252.726 443.744C252.982 443.616 253.184 443.429 253.334 443.184C253.483 442.939 253.558 442.64 253.558 442.288C253.558 441.947 253.483 441.653 253.334 441.408C253.184 441.163 252.982 440.976 252.726 440.848C252.47 440.72 252.187 440.656 251.878 440.656H249.446V438.704H252.246C252.96 438.704 253.606 438.848 254.182 439.136C254.758 439.424 255.211 439.84 255.542 440.384C255.883 440.917 256.054 441.552 256.054 442.288C256.054 443.024 255.883 443.664 255.542 444.208C255.211 444.741 254.758 445.157 254.182 445.456C253.606 445.744 252.96 445.888 252.246 445.888H249.446ZM247.526 450V438.704H250.038V450H247.526ZM263.116 450.176C262.188 450.176 261.367 449.979 260.652 449.584C259.948 449.189 259.394 448.645 258.988 447.952C258.594 447.248 258.396 446.448 258.396 445.552V438.704H260.924V445.696C260.924 446.144 261.02 446.533 261.212 446.864C261.404 447.195 261.666 447.451 261.996 447.632C262.338 447.803 262.711 447.888 263.116 447.888C263.543 447.888 263.916 447.803 264.236 447.632C264.556 447.451 264.807 447.2 264.988 446.88C265.18 446.549 265.276 446.16 265.276 445.712V438.704H267.804V445.568C267.804 446.464 267.607 447.259 267.212 447.952C266.818 448.645 266.268 449.189 265.564 449.584C264.86 449.979 264.044 450.176 263.116 450.176ZM271.303 452.032L269.959 450.752C270.641 450.08 271.164 449.259 271.527 448.288C271.889 447.307 272.071 446.203 272.071 444.976C272.071 443.739 271.889 442.635 271.527 441.664C271.164 440.693 270.641 439.877 269.959 439.216L271.303 437.92C271.911 438.443 272.428 439.072 272.855 439.808C273.281 440.544 273.607 441.349 273.831 442.224C274.055 443.099 274.167 444.016 274.167 444.976C274.167 445.936 274.055 446.853 273.831 447.728C273.607 448.603 273.281 449.408 272.855 450.144C272.428 450.88 271.911 451.509 271.303 452.032Z" fill="#1A2A33"/>
<g filter="url(#filter2_i_0_734)">
<rect x="24" y="492" width="327" height="56" rx="15" fill="#31C3BD"/>
</g>
<path d="M86.2521 522V510.704H88.0121L88.7641 512.96V522H86.2521ZM94.0441 522L87.3881 513.472L88.0121 510.704L94.6681 519.232L94.0441 522ZM94.0441 522L93.3721 519.744V510.704H95.8841V522H94.0441ZM99.0646 522V510.704H101.577V522H99.0646ZM100.985 522V519.824H107.177V522H100.985ZM100.985 517.28V515.184H106.617V517.28H100.985ZM100.985 512.864V510.704H107.097V512.864H100.985ZM112.724 522L109.092 510.704H111.588L114.244 519.392H113.268L115.86 510.704H117.828L120.42 519.392H119.46L122.1 510.704H124.58L120.948 522H118.98L116.372 513.312H117.3L114.692 522H112.724ZM136.314 522.176C135.493 522.176 134.72 522.027 133.994 521.728C133.28 521.429 132.656 521.019 132.122 520.496C131.589 519.963 131.168 519.344 130.858 518.64C130.56 517.925 130.41 517.157 130.41 516.336C130.41 515.515 130.565 514.752 130.874 514.048C131.184 513.344 131.61 512.731 132.154 512.208C132.709 511.675 133.354 511.264 134.09 510.976C134.826 510.677 135.616 510.528 136.458 510.528C137.429 510.528 138.309 510.704 139.098 511.056C139.898 511.408 140.56 511.893 141.082 512.512L139.37 514.224C139.008 513.755 138.581 513.403 138.09 513.168C137.6 512.933 137.045 512.816 136.426 512.816C135.765 512.816 135.173 512.965 134.65 513.264C134.128 513.552 133.717 513.963 133.418 514.496C133.13 515.019 132.986 515.632 132.986 516.336C132.986 517.04 133.13 517.659 133.418 518.192C133.706 518.725 134.101 519.141 134.602 519.44C135.104 519.739 135.68 519.888 136.33 519.888C136.992 519.888 137.552 519.765 138.01 519.52C138.48 519.264 138.837 518.901 139.082 518.432C139.338 517.952 139.466 517.371 139.466 516.688L141.13 517.808L136.09 517.728V515.6H142.026V515.968C142.026 517.323 141.781 518.464 141.29 519.392C140.81 520.309 140.138 521.003 139.274 521.472C138.421 521.941 137.434 522.176 136.314 522.176ZM143.217 522L147.697 510.704H149.969L154.401 522H151.745L148.353 512.624H149.265L145.825 522H143.217ZM145.761 519.952V517.904H151.921V519.952H145.761ZM156.596 522V510.704H158.388L162.836 517.632H161.924L166.356 510.704H168.164V522H165.652V514.944L166.1 515.056L163.204 519.568H161.54L158.66 515.056L159.092 514.944V522H156.596ZM171.33 522V510.704H173.842V522H171.33ZM173.25 522V519.824H179.442V522H173.25ZM173.25 517.28V515.184H178.882V517.28H173.25ZM173.25 512.864V510.704H179.362V512.864H173.25ZM192.556 524.032C191.948 523.509 191.43 522.88 191.004 522.144C190.577 521.408 190.252 520.603 190.028 519.728C189.804 518.853 189.692 517.936 189.692 516.976C189.692 516.016 189.804 515.099 190.028 514.224C190.252 513.349 190.577 512.544 191.004 511.808C191.43 511.072 191.948 510.443 192.556 509.92L193.9 511.216C193.217 511.877 192.694 512.693 192.332 513.664C191.969 514.635 191.788 515.739 191.788 516.976C191.788 518.203 191.969 519.307 192.332 520.288C192.694 521.259 193.217 522.08 193.9 522.752L192.556 524.032ZM199.741 522L195.389 510.704H198.077L201.389 519.84H200.285L203.645 510.704H206.301L201.901 522H199.741ZM211.394 522.176C210.466 522.176 209.666 522.027 208.994 521.728C208.333 521.419 207.725 520.955 207.17 520.336L208.802 518.72C209.165 519.136 209.565 519.461 210.002 519.696C210.45 519.92 210.967 520.032 211.554 520.032C212.087 520.032 212.498 519.936 212.786 519.744C213.085 519.552 213.234 519.285 213.234 518.944C213.234 518.635 213.138 518.384 212.946 518.192C212.754 518 212.498 517.835 212.178 517.696C211.869 517.557 211.522 517.424 211.138 517.296C210.765 517.168 210.391 517.024 210.018 516.864C209.645 516.693 209.298 516.485 208.978 516.24C208.669 515.984 208.418 515.669 208.226 515.296C208.034 514.912 207.938 514.432 207.938 513.856C207.938 513.163 208.103 512.565 208.434 512.064C208.775 511.563 209.245 511.184 209.842 510.928C210.439 510.661 211.127 510.528 211.906 510.528C212.695 510.528 213.415 510.667 214.066 510.944C214.727 511.221 215.271 511.6 215.698 512.08L214.066 513.696C213.725 513.344 213.378 513.083 213.026 512.912C212.685 512.741 212.295 512.656 211.858 512.656C211.421 512.656 211.074 512.741 210.818 512.912C210.562 513.072 210.434 513.307 210.434 513.616C210.434 513.904 210.53 514.139 210.722 514.32C210.914 514.491 211.165 514.64 211.474 514.768C211.794 514.896 212.141 515.024 212.514 515.152C212.898 515.28 213.277 515.429 213.65 515.6C214.023 515.771 214.365 515.989 214.674 516.256C214.994 516.512 215.25 516.843 215.442 517.248C215.634 517.643 215.73 518.133 215.73 518.72C215.73 519.797 215.346 520.645 214.578 521.264C213.81 521.872 212.749 522.176 211.394 522.176ZM224.297 517.888V515.936H226.729C227.038 515.936 227.321 515.872 227.577 515.744C227.833 515.616 228.036 515.429 228.185 515.184C228.334 514.939 228.409 514.64 228.409 514.288C228.409 513.947 228.334 513.653 228.185 513.408C228.036 513.163 227.833 512.976 227.577 512.848C227.321 512.72 227.038 512.656 226.729 512.656H224.297V510.704H227.097C227.812 510.704 228.457 510.848 229.033 511.136C229.609 511.424 230.062 511.84 230.393 512.384C230.734 512.917 230.905 513.552 230.905 514.288C230.905 515.024 230.734 515.664 230.393 516.208C230.062 516.741 229.609 517.157 229.033 517.456C228.457 517.744 227.812 517.888 227.097 517.888H224.297ZM222.377 522V510.704H224.889V522H222.377ZM233.315 522V510.704H235.827V522H233.315ZM235.251 522V519.792H240.835V522H235.251ZM242.138 522L246.618 510.704H248.89L253.322 522H250.666L247.274 512.624H248.186L244.746 522H242.138ZM244.682 519.952V517.904H250.842V519.952H244.682ZM257.568 517.792L253.216 510.704H256.128L259.472 516.432H257.6L260.944 510.704H263.792L259.408 517.792H257.568ZM257.264 522V516.64H259.776V522H257.264ZM265.69 522V510.704H268.202V522H265.69ZM267.61 522V519.824H273.802V522H267.61ZM267.61 517.28V515.184H273.242V517.28H267.61ZM267.61 512.864V510.704H273.722V512.864H267.61ZM278.453 517.344V515.488H280.837C281.339 515.488 281.723 515.36 281.989 515.104C282.267 514.848 282.405 514.501 282.405 514.064C282.405 513.659 282.272 513.323 282.005 513.056C281.739 512.789 281.355 512.656 280.853 512.656H278.453V510.704H281.141C281.888 510.704 282.544 510.848 283.109 511.136C283.675 511.413 284.117 511.803 284.437 512.304C284.757 512.805 284.917 513.381 284.917 514.032C284.917 514.693 284.757 515.275 284.437 515.776C284.117 516.267 283.669 516.651 283.093 516.928C282.517 517.205 281.84 517.344 281.061 517.344H278.453ZM276.533 522V510.704H279.045V522H276.533ZM282.677 522L279.157 517.136L281.461 516.512L285.653 522H282.677ZM288.467 524.032L287.123 522.752C287.805 522.08 288.328 521.259 288.691 520.288C289.053 519.307 289.235 518.203 289.235 516.976C289.235 515.739 289.053 514.635 288.691 513.664C288.328 512.693 287.805 511.877 287.123 511.216L288.467 509.92C289.075 510.443 289.592 511.072 290.019 511.808C290.445 512.544 290.771 513.349 290.995 514.224C291.219 515.099 291.331 516.016 291.331 516.976C291.331 517.936 291.219 518.853 290.995 519.728C290.771 520.603 290.445 521.408 290.019 522.144C289.592 522.88 289.075 523.509 288.467 524.032Z" fill="#1A2A33"/>
<path fill-rule="evenodd" clip-rule="evenodd" d="M179.681 120.634C178.509 119.463 176.61 119.463 175.438 120.634L168 128.073L160.562 120.634C159.39 119.463 157.491 119.463 156.319 120.634L153.634 123.319C152.463 124.491 152.463 126.39 153.634 127.562L161.073 135L153.634 142.438C152.463 143.61 152.463 145.509 153.634 146.681L156.319 149.366C157.491 150.537 159.39 150.537 160.562 149.366L168 141.927L175.438 149.366C176.61 150.537 178.509 150.537 179.681 149.366L182.366 146.681C183.537 145.509 183.537 143.61 182.366 142.438L174.927 135L182.366 127.562C183.537 126.39 183.537 124.491 182.366 123.319L179.681 120.634Z" fill="#31C3BD"/>
<path fill-rule="evenodd" clip-rule="evenodd" d="M223.97 134.871C223.97 126.106 216.865 119 208.1 119C199.335 119 192.229 126.106 192.229 134.871C192.229 143.636 199.335 150.741 208.1 150.741C216.865 150.741 223.97 143.636 223.97 134.871ZM201.634 134.871C201.634 131.3 204.529 128.405 208.1 128.405C211.671 128.405 214.566 131.3 214.566 134.871C214.566 138.442 211.671 141.336 208.1 141.336C204.529 141.336 201.634 138.442 201.634 134.871Z" fill="#F2B137"/>
<defs>
<filter id="filter0_i_0_734" x="24" y="183" width="327" height="205" filterUnits="userSpaceOnUse" color-interpolation-filters="sRGB">
<feFlood flood-opacity="0" result="BackgroundImageFix"/>
<feBlend mode="normal" in="SourceGraphic" in2="BackgroundImageFix" result="shape"/>
<feColorMatrix in="SourceAlpha" type="matrix" values="0 0 0 0 0 0 0 0 0 0 0 0 0 0 0 0 0 0 127 0" result="hardAlpha"/>
<feOffset dy="-8"/>
<feComposite in2="hardAlpha" operator="arithmetic" k2="-1" k3="1"/>
<feColorMatrix type="matrix" values="0 0 0 0 0.0627451 0 0 0 0 0.129412 0 0 0 0 0.164706 0 0 0 1 0"/>
<feBlend mode="normal" in2="shape" result="effect1_innerShadow_0_734"/>
</filter>
<filter id="filter1_i_0_734" x="24" y="420" width="327" height="56" filterUnits="userSpaceOnUse" color-interpolation-filters="sRGB">
<feFlood flood-opacity="0" result="BackgroundImageFix"/>
<feBlend mode="normal" in="SourceGraphic" in2="BackgroundImageFix" result="shape"/>
<feColorMatrix in="SourceAlpha" type="matrix" values="0 0 0 0 0 0 0 0 0 0 0 0 0 0 0 0 0 0 127 0" result="hardAlpha"/>
<feOffset dy="-8"/>
<feComposite in2="hardAlpha" operator="arithmetic" k2="-1" k3="1"/>
<feColorMatrix type="matrix" values="0 0 0 0 0.8 0 0 0 0 0.545098 0 0 0 0 0.0745098 0 0 0 1 0"/>
<feBlend mode="normal" in2="shape" result="effect1_innerShadow_0_734"/>
</filter>
<filter id="filter2_i_0_734" x="24" y="492" width="327" height="56" filterUnits="userSpaceOnUse" color-interpolation-filters="sRGB">
<feFlood flood-opacity="0" result="BackgroundImageFix"/>
<feBlend mode="normal" in="SourceGraphic" in2="BackgroundImageFix" result="shape"/>
<feColorMatrix in="SourceAlpha" type="matrix" values="0 0 0 0 0 0 0 0 0 0 0 0 0 0 0 0 0 0 127 0" result="hardAlpha"/>
<feOffset dy="-8"/>
<feComposite in2="hardAlpha" operator="arithmetic" k2="-1" k3="1"/>
<feColorMatrix type="matrix" values="0 0 0 0 0.0666667 0 0 0 0 0.54902 0 0 0 0 0.529412 0 0 0 1 0"/>
<feBlend mode="normal" in2="shape" result="effect1_innerShadow_0_734"/>
</filter>
</defs>
</svg>
