<svg width="375" height="667" viewBox="0 0 375 667" fill="none" xmlns="http://www.w3.org/2000/svg">
<rect width="375" height="667" fill="#1A2A33"/>
<g filter="url(#filter0_i_0_657)">
<rect x="24" y="128" width="96" height="96" rx="10" fill="#1F3641"/>
</g>
<g filter="url(#filter1_i_0_657)">
<rect x="140" y="128" width="96" height="96" rx="10" fill="#1F3641"/>
</g>
<path fill-rule="evenodd" clip-rule="evenodd" d="M207.446 158.612L201.388 152.554C200.649 151.815 199.452 151.815 198.714 152.554L188 163.268L177.286 152.554C176.548 151.815 175.351 151.815 174.612 152.554L168.554 158.612C167.815 159.351 167.815 160.548 168.554 161.286L179.268 172L168.554 182.714C167.815 183.452 167.815 184.649 168.554 185.388L174.612 191.446C175.351 192.185 176.548 192.185 177.286 191.446L188 180.732L198.714 191.446C199.452 192.185 200.649 192.185 201.388 191.446L207.446 185.388C208.185 184.649 208.185 183.452 207.446 182.714L196.732 172L207.446 161.286C208.185 160.548 208.185 159.351 207.446 158.612Z" fill="#31C3BD"/>
<g filter="url(#filter2_i_0_657)">
<rect x="256" y="128" width="96" height="96" rx="10" fill="#1F3641"/>
</g>
<path fill-rule="evenodd" clip-rule="evenodd" d="M324 172C324 160.954 315.046 152 304 152C292.954 152 284 160.954 284 172C284 183.046 292.954 192 304 192C315.046 192 324 183.046 324 172ZM295.852 172C295.852 167.5 299.5 163.852 304 163.852C308.5 163.852 312.148 167.5 312.148 172C312.148 176.5 308.5 180.148 304 180.148C299.5 180.148 295.852 176.5 295.852 172Z" fill="#F2B137"/>
<g filter="url(#filter3_i_0_657)">
<rect x="24" y="360" width="96" height="96" rx="10" fill="#1F3641"/>
</g>
<g filter="url(#filter4_i_0_657)">
<rect x="256" y="360" width="96" height="96" rx="10" fill="#1F3641"/>
</g>
<path fill-rule="evenodd" clip-rule="evenodd" d="M323.446 390.612L317.388 384.554C316.649 383.815 315.452 383.815 314.714 384.554L304 395.268L293.286 384.554C292.548 383.815 291.351 383.815 290.612 384.554L284.554 390.612C283.815 391.351 283.815 392.548 284.554 393.286L295.268 404L284.554 414.714C283.815 415.452 283.815 416.649 284.554 417.388L290.612 423.446C291.351 424.185 292.548 424.185 293.286 423.446L304 412.732L314.714 423.446C315.452 424.185 316.649 424.185 317.388 423.446L323.446 417.388C324.185 416.649 324.185 415.452 323.446 414.714L312.732 404L323.446 393.286C324.185 392.548 324.185 391.351 323.446 390.612Z" fill="#31C3BD"/>
<g filter="url(#filter5_i_0_657)">
<rect x="140" y="360" width="96" height="96" rx="10" fill="#1F3641"/>
</g>
<path fill-rule="evenodd" clip-rule="evenodd" d="M208 404C208 392.954 199.046 384 188 384C176.954 384 168 392.954 168 404C168 415.046 176.954 424 188 424C199.046 424 208 415.046 208 404ZM179.852 404C179.852 399.5 183.5 395.852 188 395.852C192.5 395.852 196.148 399.5 196.148 404C196.148 408.5 192.5 412.148 188 412.148C183.5 412.148 179.852 408.5 179.852 404Z" fill="#F2B137"/>
<g filter="url(#filter6_i_0_657)">
<rect x="24" y="244" width="96" height="96" rx="10" fill="#1F3641"/>
</g>
<path fill-rule="evenodd" clip-rule="evenodd" d="M91.4462 274.612L85.3878 268.554C84.6494 267.815 83.4522 267.815 82.7137 268.554L72 279.268L61.2863 268.554C60.5478 267.815 59.3506 267.815 58.6122 268.554L52.5538 274.612C51.8154 275.351 51.8154 276.548 52.5538 277.286L63.2676 288L52.5538 298.714C51.8154 299.452 51.8154 300.649 52.5538 301.388L58.6122 307.446C59.3506 308.185 60.5478 308.185 61.2863 307.446L72 296.732L82.7137 307.446C83.4522 308.185 84.6494 308.185 85.3878 307.446L91.4462 301.388C92.1846 300.649 92.1846 299.452 91.4462 298.714L80.7324 288L91.4462 277.286C92.1846 276.548 92.1846 275.351 91.4462 274.612Z" fill="#31C3BD"/>
<g filter="url(#filter7_i_0_657)">
<rect x="256" y="244" width="96" height="96" rx="10" fill="#1F3641"/>
</g>
<path fill-rule="evenodd" clip-rule="evenodd" d="M323.446 274.612L317.388 268.554C316.649 267.815 315.452 267.815 314.714 268.554L304 279.268L293.286 268.554C292.548 267.815 291.351 267.815 290.612 268.554L284.554 274.612C283.815 275.351 283.815 276.548 284.554 277.286L295.268 288L284.554 298.714C283.815 299.452 283.815 300.649 284.554 301.388L290.612 307.446C291.351 308.185 292.548 308.185 293.286 307.446L304 296.732L314.714 307.446C315.452 308.185 316.649 308.185 317.388 307.446L323.446 301.388C324.185 300.649 324.185 299.452 323.446 298.714L312.732 288L323.446 277.286C324.185 276.548 324.185 275.351 323.446 274.612Z" fill="#31C3BD"/>
<g filter="url(#filter8_i_0_657)">
<rect x="140" y="244" width="96" height="96" rx="10" fill="#1F3641"/>
</g>
<path fill-rule="evenodd" clip-rule="evenodd" d="M208 288C208 276.954 199.046 268 188 268C176.954 268 168 276.954 168 288C168 299.046 176.954 308 188 308C199.046 308 208 299.046 208 288ZM179.852 288C179.852 283.5 183.5 279.852 188 279.852C192.5 279.852 196.148 283.5 196.148 288C196.148 292.5 192.5 296.148 188 296.148C183.5 296.148 179.852 292.5 179.852 288Z" fill="#F2B137"/>
<rect x="24" y="476" width="96" height="64" rx="10" fill="#31C3BD"/>
<g clip-path="url(#clip0_0_657)">
<path d="M51.7719 502L48.8879 497.632H48.5939L44.7159 492.2H46.6199L49.5179 496.316H49.8119L53.6479 502H51.7719ZM44.5479 502L48.2719 496.764L49.3779 497.702L46.3539 502H44.5479ZM49.9239 497.31L48.8179 496.372L51.6739 492.2H53.4799L49.9239 497.31ZM61.508 503.666C61.0134 503.227 60.584 502.691 60.22 502.056C59.8654 501.421 59.59 500.726 59.394 499.97C59.198 499.214 59.1 498.43 59.1 497.618C59.1 496.806 59.198 496.022 59.394 495.266C59.59 494.51 59.8654 493.815 60.22 493.18C60.584 492.545 61.0134 492.009 61.508 491.57L62.39 492.354C61.774 492.923 61.2934 493.661 60.948 494.566C60.612 495.462 60.444 496.479 60.444 497.618C60.444 498.747 60.612 499.765 60.948 500.67C61.2934 501.575 61.774 502.313 62.39 502.882L61.508 503.666ZM67.7286 498.08L63.9066 492.2H65.7686L68.7506 496.89H67.8826L70.8646 492.2H72.6986L68.8486 498.08H67.7286ZM67.5046 502V497.072H69.1146V502H67.5046ZM78.6452 502.14C77.9452 502.14 77.2919 502.009 76.6852 501.748C76.0786 501.487 75.5466 501.127 75.0892 500.67C74.6319 500.203 74.2726 499.667 74.0112 499.06C73.7592 498.444 73.6332 497.786 73.6332 497.086C73.6332 496.386 73.7592 495.733 74.0112 495.126C74.2726 494.519 74.6272 493.987 75.0752 493.53C75.5326 493.063 76.0599 492.704 76.6572 492.452C77.2639 492.191 77.9172 492.06 78.6172 492.06C79.3172 492.06 79.9659 492.191 80.5632 492.452C81.1699 492.704 81.7019 493.063 82.1592 493.53C82.6166 493.987 82.9712 494.524 83.2232 495.14C83.4846 495.747 83.6152 496.4 83.6152 497.1C83.6152 497.8 83.4846 498.458 83.2232 499.074C82.9712 499.681 82.6166 500.213 82.1592 500.67C81.7112 501.127 81.1839 501.487 80.5772 501.748C79.9799 502.009 79.3359 502.14 78.6452 502.14ZM78.6172 500.6C79.2799 500.6 79.8586 500.451 80.3532 500.152C80.8572 499.853 81.2492 499.443 81.5292 498.92C81.8186 498.388 81.9632 497.777 81.9632 497.086C81.9632 496.573 81.8792 496.106 81.7112 495.686C81.5526 495.257 81.3239 494.888 81.0252 494.58C80.7266 494.263 80.3719 494.02 79.9612 493.852C79.5599 493.684 79.1119 493.6 78.6172 493.6C77.9639 493.6 77.3852 493.749 76.8812 494.048C76.3866 494.337 75.9946 494.743 75.7052 495.266C75.4252 495.789 75.2852 496.395 75.2852 497.086C75.2852 497.599 75.3646 498.075 75.5232 498.514C75.6912 498.943 75.9199 499.312 76.2092 499.62C76.5079 499.928 76.8626 500.171 77.2732 500.348C77.6839 500.516 78.1319 500.6 78.6172 500.6ZM89.9075 502.14C89.1701 502.14 88.5075 501.972 87.9195 501.636C87.3315 501.3 86.8648 500.843 86.5195 500.264C86.1835 499.676 86.0155 499.013 86.0155 498.276V492.2H87.6255V498.262C87.6255 498.738 87.7235 499.153 87.9195 499.508C88.1248 499.853 88.4001 500.124 88.7455 500.32C89.0908 500.507 89.4781 500.6 89.9075 500.6C90.3461 500.6 90.7335 500.507 91.0695 500.32C91.4055 500.124 91.6715 499.853 91.8675 499.508C92.0635 499.153 92.1615 498.743 92.1615 498.276V492.2H93.7715V498.29C93.7715 499.027 93.6035 499.685 93.2675 500.264C92.9315 500.843 92.4741 501.3 91.8955 501.636C91.3168 501.972 90.6541 502.14 89.9075 502.14ZM96.8225 503.666L95.9405 502.882C96.5565 502.313 97.0325 501.575 97.3685 500.67C97.7138 499.765 97.8865 498.747 97.8865 497.618C97.8865 496.479 97.7138 495.462 97.3685 494.566C97.0325 493.661 96.5565 492.923 95.9405 492.354L96.8225 491.57C97.3172 492.009 97.7418 492.545 98.0965 493.18C98.4605 493.815 98.7405 494.51 98.9365 495.266C99.1325 496.022 99.2305 496.806 99.2305 497.618C99.2305 498.43 99.1325 499.214 98.9365 499.97C98.7405 500.726 98.4605 501.421 98.0965 502.056C97.7418 502.691 97.3172 503.227 96.8225 503.666Z" fill="#1A2A33"/>
<path d="M65.622 523V508.88H68.742V523H65.622ZM62.902 511.54V508.88H68.542V511.54H62.902ZM71.7305 518.1L76.3705 508.88H79.7905L75.0505 518.1H71.7305ZM71.7305 519.86V518.1L72.7705 517.2H83.0505V519.86H71.7305ZM78.3905 523V514.26H81.4705V523H78.3905Z" fill="#1A2A33"/>
</g>
<rect x="140" y="476" width="96" height="64" rx="10" fill="#A8BFC9"/>
<path d="M178.817 500V491.84H180.197V500H178.817ZM176.081 492.86V491.6H182.933V492.86H176.081ZM184.885 500V491.6H186.265V500H184.885ZM188.834 500V491.6H190.214V500H188.834ZM189.782 500V498.74H194.486V500H189.782ZM189.782 496.316V495.104H194.078V496.316H189.782ZM189.782 492.86V491.6H194.426V492.86H189.782ZM198.791 500.12C198.127 500.12 197.563 500 197.099 499.76C196.635 499.52 196.219 499.168 195.851 498.704L196.787 497.768C197.019 498.104 197.295 498.368 197.615 498.56C197.935 498.744 198.343 498.836 198.839 498.836C199.303 498.836 199.671 498.74 199.943 498.548C200.223 498.356 200.363 498.092 200.363 497.756C200.363 497.476 200.291 497.248 200.147 497.072C200.003 496.896 199.811 496.752 199.571 496.64C199.339 496.52 199.079 496.416 198.791 496.328C198.511 496.232 198.227 496.128 197.939 496.016C197.659 495.896 197.399 495.748 197.159 495.572C196.927 495.396 196.739 495.168 196.595 494.888C196.451 494.608 196.379 494.252 196.379 493.82C196.379 493.324 196.499 492.904 196.739 492.56C196.987 492.208 197.319 491.94 197.735 491.756C198.151 491.572 198.615 491.48 199.127 491.48C199.679 491.48 200.171 491.588 200.603 491.804C201.043 492.02 201.399 492.296 201.671 492.632L200.735 493.568C200.495 493.296 200.243 493.096 199.979 492.968C199.723 492.832 199.427 492.764 199.091 492.764C198.675 492.764 198.347 492.848 198.107 493.016C197.875 493.184 197.759 493.42 197.759 493.724C197.759 493.98 197.831 494.188 197.975 494.348C198.119 494.5 198.307 494.632 198.539 494.744C198.779 494.848 199.039 494.948 199.319 495.044C199.607 495.14 199.891 495.248 200.171 495.368C200.459 495.488 200.719 495.644 200.951 495.836C201.191 496.02 201.383 496.26 201.527 496.556C201.671 496.852 201.743 497.224 201.743 497.672C201.743 498.424 201.475 499.02 200.939 499.46C200.411 499.9 199.695 500.12 198.791 500.12Z" fill="#1A2A33"/>
<path d="M181.705 523.22C180.731 523.22 179.838 523.053 179.025 522.72C178.211 522.373 177.525 521.88 176.965 521.24L178.985 519.22C179.238 519.593 179.605 519.9 180.085 520.14C180.578 520.367 181.098 520.48 181.645 520.48C182.138 520.48 182.565 520.393 182.925 520.22C183.285 520.047 183.565 519.8 183.765 519.48C183.978 519.16 184.085 518.78 184.085 518.34C184.085 517.9 183.978 517.527 183.765 517.22C183.565 516.9 183.265 516.653 182.865 516.48C182.478 516.307 182.011 516.22 181.465 516.22C181.211 516.22 180.945 516.24 180.665 516.28C180.398 516.307 180.171 516.353 179.985 516.42L181.365 514.68C181.738 514.573 182.091 514.487 182.425 514.42C182.771 514.34 183.091 514.3 183.385 514.3C184.105 514.3 184.751 514.473 185.325 514.82C185.898 515.153 186.351 515.633 186.685 516.26C187.031 516.873 187.205 517.607 187.205 518.46C187.205 519.393 186.971 520.22 186.505 520.94C186.051 521.66 185.411 522.22 184.585 522.62C183.771 523.02 182.811 523.22 181.705 523.22ZM179.985 516.42V514.68L183.425 510.64L186.945 510.62L183.365 514.7L179.985 516.42ZM177.845 511.54V508.88H186.945V510.62L184.485 511.54H177.845ZM189.546 521.24L194.966 515.64C195.3 515.307 195.566 515 195.766 514.72C195.966 514.44 196.113 514.18 196.206 513.94C196.3 513.687 196.346 513.433 196.346 513.18C196.346 512.633 196.166 512.207 195.806 511.9C195.46 511.58 195 511.42 194.426 511.42C193.866 511.42 193.36 511.573 192.906 511.88C192.466 512.173 192.04 512.66 191.626 513.34L189.526 511.52C190.086 510.573 190.8 509.86 191.666 509.38C192.533 508.9 193.526 508.66 194.646 508.66C195.62 508.66 196.46 508.84 197.166 509.2C197.886 509.56 198.44 510.073 198.826 510.74C199.226 511.407 199.426 512.187 199.426 513.08C199.426 513.64 199.353 514.16 199.206 514.64C199.06 515.107 198.82 515.573 198.486 516.04C198.166 516.493 197.733 516.993 197.186 517.54L193.426 521.28L189.546 521.24ZM189.546 523V521.24L192.206 520.32H199.706V523H189.546Z" fill="#1A2A33"/>
<rect x="256" y="476" width="96" height="64" rx="10" fill="#F2B137"/>
<path d="M285.686 500.12C285.086 500.12 284.526 500.008 284.006 499.784C283.486 499.56 283.03 499.252 282.638 498.86C282.246 498.46 281.938 498 281.714 497.48C281.498 496.952 281.39 496.388 281.39 495.788C281.39 495.188 281.498 494.628 281.714 494.108C281.938 493.588 282.242 493.132 282.626 492.74C283.018 492.34 283.47 492.032 283.982 491.816C284.502 491.592 285.062 491.48 285.662 491.48C286.262 491.48 286.818 491.592 287.33 491.816C287.85 492.032 288.306 492.34 288.698 492.74C289.09 493.132 289.394 493.592 289.61 494.12C289.834 494.64 289.946 495.2 289.946 495.8C289.946 496.4 289.834 496.964 289.61 497.492C289.394 498.012 289.09 498.468 288.698 498.86C288.314 499.252 287.862 499.56 287.342 499.784C286.83 500.008 286.278 500.12 285.686 500.12ZM285.662 498.8C286.23 498.8 286.726 498.672 287.15 498.416C287.582 498.16 287.918 497.808 288.158 497.36C288.406 496.904 288.53 496.38 288.53 495.788C288.53 495.348 288.458 494.948 288.314 494.588C288.178 494.22 287.982 493.904 287.726 493.64C287.47 493.368 287.166 493.16 286.814 493.016C286.47 492.872 286.086 492.8 285.662 492.8C285.102 492.8 284.606 492.928 284.174 493.184C283.75 493.432 283.414 493.78 283.166 494.228C282.926 494.676 282.806 495.196 282.806 495.788C282.806 496.228 282.874 496.636 283.01 497.012C283.154 497.38 283.35 497.696 283.598 497.96C283.854 498.224 284.158 498.432 284.51 498.584C284.862 498.728 285.246 498.8 285.662 498.8ZM296.884 501.428C296.46 501.052 296.092 500.592 295.78 500.048C295.476 499.504 295.24 498.908 295.072 498.26C294.904 497.612 294.82 496.94 294.82 496.244C294.82 495.548 294.904 494.876 295.072 494.228C295.24 493.58 295.476 492.984 295.78 492.44C296.092 491.896 296.46 491.436 296.884 491.06L297.64 491.732C297.112 492.22 296.7 492.852 296.404 493.628C296.116 494.396 295.972 495.268 295.972 496.244C295.972 497.212 296.116 498.084 296.404 498.86C296.7 499.636 297.112 500.268 297.64 500.756L296.884 501.428ZM303.263 500.12C302.655 500.12 302.091 500.012 301.571 499.796C301.059 499.572 300.611 499.264 300.227 498.872C299.843 498.472 299.547 498.012 299.339 497.492C299.131 496.964 299.027 496.4 299.027 495.8C299.027 495.2 299.131 494.64 299.339 494.12C299.547 493.592 299.843 493.132 300.227 492.74C300.611 492.348 301.059 492.04 301.571 491.816C302.091 491.592 302.655 491.48 303.263 491.48C303.943 491.48 304.531 491.592 305.027 491.816C305.523 492.04 305.963 492.344 306.347 492.728L305.411 493.664C305.163 493.392 304.859 493.18 304.499 493.028C304.147 492.876 303.735 492.8 303.263 492.8C302.847 492.8 302.467 492.872 302.123 493.016C301.779 493.16 301.479 493.368 301.223 493.64C300.975 493.904 300.783 494.22 300.647 494.588C300.511 494.956 300.443 495.36 300.443 495.8C300.443 496.24 300.511 496.644 300.647 497.012C300.783 497.38 300.975 497.7 301.223 497.972C301.479 498.236 301.779 498.44 302.123 498.584C302.467 498.728 302.847 498.8 303.263 498.8C303.775 498.8 304.207 498.724 304.559 498.572C304.919 498.412 305.223 498.196 305.471 497.924L306.407 498.86C306.023 499.252 305.571 499.56 305.051 499.784C304.531 500.008 303.935 500.12 303.263 500.12ZM309.337 496.832V495.632H311.437C311.725 495.632 311.977 495.576 312.193 495.464C312.417 495.344 312.593 495.18 312.721 494.972C312.849 494.756 312.913 494.504 312.913 494.216C312.913 493.928 312.849 493.68 312.721 493.472C312.593 493.256 312.417 493.092 312.193 492.98C311.977 492.86 311.725 492.8 311.437 492.8H309.337V491.6H311.509C312.037 491.6 312.509 491.708 312.925 491.924C313.349 492.14 313.681 492.444 313.921 492.836C314.169 493.228 314.293 493.688 314.293 494.216C314.293 494.744 314.169 495.204 313.921 495.596C313.681 495.988 313.349 496.292 312.925 496.508C312.509 496.724 312.037 496.832 311.509 496.832H309.337ZM308.389 500V491.6H309.769V500H308.389ZM319.621 500.12C318.989 500.12 318.421 499.976 317.917 499.688C317.413 499.4 317.013 499.008 316.717 498.512C316.429 498.008 316.285 497.44 316.285 496.808V491.6H317.665V496.796C317.665 497.204 317.749 497.56 317.917 497.864C318.093 498.16 318.329 498.392 318.625 498.56C318.921 498.72 319.253 498.8 319.621 498.8C319.997 498.8 320.329 498.72 320.617 498.56C320.905 498.392 321.133 498.16 321.301 497.864C321.469 497.56 321.553 497.208 321.553 496.808V491.6H322.933V496.82C322.933 497.452 322.789 498.016 322.501 498.512C322.213 499.008 321.821 499.4 321.325 499.688C320.829 499.976 320.261 500.12 319.621 500.12ZM325.548 501.428L324.792 500.756C325.32 500.268 325.728 499.636 326.016 498.86C326.312 498.084 326.46 497.212 326.46 496.244C326.46 495.268 326.312 494.396 326.016 493.628C325.728 492.852 325.32 492.22 324.792 491.732L325.548 491.06C325.972 491.436 326.336 491.896 326.64 492.44C326.952 492.984 327.192 493.58 327.36 494.228C327.528 494.876 327.612 495.548 327.612 496.244C327.612 496.94 327.528 497.612 327.36 498.26C327.192 498.908 326.952 499.504 326.64 500.048C326.336 500.592 325.972 501.052 325.548 501.428Z" fill="#1A2A33"/>
<path d="M300.436 523V508.88H303.556V523H300.436ZM297.716 511.54V508.88H303.356V511.54H297.716ZM309.245 523V508.88H312.365V523H309.245ZM306.525 511.54V508.88H312.165V511.54H306.525Z" fill="#1A2A33"/>
<path fill-rule="evenodd" clip-rule="evenodd" d="M51.681 29.6344C50.5094 28.4628 48.6099 28.4628 47.4383 29.6344L40 37.0727L32.5617 29.6344C31.3901 28.4628 29.4906 28.4628 28.319 29.6344L25.6344 32.319C24.4628 33.4906 24.4628 35.3901 25.6344 36.5617L33.0727 44L25.6344 51.4383C24.4628 52.6099 24.4628 54.5094 25.6344 55.681L28.319 58.3656C29.4906 59.5372 31.3901 59.5372 32.5617 58.3656L40 50.9273L47.4383 58.3656C48.6099 59.5372 50.5094 59.5372 51.681 58.3656L54.3656 55.681C55.5372 54.5094 55.5372 52.6099 54.3656 51.4383L46.9273 44L54.3656 36.5617C55.5372 35.3901 55.5372 33.4906 54.3656 32.319L51.681 29.6344Z" fill="#31C3BD"/>
<path fill-rule="evenodd" clip-rule="evenodd" d="M95.9704 43.8706C95.9704 35.1055 88.8649 28 80.0998 28C71.3348 28 64.2292 35.1055 64.2292 43.8706C64.2292 52.6357 71.3348 59.7412 80.0998 59.7412C88.8649 59.7412 95.9704 52.6357 95.9704 43.8706ZM73.634 43.8706C73.634 40.2996 76.5289 37.4048 80.0998 37.4048C83.6708 37.4048 86.5656 40.2996 86.5656 43.8706C86.5656 47.4416 83.6708 50.3364 80.0998 50.3364C76.5289 50.3364 73.634 47.4416 73.634 43.8706Z" fill="#F2B137"/>
<g filter="url(#filter9_i_0_657)">
<rect x="142" y="24" width="96" height="40" rx="5" fill="#1F3641"/>
</g>
<g clip-path="url(#clip1_0_657)">
<path fill-rule="evenodd" clip-rule="evenodd" d="M172.778 36.6449L170.355 34.2215C170.06 33.9262 169.581 33.9262 169.285 34.2215L165 38.507L160.715 34.2215C160.419 33.9262 159.94 33.9262 159.645 34.2215L157.222 36.6449C156.926 36.9402 156.926 37.4191 157.222 37.7145L161.507 42L157.222 46.2855C156.926 46.5809 156.926 47.0598 157.222 47.3551L159.645 49.7785C159.94 50.0738 160.419 50.0738 160.715 49.7785L165 45.493L169.285 49.7785C169.581 50.0738 170.06 50.0738 170.355 49.7785L172.778 47.3551C173.074 47.0598 173.074 46.5809 172.778 46.2855L168.493 42L172.778 37.7145C173.074 37.4191 173.074 36.9402 172.778 36.6449Z" fill="#A8BFC9"/>
<path d="M185.564 47V37.256H187.762V47H185.564ZM182.47 39.034V37.116H190.856V39.034H182.47ZM196.88 47.154C196.068 47.154 195.349 46.9813 194.724 46.636C194.108 46.2907 193.623 45.8147 193.268 45.208C192.923 44.592 192.75 43.892 192.75 43.108V37.116H194.962V43.234C194.962 43.626 195.046 43.9667 195.214 44.256C195.382 44.5453 195.611 44.7693 195.9 44.928C196.199 45.0773 196.525 45.152 196.88 45.152C197.253 45.152 197.58 45.0773 197.86 44.928C198.14 44.7693 198.359 44.55 198.518 44.27C198.686 43.9807 198.77 43.64 198.77 43.248V37.116H200.982V43.122C200.982 43.906 200.809 44.6013 200.464 45.208C200.119 45.8147 199.638 46.2907 199.022 46.636C198.406 46.9813 197.692 47.154 196.88 47.154ZM205.289 42.926V41.302H207.375C207.814 41.302 208.15 41.19 208.383 40.966C208.626 40.742 208.747 40.4387 208.747 40.056C208.747 39.7013 208.631 39.4073 208.397 39.174C208.164 38.9407 207.828 38.824 207.389 38.824H205.289V37.116H207.641C208.295 37.116 208.869 37.242 209.363 37.494C209.858 37.7367 210.245 38.0773 210.525 38.516C210.805 38.9547 210.945 39.4587 210.945 40.028C210.945 40.6067 210.805 41.1153 210.525 41.554C210.245 41.9833 209.853 42.3193 209.349 42.562C208.845 42.8047 208.253 42.926 207.571 42.926H205.289ZM203.609 47V37.116H205.807V47H203.609ZM208.985 47L205.905 42.744L207.921 42.198L211.589 47H208.985ZM213.426 47V37.116H214.966L215.624 39.09V47H213.426ZM220.244 47L214.42 39.538L214.966 37.116L220.79 44.578L220.244 47ZM220.244 47L219.656 45.026V37.116H221.854V47H220.244Z" fill="#A8BFC9"/>
</g>
<g filter="url(#filter10_i_0_657)">
<rect x="312" y="24" width="40" height="40" rx="5" fill="#A8BFC9"/>
</g>
<path d="M339.326 36.3076H337.88C337.678 36.3074 337.514 36.4712 337.513 36.6735C337.513 36.6794 337.514 36.6854 337.514 36.6913L337.636 39.2176C336.2 37.5244 334.092 36.5494 331.873 36.5518C327.704 36.5518 324.305 39.9563 324.308 44.1278C324.311 48.3061 327.697 51.6922 331.873 51.6922C333.746 51.6949 335.553 50.9994 336.942 49.7414C337.093 49.6064 337.106 49.3749 336.971 49.2241C336.966 49.2191 336.962 49.2141 336.957 49.2093L335.92 48.1715C335.783 48.0352 335.565 48.0279 335.42 48.1547C333.194 50.1146 329.801 49.8975 327.843 47.6699C325.884 45.4422 326.101 42.0475 328.327 40.0876C330.553 38.1277 333.946 38.3448 335.904 40.5724C336.058 40.747 336.2 40.9314 336.33 41.1244L333.233 40.9758C333.031 40.9662 332.859 41.1222 332.849 41.3243C332.849 41.3302 332.849 41.3362 332.849 41.3421V42.7893C332.849 42.9916 333.013 43.1556 333.215 43.1556H339.326C339.528 43.1556 339.692 42.9916 339.692 42.7893V36.6739C339.692 36.4716 339.528 36.3076 339.326 36.3076Z" fill="#1F3641"/>
<defs>
<filter id="filter0_i_0_657" x="24" y="128" width="96" height="96" filterUnits="userSpaceOnUse" color-interpolation-filters="sRGB">
<feFlood flood-opacity="0" result="BackgroundImageFix"/>
<feBlend mode="normal" in="SourceGraphic" in2="BackgroundImageFix" result="shape"/>
<feColorMatrix in="SourceAlpha" type="matrix" values="0 0 0 0 0 0 0 0 0 0 0 0 0 0 0 0 0 0 127 0" result="hardAlpha"/>
<feOffset dy="-8"/>
<feComposite in2="hardAlpha" operator="arithmetic" k2="-1" k3="1"/>
<feColorMatrix type="matrix" values="0 0 0 0 0.0627451 0 0 0 0 0.129412 0 0 0 0 0.164706 0 0 0 1 0"/>
<feBlend mode="normal" in2="shape" result="effect1_innerShadow_0_657"/>
</filter>
<filter id="filter1_i_0_657" x="140" y="128" width="96" height="96" filterUnits="userSpaceOnUse" color-interpolation-filters="sRGB">
<feFlood flood-opacity="0" result="BackgroundImageFix"/>
<feBlend mode="normal" in="SourceGraphic" in2="BackgroundImageFix" result="shape"/>
<feColorMatrix in="SourceAlpha" type="matrix" values="0 0 0 0 0 0 0 0 0 0 0 0 0 0 0 0 0 0 127 0" result="hardAlpha"/>
<feOffset dy="-8"/>
<feComposite in2="hardAlpha" operator="arithmetic" k2="-1" k3="1"/>
<feColorMatrix type="matrix" values="0 0 0 0 0.0627451 0 0 0 0 0.129412 0 0 0 0 0.164706 0 0 0 1 0"/>
<feBlend mode="normal" in2="shape" result="effect1_innerShadow_0_657"/>
</filter>
<filter id="filter2_i_0_657" x="256" y="128" width="96" height="96" filterUnits="userSpaceOnUse" color-interpolation-filters="sRGB">
<feFlood flood-opacity="0" result="BackgroundImageFix"/>
<feBlend mode="normal" in="SourceGraphic" in2="BackgroundImageFix" result="shape"/>
<feColorMatrix in="SourceAlpha" type="matrix" values="0 0 0 0 0 0 0 0 0 0 0 0 0 0 0 0 0 0 127 0" result="hardAlpha"/>
<feOffset dy="-8"/>
<feComposite in2="hardAlpha" operator="arithmetic" k2="-1" k3="1"/>
<feColorMatrix type="matrix" values="0 0 0 0 0.0627451 0 0 0 0 0.129412 0 0 0 0 0.164706 0 0 0 1 0"/>
<feBlend mode="normal" in2="shape" result="effect1_innerShadow_0_657"/>
</filter>
<filter id="filter3_i_0_657" x="24" y="360" width="96" height="96" filterUnits="userSpaceOnUse" color-interpolation-filters="sRGB">
<feFlood flood-opacity="0" result="BackgroundImageFix"/>
<feBlend mode="normal" in="SourceGraphic" in2="BackgroundImageFix" result="shape"/>
<feColorMatrix in="SourceAlpha" type="matrix" values="0 0 0 0 0 0 0 0 0 0 0 0 0 0 0 0 0 0 127 0" result="hardAlpha"/>
<feOffset dy="-8"/>
<feComposite in2="hardAlpha" operator="arithmetic" k2="-1" k3="1"/>
<feColorMatrix type="matrix" values="0 0 0 0 0.0627451 0 0 0 0 0.129412 0 0 0 0 0.164706 0 0 0 1 0"/>
<feBlend mode="normal" in2="shape" result="effect1_innerShadow_0_657"/>
</filter>
<filter id="filter4_i_0_657" x="256" y="360" width="96" height="96" filterUnits="userSpaceOnUse" color-interpolation-filters="sRGB">
<feFlood flood-opacity="0" result="BackgroundImageFix"/>
<feBlend mode="normal" in="SourceGraphic" in2="BackgroundImageFix" result="shape"/>
<feColorMatrix in="SourceAlpha" type="matrix" values="0 0 0 0 0 0 0 0 0 0 0 0 0 0 0 0 0 0 127 0" result="hardAlpha"/>
<feOffset dy="-8"/>
<feComposite in2="hardAlpha" operator="arithmetic" k2="-1" k3="1"/>
<feColorMatrix type="matrix" values="0 0 0 0 0.0627451 0 0 0 0 0.129412 0 0 0 0 0.164706 0 0 0 1 0"/>
<feBlend mode="normal" in2="shape" result="effect1_innerShadow_0_657"/>
</filter>
<filter id="filter5_i_0_657" x="140" y="360" width="96" height="96" filterUnits="userSpaceOnUse" color-interpolation-filters="sRGB">
<feFlood flood-opacity="0" result="BackgroundImageFix"/>
<feBlend mode="normal" in="SourceGraphic" in2="BackgroundImageFix" result="shape"/>
<feColorMatrix in="SourceAlpha" type="matrix" values="0 0 0 0 0 0 0 0 0 0 0 0 0 0 0 0 0 0 127 0" result="hardAlpha"/>
<feOffset dy="-8"/>
<feComposite in2="hardAlpha" operator="arithmetic" k2="-1" k3="1"/>
<feColorMatrix type="matrix" values="0 0 0 0 0.0627451 0 0 0 0 0.129412 0 0 0 0 0.164706 0 0 0 1 0"/>
<feBlend mode="normal" in2="shape" result="effect1_innerShadow_0_657"/>
</filter>
<filter id="filter6_i_0_657" x="24" y="244" width="96" height="96" filterUnits="userSpaceOnUse" color-interpolation-filters="sRGB">
<feFlood flood-opacity="0" result="BackgroundImageFix"/>
<feBlend mode="normal" in="SourceGraphic" in2="BackgroundImageFix" result="shape"/>
<feColorMatrix in="SourceAlpha" type="matrix" values="0 0 0 0 0 0 0 0 0 0 0 0 0 0 0 0 0 0 127 0" result="hardAlpha"/>
<feOffset dy="-8"/>
<feComposite in2="hardAlpha" operator="arithmetic" k2="-1" k3="1"/>
<feColorMatrix type="matrix" values="0 0 0 0 0.0627451 0 0 0 0 0.129412 0 0 0 0 0.164706 0 0 0 1 0"/>
<feBlend mode="normal" in2="shape" result="effect1_innerShadow_0_657"/>
</filter>
<filter id="filter7_i_0_657" x="256" y="244" width="96" height="96" filterUnits="userSpaceOnUse" color-interpolation-filters="sRGB">
<feFlood flood-opacity="0" result="BackgroundImageFix"/>
<feBlend mode="normal" in="SourceGraphic" in2="BackgroundImageFix" result="shape"/>
<feColorMatrix in="SourceAlpha" type="matrix" values="0 0 0 0 0 0 0 0 0 0 0 0 0 0 0 0 0 0 127 0" result="hardAlpha"/>
<feOffset dy="-8"/>
<feComposite in2="hardAlpha" operator="arithmetic" k2="-1" k3="1"/>
<feColorMatrix type="matrix" values="0 0 0 0 0.0627451 0 0 0 0 0.129412 0 0 0 0 0.164706 0 0 0 1 0"/>
<feBlend mode="normal" in2="shape" result="effect1_innerShadow_0_657"/>
</filter>
<filter id="filter8_i_0_657" x="140" y="244" width="96" height="96" filterUnits="userSpaceOnUse" color-interpolation-filters="sRGB">
<feFlood flood-opacity="0" result="BackgroundImageFix"/>
<feBlend mode="normal" in="SourceGraphic" in2="BackgroundImageFix" result="shape"/>
<feColorMatrix in="SourceAlpha" type="matrix" values="0 0 0 0 0 0 0 0 0 0 0 0 0 0 0 0 0 0 127 0" result="hardAlpha"/>
<feOffset dy="-8"/>
<feComposite in2="hardAlpha" operator="arithmetic" k2="-1" k3="1"/>
<feColorMatrix type="matrix" values="0 0 0 0 0.0627451 0 0 0 0 0.129412 0 0 0 0 0.164706 0 0 0 1 0"/>
<feBlend mode="normal" in2="shape" result="effect1_innerShadow_0_657"/>
</filter>
<filter id="filter9_i_0_657" x="142" y="24" width="96" height="40" filterUnits="userSpaceOnUse" color-interpolation-filters="sRGB">
<feFlood flood-opacity="0" result="BackgroundImageFix"/>
<feBlend mode="normal" in="SourceGraphic" in2="BackgroundImageFix" result="shape"/>
<feColorMatrix in="SourceAlpha" type="matrix" values="0 0 0 0 0 0 0 0 0 0 0 0 0 0 0 0 0 0 127 0" result="hardAlpha"/>
<feOffset dy="-4"/>
<feComposite in2="hardAlpha" operator="arithmetic" k2="-1" k3="1"/>
<feColorMatrix type="matrix" values="0 0 0 0 0.0627451 0 0 0 0 0.129412 0 0 0 0 0.164706 0 0 0 1 0"/>
<feBlend mode="normal" in2="shape" result="effect1_innerShadow_0_657"/>
</filter>
<filter id="filter10_i_0_657" x="312" y="24" width="40" height="40" filterUnits="userSpaceOnUse" color-interpolation-filters="sRGB">
<feFlood flood-opacity="0" result="BackgroundImageFix"/>
<feBlend mode="normal" in="SourceGraphic" in2="BackgroundImageFix" result="shape"/>
<feColorMatrix in="SourceAlpha" type="matrix" values="0 0 0 0 0 0 0 0 0 0 0 0 0 0 0 0 0 0 127 0" result="hardAlpha"/>
<feOffset dy="-4"/>
<feComposite in2="hardAlpha" operator="arithmetic" k2="-1" k3="1"/>
<feColorMatrix type="matrix" values="0 0 0 0 0.418727 0 0 0 0 0.538482 0 0 0 0 0.590549 0 0 0 1 0"/>
<feBlend mode="normal" in2="shape" result="effect1_innerShadow_0_657"/>
</filter>
<clipPath id="clip0_0_657">
<rect width="49" height="40" fill="white" transform="translate(48 488)"/>
</clipPath>
<clipPath id="clip1_0_657">
<rect width="66" height="18" fill="white" transform="translate(157 33)"/>
</clipPath>
</defs>
</svg>
