<svg width="375" height="667" viewBox="0 0 375 667" fill="none" xmlns="http://www.w3.org/2000/svg">
<rect width="375" height="667" fill="#1A2A33"/>
<g filter="url(#filter0_i_0_559)">
<rect x="24" y="128" width="96" height="96" rx="10" fill="#1F3641"/>
</g>
<g filter="url(#filter1_i_0_559)">
<rect x="140" y="128" width="96" height="96" rx="10" fill="#1F3641"/>
</g>
<path fill-rule="evenodd" clip-rule="evenodd" d="M207.446 158.612L201.388 152.554C200.649 151.815 199.452 151.815 198.714 152.554L188 163.268L177.286 152.554C176.548 151.815 175.351 151.815 174.612 152.554L168.554 158.612C167.815 159.351 167.815 160.548 168.554 161.286L179.268 172L168.554 182.714C167.815 183.452 167.815 184.649 168.554 185.388L174.612 191.446C175.351 192.185 176.548 192.185 177.286 191.446L188 180.732L198.714 191.446C199.452 192.185 200.649 192.185 201.388 191.446L207.446 185.388C208.185 184.649 208.185 183.452 207.446 182.714L196.732 172L207.446 161.286C208.185 160.548 208.185 159.351 207.446 158.612Z" fill="#31C3BD"/>
<g filter="url(#filter2_i_0_559)">
<rect x="256" y="128" width="96" height="96" rx="10" fill="#F2B137"/>
</g>
<path fill-rule="evenodd" clip-rule="evenodd" d="M324 172C324 160.954 315.046 152 304 152C292.954 152 284 160.954 284 172C284 183.046 292.954 192 304 192C315.046 192 324 183.046 324 172ZM295.852 172C295.852 167.5 299.5 163.852 304 163.852C308.5 163.852 312.148 167.5 312.148 172C312.148 176.5 308.5 180.148 304 180.148C299.5 180.148 295.852 176.5 295.852 172Z" fill="#1F3641"/>
<g filter="url(#filter3_i_0_559)">
<rect x="24" y="360" width="96" height="96" rx="10" fill="#F2B137"/>
</g>
<path fill-rule="evenodd" clip-rule="evenodd" d="M92 404C92 392.954 83.0457 384 72 384C60.9543 384 52 392.954 52 404C52 415.046 60.9543 424 72 424C83.0457 424 92 415.046 92 404ZM63.8519 404C63.8519 399.5 67.4999 395.852 72 395.852C76.5001 395.852 80.1481 399.5 80.1481 404C80.1481 408.5 76.5001 412.148 72 412.148C67.4999 412.148 63.8519 408.5 63.8519 404Z" fill="#1F3641"/>
<g filter="url(#filter4_i_0_559)">
<rect x="256" y="360" width="96" height="96" rx="10" fill="#1F3641"/>
</g>
<path fill-rule="evenodd" clip-rule="evenodd" d="M323.446 390.612L317.388 384.554C316.649 383.815 315.452 383.815 314.714 384.554L304 395.268L293.286 384.554C292.548 383.815 291.351 383.815 290.612 384.554L284.554 390.612C283.815 391.351 283.815 392.548 284.554 393.286L295.268 404L284.554 414.714C283.815 415.452 283.815 416.649 284.554 417.388L290.612 423.446C291.351 424.185 292.548 424.185 293.286 423.446L304 412.732L314.714 423.446C315.452 424.185 316.649 424.185 317.388 423.446L323.446 417.388C324.185 416.649 324.185 415.452 323.446 414.714L312.732 404L323.446 393.286C324.185 392.548 324.185 391.351 323.446 390.612Z" fill="#31C3BD"/>
<g filter="url(#filter5_i_0_559)">
<rect x="140" y="360" width="96" height="96" rx="10" fill="#1F3641"/>
</g>
<path fill-rule="evenodd" clip-rule="evenodd" d="M208 404C208 392.954 199.046 384 188 384C176.954 384 168 392.954 168 404C168 415.046 176.954 424 188 424C199.046 424 208 415.046 208 404ZM179.852 404C179.852 399.5 183.5 395.852 188 395.852C192.5 395.852 196.148 399.5 196.148 404C196.148 408.5 192.5 412.148 188 412.148C183.5 412.148 179.852 408.5 179.852 404Z" fill="#F2B137"/>
<g filter="url(#filter6_i_0_559)">
<rect x="24" y="244" width="96" height="96" rx="10" fill="#1F3641"/>
</g>
<path fill-rule="evenodd" clip-rule="evenodd" d="M91.4462 274.612L85.3878 268.554C84.6494 267.815 83.4522 267.815 82.7137 268.554L72 279.268L61.2863 268.554C60.5478 267.815 59.3506 267.815 58.6122 268.554L52.5538 274.612C51.8154 275.351 51.8154 276.548 52.5538 277.286L63.2676 288L52.5538 298.714C51.8154 299.452 51.8154 300.649 52.5538 301.388L58.6122 307.446C59.3506 308.185 60.5478 308.185 61.2863 307.446L72 296.732L82.7137 307.446C83.4522 308.185 84.6494 308.185 85.3878 307.446L91.4462 301.388C92.1846 300.649 92.1846 299.452 91.4462 298.714L80.7324 288L91.4462 277.286C92.1846 276.548 92.1846 275.351 91.4462 274.612Z" fill="#31C3BD"/>
<g filter="url(#filter7_i_0_559)">
<rect x="256" y="244" width="96" height="96" rx="10" fill="#1F3641"/>
</g>
<path fill-rule="evenodd" clip-rule="evenodd" d="M323.446 274.612L317.388 268.554C316.649 267.815 315.452 267.815 314.714 268.554L304 279.268L293.286 268.554C292.548 267.815 291.351 267.815 290.612 268.554L284.554 274.612C283.815 275.351 283.815 276.548 284.554 277.286L295.268 288L284.554 298.714C283.815 299.452 283.815 300.649 284.554 301.388L290.612 307.446C291.351 308.185 292.548 308.185 293.286 307.446L304 296.732L314.714 307.446C315.452 308.185 316.649 308.185 317.388 307.446L323.446 301.388C324.185 300.649 324.185 299.452 323.446 298.714L312.732 288L323.446 277.286C324.185 276.548 324.185 275.351 323.446 274.612Z" fill="#31C3BD"/>
<g filter="url(#filter8_i_0_559)">
<rect x="140" y="244" width="96" height="96" rx="10" fill="#F2B137"/>
</g>
<path fill-rule="evenodd" clip-rule="evenodd" d="M208 288C208 276.954 199.046 268 188 268C176.954 268 168 276.954 168 288C168 299.046 176.954 308 188 308C199.046 308 208 299.046 208 288ZM179.852 288C179.852 283.5 183.5 279.852 188 279.852C192.5 279.852 196.148 283.5 196.148 288C196.148 292.5 192.5 296.148 188 296.148C183.5 296.148 179.852 292.5 179.852 288Z" fill="#1F3641"/>
<rect x="24" y="476" width="96" height="64" rx="10" fill="#31C3BD"/>
<g clip-path="url(#clip0_0_559)">
<path d="M51.7719 502L48.8879 497.632H48.5939L44.7159 492.2H46.6199L49.5179 496.316H49.8119L53.6479 502H51.7719ZM44.5479 502L48.2719 496.764L49.3779 497.702L46.3539 502H44.5479ZM49.9239 497.31L48.8179 496.372L51.6739 492.2H53.4799L49.9239 497.31ZM61.508 503.666C61.0134 503.227 60.584 502.691 60.22 502.056C59.8654 501.421 59.59 500.726 59.394 499.97C59.198 499.214 59.1 498.43 59.1 497.618C59.1 496.806 59.198 496.022 59.394 495.266C59.59 494.51 59.8654 493.815 60.22 493.18C60.584 492.545 61.0134 492.009 61.508 491.57L62.39 492.354C61.774 492.923 61.2934 493.661 60.948 494.566C60.612 495.462 60.444 496.479 60.444 497.618C60.444 498.747 60.612 499.765 60.948 500.67C61.2934 501.575 61.774 502.313 62.39 502.882L61.508 503.666ZM67.7286 498.08L63.9066 492.2H65.7686L68.7506 496.89H67.8826L70.8646 492.2H72.6986L68.8486 498.08H67.7286ZM67.5046 502V497.072H69.1146V502H67.5046ZM78.6452 502.14C77.9452 502.14 77.2919 502.009 76.6852 501.748C76.0786 501.487 75.5466 501.127 75.0892 500.67C74.6319 500.203 74.2726 499.667 74.0112 499.06C73.7592 498.444 73.6332 497.786 73.6332 497.086C73.6332 496.386 73.7592 495.733 74.0112 495.126C74.2726 494.519 74.6272 493.987 75.0752 493.53C75.5326 493.063 76.0599 492.704 76.6572 492.452C77.2639 492.191 77.9172 492.06 78.6172 492.06C79.3172 492.06 79.9659 492.191 80.5632 492.452C81.1699 492.704 81.7019 493.063 82.1592 493.53C82.6166 493.987 82.9712 494.524 83.2232 495.14C83.4846 495.747 83.6152 496.4 83.6152 497.1C83.6152 497.8 83.4846 498.458 83.2232 499.074C82.9712 499.681 82.6166 500.213 82.1592 500.67C81.7112 501.127 81.1839 501.487 80.5772 501.748C79.9799 502.009 79.3359 502.14 78.6452 502.14ZM78.6172 500.6C79.2799 500.6 79.8586 500.451 80.3532 500.152C80.8572 499.853 81.2492 499.443 81.5292 498.92C81.8186 498.388 81.9632 497.777 81.9632 497.086C81.9632 496.573 81.8792 496.106 81.7112 495.686C81.5526 495.257 81.3239 494.888 81.0252 494.58C80.7266 494.263 80.3719 494.02 79.9612 493.852C79.5599 493.684 79.1119 493.6 78.6172 493.6C77.9639 493.6 77.3852 493.749 76.8812 494.048C76.3866 494.337 75.9946 494.743 75.7052 495.266C75.4252 495.789 75.2852 496.395 75.2852 497.086C75.2852 497.599 75.3646 498.075 75.5232 498.514C75.6912 498.943 75.9199 499.312 76.2092 499.62C76.5079 499.928 76.8626 500.171 77.2732 500.348C77.6839 500.516 78.1319 500.6 78.6172 500.6ZM89.9075 502.14C89.1701 502.14 88.5075 501.972 87.9195 501.636C87.3315 501.3 86.8648 500.843 86.5195 500.264C86.1835 499.676 86.0155 499.013 86.0155 498.276V492.2H87.6255V498.262C87.6255 498.738 87.7235 499.153 87.9195 499.508C88.1248 499.853 88.4001 500.124 88.7455 500.32C89.0908 500.507 89.4781 500.6 89.9075 500.6C90.3461 500.6 90.7335 500.507 91.0695 500.32C91.4055 500.124 91.6715 499.853 91.8675 499.508C92.0635 499.153 92.1615 498.743 92.1615 498.276V492.2H93.7715V498.29C93.7715 499.027 93.6035 499.685 93.2675 500.264C92.9315 500.843 92.4741 501.3 91.8955 501.636C91.3168 501.972 90.6541 502.14 89.9075 502.14ZM96.8225 503.666L95.9405 502.882C96.5565 502.313 97.0325 501.575 97.3685 500.67C97.7138 499.765 97.8865 498.747 97.8865 497.618C97.8865 496.479 97.7138 495.462 97.3685 494.566C97.0325 493.661 96.5565 492.923 95.9405 492.354L96.8225 491.57C97.3172 492.009 97.7418 492.545 98.0965 493.18C98.4605 493.815 98.7405 494.51 98.9365 495.266C99.1325 496.022 99.2305 496.806 99.2305 497.618C99.2305 498.43 99.1325 499.214 98.9365 499.97C98.7405 500.726 98.4605 501.421 98.0965 502.056C97.7418 502.691 97.3172 503.227 96.8225 503.666Z" fill="#1A2A33"/>
<path d="M65.622 523V508.88H68.742V523H65.622ZM62.902 511.54V508.88H68.542V511.54H62.902ZM71.7305 518.1L76.3705 508.88H79.7905L75.0505 518.1H71.7305ZM71.7305 519.86V518.1L72.7705 517.2H83.0505V519.86H71.7305ZM78.3905 523V514.26H81.4705V523H78.3905Z" fill="#1A2A33"/>
</g>
<rect x="140" y="476" width="96" height="64" rx="10" fill="#A8BFC9"/>
<path d="M178.817 500V491.84H180.197V500H178.817ZM176.081 492.86V491.6H182.933V492.86H176.081ZM184.885 500V491.6H186.265V500H184.885ZM188.834 500V491.6H190.214V500H188.834ZM189.782 500V498.74H194.486V500H189.782ZM189.782 496.316V495.104H194.078V496.316H189.782ZM189.782 492.86V491.6H194.426V492.86H189.782ZM198.791 500.12C198.127 500.12 197.563 500 197.099 499.76C196.635 499.52 196.219 499.168 195.851 498.704L196.787 497.768C197.019 498.104 197.295 498.368 197.615 498.56C197.935 498.744 198.343 498.836 198.839 498.836C199.303 498.836 199.671 498.74 199.943 498.548C200.223 498.356 200.363 498.092 200.363 497.756C200.363 497.476 200.291 497.248 200.147 497.072C200.003 496.896 199.811 496.752 199.571 496.64C199.339 496.52 199.079 496.416 198.791 496.328C198.511 496.232 198.227 496.128 197.939 496.016C197.659 495.896 197.399 495.748 197.159 495.572C196.927 495.396 196.739 495.168 196.595 494.888C196.451 494.608 196.379 494.252 196.379 493.82C196.379 493.324 196.499 492.904 196.739 492.56C196.987 492.208 197.319 491.94 197.735 491.756C198.151 491.572 198.615 491.48 199.127 491.48C199.679 491.48 200.171 491.588 200.603 491.804C201.043 492.02 201.399 492.296 201.671 492.632L200.735 493.568C200.495 493.296 200.243 493.096 199.979 492.968C199.723 492.832 199.427 492.764 199.091 492.764C198.675 492.764 198.347 492.848 198.107 493.016C197.875 493.184 197.759 493.42 197.759 493.724C197.759 493.98 197.831 494.188 197.975 494.348C198.119 494.5 198.307 494.632 198.539 494.744C198.779 494.848 199.039 494.948 199.319 495.044C199.607 495.14 199.891 495.248 200.171 495.368C200.459 495.488 200.719 495.644 200.951 495.836C201.191 496.02 201.383 496.26 201.527 496.556C201.671 496.852 201.743 497.224 201.743 497.672C201.743 498.424 201.475 499.02 200.939 499.46C200.411 499.9 199.695 500.12 198.791 500.12Z" fill="#1A2A33"/>
<path d="M181.705 523.22C180.731 523.22 179.838 523.053 179.025 522.72C178.211 522.373 177.525 521.88 176.965 521.24L178.985 519.22C179.238 519.593 179.605 519.9 180.085 520.14C180.578 520.367 181.098 520.48 181.645 520.48C182.138 520.48 182.565 520.393 182.925 520.22C183.285 520.047 183.565 519.8 183.765 519.48C183.978 519.16 184.085 518.78 184.085 518.34C184.085 517.9 183.978 517.527 183.765 517.22C183.565 516.9 183.265 516.653 182.865 516.48C182.478 516.307 182.011 516.22 181.465 516.22C181.211 516.22 180.945 516.24 180.665 516.28C180.398 516.307 180.171 516.353 179.985 516.42L181.365 514.68C181.738 514.573 182.091 514.487 182.425 514.42C182.771 514.34 183.091 514.3 183.385 514.3C184.105 514.3 184.751 514.473 185.325 514.82C185.898 515.153 186.351 515.633 186.685 516.26C187.031 516.873 187.205 517.607 187.205 518.46C187.205 519.393 186.971 520.22 186.505 520.94C186.051 521.66 185.411 522.22 184.585 522.62C183.771 523.02 182.811 523.22 181.705 523.22ZM179.985 516.42V514.68L183.425 510.64L186.945 510.62L183.365 514.7L179.985 516.42ZM177.845 511.54V508.88H186.945V510.62L184.485 511.54H177.845ZM189.546 521.24L194.966 515.64C195.3 515.307 195.566 515 195.766 514.72C195.966 514.44 196.113 514.18 196.206 513.94C196.3 513.687 196.346 513.433 196.346 513.18C196.346 512.633 196.166 512.207 195.806 511.9C195.46 511.58 195 511.42 194.426 511.42C193.866 511.42 193.36 511.573 192.906 511.88C192.466 512.173 192.04 512.66 191.626 513.34L189.526 511.52C190.086 510.573 190.8 509.86 191.666 509.38C192.533 508.9 193.526 508.66 194.646 508.66C195.62 508.66 196.46 508.84 197.166 509.2C197.886 509.56 198.44 510.073 198.826 510.74C199.226 511.407 199.426 512.187 199.426 513.08C199.426 513.64 199.353 514.16 199.206 514.64C199.06 515.107 198.82 515.573 198.486 516.04C198.166 516.493 197.733 516.993 197.186 517.54L193.426 521.28L189.546 521.24ZM189.546 523V521.24L192.206 520.32H199.706V523H189.546Z" fill="#1A2A33"/>
<rect x="256" y="476" width="96" height="64" rx="10" fill="#F2B137"/>
<path d="M285.686 500.12C285.086 500.12 284.526 500.008 284.006 499.784C283.486 499.56 283.03 499.252 282.638 498.86C282.246 498.46 281.938 498 281.714 497.48C281.498 496.952 281.39 496.388 281.39 495.788C281.39 495.188 281.498 494.628 281.714 494.108C281.938 493.588 282.242 493.132 282.626 492.74C283.018 492.34 283.47 492.032 283.982 491.816C284.502 491.592 285.062 491.48 285.662 491.48C286.262 491.48 286.818 491.592 287.33 491.816C287.85 492.032 288.306 492.34 288.698 492.74C289.09 493.132 289.394 493.592 289.61 494.12C289.834 494.64 289.946 495.2 289.946 495.8C289.946 496.4 289.834 496.964 289.61 497.492C289.394 498.012 289.09 498.468 288.698 498.86C288.314 499.252 287.862 499.56 287.342 499.784C286.83 500.008 286.278 500.12 285.686 500.12ZM285.662 498.8C286.23 498.8 286.726 498.672 287.15 498.416C287.582 498.16 287.918 497.808 288.158 497.36C288.406 496.904 288.53 496.38 288.53 495.788C288.53 495.348 288.458 494.948 288.314 494.588C288.178 494.22 287.982 493.904 287.726 493.64C287.47 493.368 287.166 493.16 286.814 493.016C286.47 492.872 286.086 492.8 285.662 492.8C285.102 492.8 284.606 492.928 284.174 493.184C283.75 493.432 283.414 493.78 283.166 494.228C282.926 494.676 282.806 495.196 282.806 495.788C282.806 496.228 282.874 496.636 283.01 497.012C283.154 497.38 283.35 497.696 283.598 497.96C283.854 498.224 284.158 498.432 284.51 498.584C284.862 498.728 285.246 498.8 285.662 498.8ZM296.884 501.428C296.46 501.052 296.092 500.592 295.78 500.048C295.476 499.504 295.24 498.908 295.072 498.26C294.904 497.612 294.82 496.94 294.82 496.244C294.82 495.548 294.904 494.876 295.072 494.228C295.24 493.58 295.476 492.984 295.78 492.44C296.092 491.896 296.46 491.436 296.884 491.06L297.64 491.732C297.112 492.22 296.7 492.852 296.404 493.628C296.116 494.396 295.972 495.268 295.972 496.244C295.972 497.212 296.116 498.084 296.404 498.86C296.7 499.636 297.112 500.268 297.64 500.756L296.884 501.428ZM303.263 500.12C302.655 500.12 302.091 500.012 301.571 499.796C301.059 499.572 300.611 499.264 300.227 498.872C299.843 498.472 299.547 498.012 299.339 497.492C299.131 496.964 299.027 496.4 299.027 495.8C299.027 495.2 299.131 494.64 299.339 494.12C299.547 493.592 299.843 493.132 300.227 492.74C300.611 492.348 301.059 492.04 301.571 491.816C302.091 491.592 302.655 491.48 303.263 491.48C303.943 491.48 304.531 491.592 305.027 491.816C305.523 492.04 305.963 492.344 306.347 492.728L305.411 493.664C305.163 493.392 304.859 493.18 304.499 493.028C304.147 492.876 303.735 492.8 303.263 492.8C302.847 492.8 302.467 492.872 302.123 493.016C301.779 493.16 301.479 493.368 301.223 493.64C300.975 493.904 300.783 494.22 300.647 494.588C300.511 494.956 300.443 495.36 300.443 495.8C300.443 496.24 300.511 496.644 300.647 497.012C300.783 497.38 300.975 497.7 301.223 497.972C301.479 498.236 301.779 498.44 302.123 498.584C302.467 498.728 302.847 498.8 303.263 498.8C303.775 498.8 304.207 498.724 304.559 498.572C304.919 498.412 305.223 498.196 305.471 497.924L306.407 498.86C306.023 499.252 305.571 499.56 305.051 499.784C304.531 500.008 303.935 500.12 303.263 500.12ZM309.337 496.832V495.632H311.437C311.725 495.632 311.977 495.576 312.193 495.464C312.417 495.344 312.593 495.18 312.721 494.972C312.849 494.756 312.913 494.504 312.913 494.216C312.913 493.928 312.849 493.68 312.721 493.472C312.593 493.256 312.417 493.092 312.193 492.98C311.977 492.86 311.725 492.8 311.437 492.8H309.337V491.6H311.509C312.037 491.6 312.509 491.708 312.925 491.924C313.349 492.14 313.681 492.444 313.921 492.836C314.169 493.228 314.293 493.688 314.293 494.216C314.293 494.744 314.169 495.204 313.921 495.596C313.681 495.988 313.349 496.292 312.925 496.508C312.509 496.724 312.037 496.832 311.509 496.832H309.337ZM308.389 500V491.6H309.769V500H308.389ZM319.621 500.12C318.989 500.12 318.421 499.976 317.917 499.688C317.413 499.4 317.013 499.008 316.717 498.512C316.429 498.008 316.285 497.44 316.285 496.808V491.6H317.665V496.796C317.665 497.204 317.749 497.56 317.917 497.864C318.093 498.16 318.329 498.392 318.625 498.56C318.921 498.72 319.253 498.8 319.621 498.8C319.997 498.8 320.329 498.72 320.617 498.56C320.905 498.392 321.133 498.16 321.301 497.864C321.469 497.56 321.553 497.208 321.553 496.808V491.6H322.933V496.82C322.933 497.452 322.789 498.016 322.501 498.512C322.213 499.008 321.821 499.4 321.325 499.688C320.829 499.976 320.261 500.12 319.621 500.12ZM325.548 501.428L324.792 500.756C325.32 500.268 325.728 499.636 326.016 498.86C326.312 498.084 326.46 497.212 326.46 496.244C326.46 495.268 326.312 494.396 326.016 493.628C325.728 492.852 325.32 492.22 324.792 491.732L325.548 491.06C325.972 491.436 326.336 491.896 326.64 492.44C326.952 492.984 327.192 493.58 327.36 494.228C327.528 494.876 327.612 495.548 327.612 496.244C327.612 496.94 327.528 497.612 327.36 498.26C327.192 498.908 326.952 499.504 326.64 500.048C326.336 500.592 325.972 501.052 325.548 501.428Z" fill="#1A2A33"/>
<path d="M300.436 523V508.88H303.556V523H300.436ZM297.716 511.54V508.88H303.356V511.54H297.716ZM309.245 523V508.88H312.365V523H309.245ZM306.525 511.54V508.88H312.165V511.54H306.525Z" fill="#1A2A33"/>
<path fill-rule="evenodd" clip-rule="evenodd" d="M51.681 29.6344C50.5094 28.4628 48.6099 28.4628 47.4383 29.6344L40 37.0727L32.5617 29.6344C31.3901 28.4628 29.4906 28.4628 28.319 29.6344L25.6344 32.319C24.4628 33.4906 24.4628 35.3901 25.6344 36.5617L33.0727 44L25.6344 51.4383C24.4628 52.6099 24.4628 54.5094 25.6344 55.681L28.319 58.3656C29.4906 59.5372 31.3901 59.5372 32.5617 58.3656L40 50.9273L47.4383 58.3656C48.6099 59.5372 50.5094 59.5372 51.681 58.3656L54.3656 55.681C55.5372 54.5094 55.5372 52.6099 54.3656 51.4383L46.9273 44L54.3656 36.5617C55.5372 35.3901 55.5372 33.4906 54.3656 32.319L51.681 29.6344Z" fill="#31C3BD"/>
<path fill-rule="evenodd" clip-rule="evenodd" d="M95.9704 43.8706C95.9704 35.1055 88.8649 28 80.0998 28C71.3348 28 64.2292 35.1055 64.2292 43.8706C64.2292 52.6357 71.3348 59.7412 80.0998 59.7412C88.8649 59.7412 95.9704 52.6357 95.9704 43.8706ZM73.634 43.8706C73.634 40.2996 76.5289 37.4048 80.0998 37.4048C83.6708 37.4048 86.5656 40.2996 86.5656 43.8706C86.5656 47.4416 83.6708 50.3364 80.0998 50.3364C76.5289 50.3364 73.634 47.4416 73.634 43.8706Z" fill="#F2B137"/>
<g filter="url(#filter9_i_0_559)">
<rect x="142" y="24" width="96" height="40" rx="5" fill="#1F3641"/>
</g>
<path fill-rule="evenodd" clip-rule="evenodd" d="M173 42C173 37.5817 169.418 34 165 34C160.582 34 157 37.5817 157 42C157 46.4183 160.582 50 165 50C169.418 50 173 46.4183 173 42ZM161.741 42C161.741 40.2 163.2 38.7407 165 38.7407C166.8 38.7407 168.259 40.2 168.259 42C168.259 43.8 166.8 45.2593 165 45.2593C163.2 45.2593 161.741 43.8 161.741 42Z" fill="#A8BFC9"/>
<path d="M185.564 47V37.256H187.762V47H185.564ZM182.47 39.034V37.116H190.856V39.034H182.47ZM196.88 47.154C196.068 47.154 195.349 46.9813 194.724 46.636C194.108 46.2907 193.623 45.8147 193.268 45.208C192.923 44.592 192.75 43.892 192.75 43.108V37.116H194.962V43.234C194.962 43.626 195.046 43.9667 195.214 44.256C195.382 44.5453 195.611 44.7693 195.9 44.928C196.199 45.0773 196.525 45.152 196.88 45.152C197.253 45.152 197.58 45.0773 197.86 44.928C198.14 44.7693 198.359 44.55 198.518 44.27C198.686 43.9807 198.77 43.64 198.77 43.248V37.116H200.982V43.122C200.982 43.906 200.809 44.6013 200.464 45.208C200.119 45.8147 199.638 46.2907 199.022 46.636C198.406 46.9813 197.692 47.154 196.88 47.154ZM205.289 42.926V41.302H207.375C207.814 41.302 208.15 41.19 208.383 40.966C208.626 40.742 208.747 40.4387 208.747 40.056C208.747 39.7013 208.631 39.4073 208.397 39.174C208.164 38.9407 207.828 38.824 207.389 38.824H205.289V37.116H207.641C208.295 37.116 208.869 37.242 209.363 37.494C209.858 37.7367 210.245 38.0773 210.525 38.516C210.805 38.9547 210.945 39.4587 210.945 40.028C210.945 40.6067 210.805 41.1153 210.525 41.554C210.245 41.9833 209.853 42.3193 209.349 42.562C208.845 42.8047 208.253 42.926 207.571 42.926H205.289ZM203.609 47V37.116H205.807V47H203.609ZM208.985 47L205.905 42.744L207.921 42.198L211.589 47H208.985ZM213.426 47V37.116H214.966L215.624 39.09V47H213.426ZM220.244 47L214.42 39.538L214.966 37.116L220.79 44.578L220.244 47ZM220.244 47L219.656 45.026V37.116H221.854V47H220.244Z" fill="#A8BFC9"/>
<g filter="url(#filter10_i_0_559)">
<rect x="312" y="24" width="40" height="40" rx="5" fill="#A8BFC9"/>
</g>
<path d="M339.326 36.3076H337.88C337.678 36.3074 337.514 36.4712 337.513 36.6735C337.513 36.6794 337.514 36.6854 337.514 36.6913L337.636 39.2176C336.2 37.5244 334.092 36.5494 331.873 36.5518C327.704 36.5518 324.305 39.9563 324.308 44.1278C324.311 48.3061 327.697 51.6922 331.873 51.6922C333.746 51.6949 335.553 50.9994 336.942 49.7414C337.093 49.6064 337.106 49.3749 336.971 49.2241C336.966 49.2191 336.962 49.2141 336.957 49.2093L335.92 48.1715C335.783 48.0352 335.565 48.0279 335.42 48.1547C333.194 50.1146 329.801 49.8975 327.843 47.6699C325.884 45.4422 326.101 42.0475 328.327 40.0876C330.553 38.1277 333.946 38.3448 335.904 40.5724C336.058 40.747 336.2 40.9314 336.33 41.1244L333.233 40.9758C333.031 40.9662 332.859 41.1222 332.849 41.3243C332.849 41.3302 332.849 41.3362 332.849 41.3421V42.7893C332.849 42.9916 333.013 43.1556 333.215 43.1556H339.326C339.528 43.1556 339.692 42.9916 339.692 42.7893V36.6739C339.692 36.4716 339.528 36.3076 339.326 36.3076V36.3076Z" fill="#1F3641"/>
<rect opacity="0.5" width="375" height="667" fill="black"/>
<rect y="220" width="375" height="228" fill="#1F3641"/>
<path d="M121.571 274.168C120.825 274.168 120.134 274.037 119.499 273.776C118.874 273.515 118.323 273.151 117.847 272.684C117.371 272.217 117.003 271.676 116.741 271.06C116.48 270.435 116.349 269.763 116.349 269.044C116.349 268.316 116.48 267.644 116.741 267.028C117.003 266.412 117.367 265.875 117.833 265.418C118.3 264.951 118.846 264.592 119.471 264.34C120.106 264.079 120.797 263.948 121.543 263.948C122.281 263.948 122.962 264.079 123.587 264.34C124.222 264.592 124.773 264.951 125.239 265.418C125.715 265.875 126.084 266.417 126.345 267.042C126.607 267.658 126.737 268.33 126.737 269.058C126.737 269.777 126.607 270.449 126.345 271.074C126.084 271.69 125.72 272.231 125.253 272.698C124.787 273.155 124.236 273.515 123.601 273.776C122.976 274.037 122.299 274.168 121.571 274.168ZM121.543 272.166C122.131 272.166 122.645 272.035 123.083 271.774C123.531 271.513 123.877 271.149 124.119 270.682C124.362 270.206 124.483 269.66 124.483 269.044C124.483 268.577 124.413 268.157 124.273 267.784C124.133 267.401 123.933 267.075 123.671 266.804C123.41 266.524 123.097 266.314 122.733 266.174C122.379 266.025 121.982 265.95 121.543 265.95C120.955 265.95 120.437 266.081 119.989 266.342C119.551 266.594 119.21 266.953 118.967 267.42C118.725 267.877 118.603 268.419 118.603 269.044C118.603 269.511 118.673 269.935 118.813 270.318C118.953 270.701 119.149 271.032 119.401 271.312C119.663 271.583 119.975 271.793 120.339 271.942C120.703 272.091 121.105 272.166 121.543 272.166ZM129.008 274V264.116H131.206V274H129.008ZM135.126 274V264.116H137.338V274H135.126ZM130.324 269.87V267.966H135.854V269.87H130.324ZM143.65 274V264.116H145.19L145.848 266.09V274H143.65ZM150.468 274L144.644 266.538L145.19 264.116L151.014 271.578L150.468 274ZM150.468 274L149.88 272.026V264.116H152.078V274H150.468ZM159.579 274.168C158.833 274.168 158.142 274.037 157.507 273.776C156.882 273.515 156.331 273.151 155.855 272.684C155.379 272.217 155.011 271.676 154.749 271.06C154.488 270.435 154.357 269.763 154.357 269.044C154.357 268.316 154.488 267.644 154.749 267.028C155.011 266.412 155.375 265.875 155.841 265.418C156.308 264.951 156.854 264.592 157.479 264.34C158.114 264.079 158.805 263.948 159.551 263.948C160.289 263.948 160.97 264.079 161.595 264.34C162.23 264.592 162.781 264.951 163.247 265.418C163.723 265.875 164.092 266.417 164.353 267.042C164.615 267.658 164.745 268.33 164.745 269.058C164.745 269.777 164.615 270.449 164.353 271.074C164.092 271.69 163.728 272.231 163.261 272.698C162.795 273.155 162.244 273.515 161.609 273.776C160.984 274.037 160.307 274.168 159.579 274.168ZM159.551 272.166C160.139 272.166 160.653 272.035 161.091 271.774C161.539 271.513 161.885 271.149 162.127 270.682C162.37 270.206 162.491 269.66 162.491 269.044C162.491 268.577 162.421 268.157 162.281 267.784C162.141 267.401 161.941 267.075 161.679 266.804C161.418 266.524 161.105 266.314 160.741 266.174C160.387 266.025 159.99 265.95 159.551 265.95C158.963 265.95 158.445 266.081 157.997 266.342C157.559 266.594 157.218 266.953 156.975 267.42C156.733 267.877 156.611 268.419 156.611 269.044C156.611 269.511 156.681 269.935 156.821 270.318C156.961 270.701 157.157 271.032 157.409 271.312C157.671 271.583 157.983 271.793 158.347 271.942C158.711 272.091 159.113 272.166 159.551 272.166ZM166.368 275.68L167.39 273.776L168.02 273.594C167.955 273.734 167.876 273.851 167.782 273.944C167.689 274.028 167.582 274.07 167.46 274.07C167.19 274.07 166.942 273.958 166.718 273.734C166.494 273.51 166.382 273.23 166.382 272.894C166.382 272.53 166.504 272.217 166.746 271.956C166.998 271.695 167.306 271.564 167.67 271.564C168.016 271.564 168.314 271.695 168.566 271.956C168.828 272.208 168.958 272.521 168.958 272.894C168.958 273.043 168.93 273.216 168.874 273.412C168.818 273.608 168.706 273.865 168.538 274.182L167.404 276.254L166.368 275.68ZM177.587 270.318L173.779 264.116H176.327L179.253 269.128H177.615L180.541 264.116H183.033L179.197 270.318H177.587ZM177.321 274V269.31H179.519V274H177.321ZM189.015 274.168C188.268 274.168 187.577 274.037 186.943 273.776C186.317 273.515 185.767 273.151 185.291 272.684C184.815 272.217 184.446 271.676 184.185 271.06C183.923 270.435 183.793 269.763 183.793 269.044C183.793 268.316 183.923 267.644 184.185 267.028C184.446 266.412 184.81 265.875 185.277 265.418C185.743 264.951 186.289 264.592 186.915 264.34C187.549 264.079 188.24 263.948 188.987 263.948C189.724 263.948 190.405 264.079 191.031 264.34C191.665 264.592 192.216 264.951 192.683 265.418C193.159 265.875 193.527 266.417 193.789 267.042C194.05 267.658 194.181 268.33 194.181 269.058C194.181 269.777 194.05 270.449 193.789 271.074C193.527 271.69 193.163 272.231 192.697 272.698C192.23 273.155 191.679 273.515 191.045 273.776C190.419 274.037 189.743 274.168 189.015 274.168ZM188.987 272.166C189.575 272.166 190.088 272.035 190.527 271.774C190.975 271.513 191.32 271.149 191.563 270.682C191.805 270.206 191.927 269.66 191.927 269.044C191.927 268.577 191.857 268.157 191.717 267.784C191.577 267.401 191.376 267.075 191.115 266.804C190.853 266.524 190.541 266.314 190.177 266.174C189.822 266.025 189.425 265.95 188.987 265.95C188.399 265.95 187.881 266.081 187.433 266.342C186.994 266.594 186.653 266.953 186.411 267.42C186.168 267.877 186.047 268.419 186.047 269.044C186.047 269.511 186.117 269.935 186.257 270.318C186.397 270.701 186.593 271.032 186.845 271.312C187.106 271.583 187.419 271.793 187.783 271.942C188.147 272.091 188.548 272.166 188.987 272.166ZM200.427 274.154C199.615 274.154 198.896 273.981 198.271 273.636C197.655 273.291 197.17 272.815 196.815 272.208C196.47 271.592 196.297 270.892 196.297 270.108V264.116H198.509V270.234C198.509 270.626 198.593 270.967 198.761 271.256C198.929 271.545 199.158 271.769 199.447 271.928C199.746 272.077 200.072 272.152 200.427 272.152C200.8 272.152 201.127 272.077 201.407 271.928C201.687 271.769 201.906 271.55 202.065 271.27C202.233 270.981 202.317 270.64 202.317 270.248V264.116H204.529V270.122C204.529 270.906 204.356 271.601 204.011 272.208C203.666 272.815 203.185 273.291 202.569 273.636C201.953 273.981 201.239 274.154 200.427 274.154ZM210.697 274V264.116H212.895V274H210.697ZM212.391 274V272.068H217.277V274H212.391ZM223.591 274.168C222.844 274.168 222.154 274.037 221.519 273.776C220.894 273.515 220.343 273.151 219.867 272.684C219.391 272.217 219.022 271.676 218.761 271.06C218.5 270.435 218.369 269.763 218.369 269.044C218.369 268.316 218.5 267.644 218.761 267.028C219.022 266.412 219.386 265.875 219.853 265.418C220.32 264.951 220.866 264.592 221.491 264.34C222.126 264.079 222.816 263.948 223.563 263.948C224.3 263.948 224.982 264.079 225.607 264.34C226.242 264.592 226.792 264.951 227.259 265.418C227.735 265.875 228.104 266.417 228.365 267.042C228.626 267.658 228.757 268.33 228.757 269.058C228.757 269.777 228.626 270.449 228.365 271.074C228.104 271.69 227.74 272.231 227.273 272.698C226.806 273.155 226.256 273.515 225.621 273.776C224.996 274.037 224.319 274.168 223.591 274.168ZM223.563 272.166C224.151 272.166 224.664 272.035 225.103 271.774C225.551 271.513 225.896 271.149 226.139 270.682C226.382 270.206 226.503 269.66 226.503 269.044C226.503 268.577 226.433 268.157 226.293 267.784C226.153 267.401 225.952 267.075 225.691 266.804C225.43 266.524 225.117 266.314 224.753 266.174C224.398 266.025 224.002 265.95 223.563 265.95C222.975 265.95 222.457 266.081 222.009 266.342C221.57 266.594 221.23 266.953 220.987 267.42C220.744 267.877 220.623 268.419 220.623 269.044C220.623 269.511 220.693 269.935 220.833 270.318C220.973 270.701 221.169 271.032 221.421 271.312C221.682 271.583 221.995 271.793 222.359 271.942C222.723 272.091 223.124 272.166 223.563 272.166ZM233.776 274.154C232.964 274.154 232.264 274.023 231.676 273.762C231.098 273.491 230.566 273.085 230.08 272.544L231.508 271.13C231.826 271.494 232.176 271.779 232.558 271.984C232.95 272.18 233.403 272.278 233.916 272.278C234.383 272.278 234.742 272.194 234.994 272.026C235.256 271.858 235.386 271.625 235.386 271.326C235.386 271.055 235.302 270.836 235.134 270.668C234.966 270.5 234.742 270.355 234.462 270.234C234.192 270.113 233.888 269.996 233.552 269.884C233.226 269.772 232.899 269.646 232.572 269.506C232.246 269.357 231.942 269.175 231.662 268.96C231.392 268.736 231.172 268.461 231.004 268.134C230.836 267.798 230.752 267.378 230.752 266.874C230.752 266.267 230.897 265.745 231.186 265.306C231.485 264.867 231.896 264.536 232.418 264.312C232.941 264.079 233.543 263.962 234.224 263.962C234.915 263.962 235.545 264.083 236.114 264.326C236.693 264.569 237.169 264.9 237.542 265.32L236.114 266.734C235.816 266.426 235.512 266.197 235.204 266.048C234.906 265.899 234.565 265.824 234.182 265.824C233.8 265.824 233.496 265.899 233.272 266.048C233.048 266.188 232.936 266.393 232.936 266.664C232.936 266.916 233.02 267.121 233.188 267.28C233.356 267.429 233.576 267.56 233.846 267.672C234.126 267.784 234.43 267.896 234.756 268.008C235.092 268.12 235.424 268.251 235.75 268.4C236.077 268.549 236.376 268.741 236.646 268.974C236.926 269.198 237.15 269.487 237.318 269.842C237.486 270.187 237.57 270.617 237.57 271.13C237.57 272.073 237.234 272.815 236.562 273.356C235.89 273.888 234.962 274.154 233.776 274.154ZM241.898 274V264.256H244.096V274H241.898ZM238.804 266.034V264.116H247.19V266.034H238.804ZM254.221 274.154C253.857 274.154 253.553 274.028 253.311 273.776C253.068 273.524 252.947 273.221 252.947 272.866C252.947 272.493 253.068 272.185 253.311 271.942C253.553 271.69 253.857 271.564 254.221 271.564C254.594 271.564 254.897 271.69 255.131 271.942C255.373 272.185 255.495 272.493 255.495 272.866C255.495 273.221 255.373 273.524 255.131 273.776C254.897 274.028 254.594 274.154 254.221 274.154ZM258.001 274.154C257.637 274.154 257.333 274.028 257.091 273.776C256.848 273.524 256.727 273.221 256.727 272.866C256.727 272.493 256.848 272.185 257.091 271.942C257.333 271.69 257.637 271.564 258.001 271.564C258.374 271.564 258.677 271.69 258.911 271.942C259.153 272.185 259.275 272.493 259.275 272.866C259.275 273.221 259.153 273.524 258.911 273.776C258.677 274.028 258.374 274.154 258.001 274.154ZM250.441 274.154C250.077 274.154 249.773 274.028 249.531 273.776C249.288 273.524 249.167 273.221 249.167 272.866C249.167 272.493 249.288 272.185 249.531 271.942C249.773 271.69 250.077 271.564 250.441 271.564C250.814 271.564 251.117 271.69 251.351 271.942C251.593 272.185 251.715 272.493 251.715 272.866C251.715 273.221 251.593 273.524 251.351 273.776C251.117 274.028 250.814 274.154 250.441 274.154Z" fill="#A8BFC9"/>
<path fill-rule="evenodd" clip-rule="evenodd" d="M78 309C78 300.716 71.2843 294 63 294C54.7157 294 48 300.716 48 309C48 317.284 54.7157 324 63 324C71.2843 324 78 317.284 78 309ZM56.8889 309C56.8889 305.625 59.6249 302.889 63 302.889C66.3751 302.889 69.1111 305.625 69.1111 309C69.1111 312.375 66.3751 315.111 63 315.111C59.6249 315.111 56.8889 312.375 56.8889 309Z" fill="#F2B137"/>
<path d="M91.784 318V301.296H95.552V318H91.784ZM86.48 304.344V301.056H100.856V304.344H86.48ZM101.102 318L107.822 301.056H111.23L117.878 318H113.894L108.806 303.936H110.174L105.014 318H101.102ZM104.918 314.928V311.856H114.158V314.928H104.918ZM131.419 318L124.555 309.168L131.203 301.056H135.859L128.371 309.864V308.328L136.099 318H131.419ZM121.171 318V301.056H124.939V318H121.171ZM139.171 318V301.056H142.939V318H139.171ZM142.051 318V314.736H151.339V318H142.051ZM142.051 310.92V307.776H150.499V310.92H142.051ZM142.051 304.296V301.056H151.219V304.296H142.051ZM160.103 318.264C158.711 318.264 157.511 318.04 156.503 317.592C155.511 317.128 154.599 316.432 153.767 315.504L156.215 313.08C156.759 313.704 157.359 314.192 158.015 314.544C158.687 314.88 159.463 315.048 160.343 315.048C161.143 315.048 161.759 314.904 162.191 314.616C162.639 314.328 162.863 313.928 162.863 313.416C162.863 312.952 162.719 312.576 162.431 312.288C162.143 312 161.759 311.752 161.279 311.544C160.815 311.336 160.295 311.136 159.719 310.944C159.159 310.752 158.599 310.536 158.039 310.296C157.479 310.04 156.959 309.728 156.479 309.36C156.015 308.976 155.639 308.504 155.351 307.944C155.063 307.368 154.919 306.648 154.919 305.784C154.919 304.744 155.167 303.848 155.663 303.096C156.175 302.344 156.879 301.776 157.775 301.392C158.671 300.992 159.703 300.792 160.871 300.792C162.055 300.792 163.135 301 164.111 301.416C165.103 301.832 165.919 302.4 166.559 303.12L164.111 305.544C163.599 305.016 163.079 304.624 162.551 304.368C162.039 304.112 161.455 303.984 160.799 303.984C160.143 303.984 159.623 304.112 159.239 304.368C158.855 304.608 158.663 304.96 158.663 305.424C158.663 305.856 158.807 306.208 159.095 306.48C159.383 306.736 159.759 306.96 160.223 307.152C160.703 307.344 161.223 307.536 161.783 307.728C162.359 307.92 162.927 308.144 163.487 308.4C164.047 308.656 164.559 308.984 165.023 309.384C165.503 309.768 165.887 310.264 166.175 310.872C166.463 311.464 166.607 312.2 166.607 313.08C166.607 314.696 166.031 315.968 164.879 316.896C163.727 317.808 162.135 318.264 160.103 318.264ZM180.354 318V301.296H184.122V318H180.354ZM175.05 304.344V301.056H189.426V304.344H175.05ZM193.03 318V301.056H196.798V318H193.03ZM203.518 318V301.056H207.31V318H203.518ZM195.286 310.92V307.656H204.766V310.92H195.286ZM212.062 318V301.056H215.83V318H212.062ZM214.942 318V314.736H224.23V318H214.942ZM214.942 310.92V307.776H223.39V310.92H214.942ZM214.942 304.296V301.056H224.11V304.296H214.942ZM237.278 311.016V308.232H240.854C241.606 308.232 242.182 308.04 242.582 307.656C242.998 307.272 243.206 306.752 243.206 306.096C243.206 305.488 243.006 304.984 242.606 304.584C242.206 304.184 241.63 303.984 240.878 303.984H237.278V301.056H241.31C242.43 301.056 243.414 301.272 244.262 301.704C245.11 302.12 245.774 302.704 246.254 303.456C246.734 304.208 246.974 305.072 246.974 306.048C246.974 307.04 246.734 307.912 246.254 308.664C245.774 309.4 245.102 309.976 244.238 310.392C243.374 310.808 242.358 311.016 241.19 311.016H237.278ZM234.398 318V301.056H238.166V318H234.398ZM243.614 318L238.334 310.704L241.79 309.768L248.078 318H243.614ZM259.243 318.288C257.963 318.288 256.779 318.064 255.691 317.616C254.619 317.168 253.675 316.544 252.859 315.744C252.043 314.944 251.411 314.016 250.963 312.96C250.515 311.888 250.291 310.736 250.291 309.504C250.291 308.256 250.515 307.104 250.963 306.048C251.411 304.992 252.035 304.072 252.835 303.288C253.635 302.488 254.571 301.872 255.643 301.44C256.731 300.992 257.915 300.768 259.195 300.768C260.459 300.768 261.627 300.992 262.699 301.44C263.787 301.872 264.731 302.488 265.531 303.288C266.347 304.072 266.979 305 267.427 306.072C267.875 307.128 268.099 308.28 268.099 309.528C268.099 310.76 267.875 311.912 267.427 312.984C266.979 314.04 266.355 314.968 265.555 315.768C264.755 316.552 263.811 317.168 262.723 317.616C261.651 318.064 260.491 318.288 259.243 318.288ZM259.195 314.856C260.203 314.856 261.083 314.632 261.835 314.184C262.603 313.736 263.195 313.112 263.611 312.312C264.027 311.496 264.235 310.56 264.235 309.504C264.235 308.704 264.115 307.984 263.875 307.344C263.635 306.688 263.291 306.128 262.843 305.664C262.395 305.184 261.859 304.824 261.235 304.584C260.627 304.328 259.947 304.2 259.195 304.2C258.187 304.2 257.299 304.424 256.531 304.872C255.779 305.304 255.195 305.92 254.779 306.72C254.363 307.504 254.155 308.432 254.155 309.504C254.155 310.304 254.275 311.032 254.515 311.688C254.755 312.344 255.091 312.912 255.523 313.392C255.971 313.856 256.507 314.216 257.131 314.472C257.755 314.728 258.443 314.856 259.195 314.856ZM278.807 318.264C277.415 318.264 276.183 317.968 275.111 317.376C274.055 316.784 273.223 315.968 272.615 314.928C272.023 313.872 271.727 312.672 271.727 311.328V301.056H275.519V311.544C275.519 312.216 275.663 312.8 275.951 313.296C276.239 313.792 276.631 314.176 277.127 314.448C277.639 314.704 278.199 314.832 278.807 314.832C279.447 314.832 280.007 314.704 280.487 314.448C280.967 314.176 281.343 313.8 281.615 313.32C281.903 312.824 282.047 312.24 282.047 311.568V301.056H285.839V311.352C285.839 312.696 285.543 313.888 284.951 314.928C284.359 315.968 283.535 316.784 282.479 317.376C281.423 317.968 280.199 318.264 278.807 318.264ZM290.343 318V301.056H292.983L294.111 304.44V318H290.343ZM302.031 318L292.047 305.208L292.983 301.056L302.967 313.848L302.031 318ZM302.031 318L301.023 314.616V301.056H304.791V318H302.031ZM312.106 318V314.688H316.306C317.33 314.688 318.226 314.488 318.994 314.088C319.762 313.672 320.354 313.072 320.77 312.288C321.186 311.504 321.394 310.576 321.394 309.504C321.394 308.432 321.178 307.512 320.746 306.744C320.33 305.976 319.738 305.384 318.97 304.968C318.218 304.552 317.33 304.344 316.306 304.344H311.986V301.056H316.354C317.634 301.056 318.81 301.264 319.882 301.68C320.97 302.08 321.914 302.664 322.714 303.432C323.53 304.184 324.154 305.08 324.586 306.12C325.034 307.144 325.258 308.28 325.258 309.528C325.258 310.76 325.034 311.896 324.586 312.936C324.154 313.976 323.538 314.872 322.738 315.624C321.938 316.376 320.994 316.96 319.906 317.376C318.834 317.792 317.666 318 316.402 318H312.106ZM309.562 318V301.056H313.33V318H309.562Z" fill="#F2B137"/>
<g filter="url(#filter11_i_0_559)">
<rect x="69" y="348" width="76" height="52" rx="10" fill="#A8BFC9"/>
</g>
<path d="M92.855 379.192C92.0123 379.192 91.2283 379.043 90.503 378.744C89.7777 378.445 89.143 378.029 88.599 377.496C88.0657 376.963 87.6443 376.344 87.335 375.64C87.0363 374.925 86.887 374.157 86.887 373.336C86.887 372.504 87.0363 371.736 87.335 371.032C87.6337 370.328 88.0497 369.715 88.583 369.192C89.127 368.659 89.7563 368.248 90.471 367.96C91.1963 367.661 91.9803 367.512 92.823 367.512C93.6763 367.512 94.4603 367.661 95.175 367.96C95.9003 368.248 96.5297 368.659 97.063 369.192C97.607 369.715 98.0283 370.333 98.327 371.048C98.6257 371.752 98.775 372.52 98.775 373.352C98.775 374.173 98.6257 374.941 98.327 375.656C98.0283 376.36 97.607 376.979 97.063 377.512C96.5297 378.035 95.9057 378.445 95.191 378.744C94.4763 379.043 93.6977 379.192 92.855 379.192ZM92.823 376.904C93.5057 376.904 94.0977 376.755 94.599 376.456C95.1003 376.157 95.4897 375.741 95.767 375.208C96.055 374.664 96.199 374.04 96.199 373.336C96.199 372.803 96.119 372.323 95.959 371.896C95.799 371.459 95.5697 371.085 95.271 370.776C94.9723 370.456 94.615 370.216 94.199 370.056C93.7937 369.885 93.335 369.8 92.823 369.8C92.151 369.8 91.5643 369.949 91.063 370.248C90.5617 370.536 90.167 370.947 89.879 371.48C89.6017 372.003 89.463 372.621 89.463 373.336C89.463 373.869 89.543 374.355 89.703 374.792C89.863 375.229 90.0923 375.608 90.391 375.928C90.6897 376.237 91.0417 376.477 91.447 376.648C91.863 376.819 92.3217 376.904 92.823 376.904ZM97.895 379.896L92.615 374.616L94.071 373.16L99.351 378.44L97.895 379.896ZM106.116 379.176C105.188 379.176 104.367 378.979 103.652 378.584C102.948 378.189 102.394 377.645 101.988 376.952C101.594 376.248 101.396 375.448 101.396 374.552V367.704H103.924V374.696C103.924 375.144 104.02 375.533 104.212 375.864C104.404 376.195 104.666 376.451 104.996 376.632C105.338 376.803 105.711 376.888 106.116 376.888C106.543 376.888 106.916 376.803 107.236 376.632C107.556 376.451 107.807 376.2 107.988 375.88C108.18 375.549 108.276 375.16 108.276 374.712V367.704H110.804V374.568C110.804 375.464 110.607 376.259 110.212 376.952C109.818 377.645 109.268 378.189 108.564 378.584C107.86 378.979 107.044 379.176 106.116 379.176ZM113.807 379V367.704H116.319V379H113.807ZM122.262 379V367.864H124.774V379H122.262ZM118.726 369.896V367.704H128.31V369.896H118.726Z" fill="#1A2A33"/>
<g filter="url(#filter12_i_0_559)">
<rect x="161" y="348" width="146" height="52" rx="10" fill="#F2B137"/>
</g>
<path d="M179.276 379V367.704H181.036L181.788 369.96V379H179.276ZM187.068 379L180.412 370.472L181.036 367.704L187.692 376.232L187.068 379ZM187.068 379L186.396 376.744V367.704H188.908V379H187.068ZM192.088 379V367.704H194.6V379H192.088ZM194.008 379V376.824H200.2V379H194.008ZM194.008 374.28V372.184H199.64V374.28H194.008ZM194.008 369.864V367.704H200.12V369.864H194.008ZM210.1 379L206.948 373.96H206.644L202.292 367.704H205.284L208.388 372.44H208.692L213.044 379H210.1ZM202.084 379L206.26 372.952L208.196 374.04L204.948 379H202.084ZM208.788 373.672L206.852 372.584L209.988 367.704H212.852L208.788 373.672ZM217.481 379V367.864H219.993V379H217.481ZM213.945 369.896V367.704H223.529V369.896H213.945ZM231.649 374.344V372.488H234.033C234.534 372.488 234.918 372.36 235.185 372.104C235.462 371.848 235.601 371.501 235.601 371.064C235.601 370.659 235.467 370.323 235.201 370.056C234.934 369.789 234.55 369.656 234.049 369.656H231.649V367.704H234.337C235.083 367.704 235.739 367.848 236.305 368.136C236.87 368.413 237.313 368.803 237.633 369.304C237.953 369.805 238.113 370.381 238.113 371.032C238.113 371.693 237.953 372.275 237.633 372.776C237.313 373.267 236.865 373.651 236.289 373.928C235.713 374.205 235.035 374.344 234.257 374.344H231.649ZM229.729 379V367.704H232.241V379H229.729ZM235.873 379L232.353 374.136L234.657 373.512L238.849 379H235.873ZM246.293 379.192C245.439 379.192 244.65 379.043 243.924 378.744C243.21 378.445 242.581 378.029 242.037 377.496C241.493 376.963 241.071 376.344 240.773 375.64C240.474 374.925 240.325 374.157 240.325 373.336C240.325 372.504 240.474 371.736 240.773 371.032C241.071 370.328 241.487 369.715 242.021 369.192C242.554 368.659 243.178 368.248 243.893 367.96C244.618 367.661 245.407 367.512 246.261 367.512C247.103 367.512 247.882 367.661 248.597 367.96C249.322 368.248 249.951 368.659 250.485 369.192C251.029 369.715 251.45 370.333 251.749 371.048C252.047 371.752 252.197 372.52 252.197 373.352C252.197 374.173 252.047 374.941 251.749 375.656C251.45 376.36 251.034 376.979 250.501 377.512C249.967 378.035 249.338 378.445 248.613 378.744C247.898 379.043 247.125 379.192 246.293 379.192ZM246.261 376.904C246.933 376.904 247.519 376.755 248.021 376.456C248.533 376.157 248.927 375.741 249.205 375.208C249.482 374.664 249.621 374.04 249.621 373.336C249.621 372.803 249.541 372.323 249.381 371.896C249.221 371.459 248.991 371.085 248.693 370.776C248.394 370.456 248.037 370.216 247.621 370.056C247.215 369.885 246.762 369.8 246.261 369.8C245.589 369.8 244.997 369.949 244.485 370.248C243.983 370.536 243.594 370.947 243.317 371.48C243.039 372.003 242.901 372.621 242.901 373.336C242.901 373.869 242.981 374.355 243.141 374.792C243.301 375.229 243.525 375.608 243.812 375.928C244.111 376.237 244.469 376.477 244.885 376.648C245.301 376.819 245.759 376.904 246.261 376.904ZM259.335 379.176C258.407 379.176 257.586 378.979 256.871 378.584C256.167 378.189 255.612 377.645 255.207 376.952C254.812 376.248 254.615 375.448 254.615 374.552V367.704H257.143V374.696C257.143 375.144 257.239 375.533 257.431 375.864C257.623 376.195 257.884 376.451 258.215 376.632C258.556 376.803 258.93 376.888 259.335 376.888C259.762 376.888 260.135 376.803 260.455 376.632C260.775 376.451 261.026 376.2 261.207 375.88C261.399 375.549 261.495 375.16 261.495 374.712V367.704H264.023V374.568C264.023 375.464 263.826 376.259 263.431 376.952C263.036 377.645 262.487 378.189 261.783 378.584C261.079 378.979 260.263 379.176 259.335 379.176ZM267.026 379V367.704H268.786L269.538 369.96V379H267.026ZM274.818 379L268.162 370.472L268.786 367.704L275.442 376.232L274.818 379ZM274.818 379L274.146 376.744V367.704H276.658V379H274.818ZM281.534 379V376.792H284.334C285.017 376.792 285.614 376.659 286.126 376.392C286.638 376.115 287.033 375.715 287.31 375.192C287.587 374.669 287.726 374.051 287.726 373.336C287.726 372.621 287.582 372.008 287.294 371.496C287.017 370.984 286.622 370.589 286.11 370.312C285.609 370.035 285.017 369.896 284.334 369.896H281.454V367.704H284.366C285.219 367.704 286.003 367.843 286.718 368.12C287.443 368.387 288.073 368.776 288.606 369.288C289.15 369.789 289.566 370.387 289.854 371.08C290.153 371.763 290.302 372.52 290.302 373.352C290.302 374.173 290.153 374.931 289.854 375.624C289.566 376.317 289.155 376.915 288.622 377.416C288.089 377.917 287.459 378.307 286.734 378.584C286.019 378.861 285.241 379 284.398 379H281.534ZM279.838 379V367.704H282.35V379H279.838Z" fill="#1A2A33"/>
<defs>
<filter id="filter0_i_0_559" x="24" y="128" width="96" height="96" filterUnits="userSpaceOnUse" color-interpolation-filters="sRGB">
<feFlood flood-opacity="0" result="BackgroundImageFix"/>
<feBlend mode="normal" in="SourceGraphic" in2="BackgroundImageFix" result="shape"/>
<feColorMatrix in="SourceAlpha" type="matrix" values="0 0 0 0 0 0 0 0 0 0 0 0 0 0 0 0 0 0 127 0" result="hardAlpha"/>
<feOffset dy="-8"/>
<feComposite in2="hardAlpha" operator="arithmetic" k2="-1" k3="1"/>
<feColorMatrix type="matrix" values="0 0 0 0 0.0627451 0 0 0 0 0.129412 0 0 0 0 0.164706 0 0 0 1 0"/>
<feBlend mode="normal" in2="shape" result="effect1_innerShadow_0_559"/>
</filter>
<filter id="filter1_i_0_559" x="140" y="128" width="96" height="96" filterUnits="userSpaceOnUse" color-interpolation-filters="sRGB">
<feFlood flood-opacity="0" result="BackgroundImageFix"/>
<feBlend mode="normal" in="SourceGraphic" in2="BackgroundImageFix" result="shape"/>
<feColorMatrix in="SourceAlpha" type="matrix" values="0 0 0 0 0 0 0 0 0 0 0 0 0 0 0 0 0 0 127 0" result="hardAlpha"/>
<feOffset dy="-8"/>
<feComposite in2="hardAlpha" operator="arithmetic" k2="-1" k3="1"/>
<feColorMatrix type="matrix" values="0 0 0 0 0.0627451 0 0 0 0 0.129412 0 0 0 0 0.164706 0 0 0 1 0"/>
<feBlend mode="normal" in2="shape" result="effect1_innerShadow_0_559"/>
</filter>
<filter id="filter2_i_0_559" x="256" y="128" width="96" height="96" filterUnits="userSpaceOnUse" color-interpolation-filters="sRGB">
<feFlood flood-opacity="0" result="BackgroundImageFix"/>
<feBlend mode="normal" in="SourceGraphic" in2="BackgroundImageFix" result="shape"/>
<feColorMatrix in="SourceAlpha" type="matrix" values="0 0 0 0 0 0 0 0 0 0 0 0 0 0 0 0 0 0 127 0" result="hardAlpha"/>
<feOffset dy="-8"/>
<feComposite in2="hardAlpha" operator="arithmetic" k2="-1" k3="1"/>
<feColorMatrix type="matrix" values="0 0 0 0 0.8 0 0 0 0 0.545098 0 0 0 0 0.0745098 0 0 0 1 0"/>
<feBlend mode="normal" in2="shape" result="effect1_innerShadow_0_559"/>
</filter>
<filter id="filter3_i_0_559" x="24" y="360" width="96" height="96" filterUnits="userSpaceOnUse" color-interpolation-filters="sRGB">
<feFlood flood-opacity="0" result="BackgroundImageFix"/>
<feBlend mode="normal" in="SourceGraphic" in2="BackgroundImageFix" result="shape"/>
<feColorMatrix in="SourceAlpha" type="matrix" values="0 0 0 0 0 0 0 0 0 0 0 0 0 0 0 0 0 0 127 0" result="hardAlpha"/>
<feOffset dy="-8"/>
<feComposite in2="hardAlpha" operator="arithmetic" k2="-1" k3="1"/>
<feColorMatrix type="matrix" values="0 0 0 0 0.8 0 0 0 0 0.545098 0 0 0 0 0.0745098 0 0 0 1 0"/>
<feBlend mode="normal" in2="shape" result="effect1_innerShadow_0_559"/>
</filter>
<filter id="filter4_i_0_559" x="256" y="360" width="96" height="96" filterUnits="userSpaceOnUse" color-interpolation-filters="sRGB">
<feFlood flood-opacity="0" result="BackgroundImageFix"/>
<feBlend mode="normal" in="SourceGraphic" in2="BackgroundImageFix" result="shape"/>
<feColorMatrix in="SourceAlpha" type="matrix" values="0 0 0 0 0 0 0 0 0 0 0 0 0 0 0 0 0 0 127 0" result="hardAlpha"/>
<feOffset dy="-8"/>
<feComposite in2="hardAlpha" operator="arithmetic" k2="-1" k3="1"/>
<feColorMatrix type="matrix" values="0 0 0 0 0.0627451 0 0 0 0 0.129412 0 0 0 0 0.164706 0 0 0 1 0"/>
<feBlend mode="normal" in2="shape" result="effect1_innerShadow_0_559"/>
</filter>
<filter id="filter5_i_0_559" x="140" y="360" width="96" height="96" filterUnits="userSpaceOnUse" color-interpolation-filters="sRGB">
<feFlood flood-opacity="0" result="BackgroundImageFix"/>
<feBlend mode="normal" in="SourceGraphic" in2="BackgroundImageFix" result="shape"/>
<feColorMatrix in="SourceAlpha" type="matrix" values="0 0 0 0 0 0 0 0 0 0 0 0 0 0 0 0 0 0 127 0" result="hardAlpha"/>
<feOffset dy="-8"/>
<feComposite in2="hardAlpha" operator="arithmetic" k2="-1" k3="1"/>
<feColorMatrix type="matrix" values="0 0 0 0 0.0627451 0 0 0 0 0.129412 0 0 0 0 0.164706 0 0 0 1 0"/>
<feBlend mode="normal" in2="shape" result="effect1_innerShadow_0_559"/>
</filter>
<filter id="filter6_i_0_559" x="24" y="244" width="96" height="96" filterUnits="userSpaceOnUse" color-interpolation-filters="sRGB">
<feFlood flood-opacity="0" result="BackgroundImageFix"/>
<feBlend mode="normal" in="SourceGraphic" in2="BackgroundImageFix" result="shape"/>
<feColorMatrix in="SourceAlpha" type="matrix" values="0 0 0 0 0 0 0 0 0 0 0 0 0 0 0 0 0 0 127 0" result="hardAlpha"/>
<feOffset dy="-8"/>
<feComposite in2="hardAlpha" operator="arithmetic" k2="-1" k3="1"/>
<feColorMatrix type="matrix" values="0 0 0 0 0.0627451 0 0 0 0 0.129412 0 0 0 0 0.164706 0 0 0 1 0"/>
<feBlend mode="normal" in2="shape" result="effect1_innerShadow_0_559"/>
</filter>
<filter id="filter7_i_0_559" x="256" y="244" width="96" height="96" filterUnits="userSpaceOnUse" color-interpolation-filters="sRGB">
<feFlood flood-opacity="0" result="BackgroundImageFix"/>
<feBlend mode="normal" in="SourceGraphic" in2="BackgroundImageFix" result="shape"/>
<feColorMatrix in="SourceAlpha" type="matrix" values="0 0 0 0 0 0 0 0 0 0 0 0 0 0 0 0 0 0 127 0" result="hardAlpha"/>
<feOffset dy="-8"/>
<feComposite in2="hardAlpha" operator="arithmetic" k2="-1" k3="1"/>
<feColorMatrix type="matrix" values="0 0 0 0 0.0627451 0 0 0 0 0.129412 0 0 0 0 0.164706 0 0 0 1 0"/>
<feBlend mode="normal" in2="shape" result="effect1_innerShadow_0_559"/>
</filter>
<filter id="filter8_i_0_559" x="140" y="244" width="96" height="96" filterUnits="userSpaceOnUse" color-interpolation-filters="sRGB">
<feFlood flood-opacity="0" result="BackgroundImageFix"/>
<feBlend mode="normal" in="SourceGraphic" in2="BackgroundImageFix" result="shape"/>
<feColorMatrix in="SourceAlpha" type="matrix" values="0 0 0 0 0 0 0 0 0 0 0 0 0 0 0 0 0 0 127 0" result="hardAlpha"/>
<feOffset dy="-8"/>
<feComposite in2="hardAlpha" operator="arithmetic" k2="-1" k3="1"/>
<feColorMatrix type="matrix" values="0 0 0 0 0.8 0 0 0 0 0.545098 0 0 0 0 0.0745098 0 0 0 1 0"/>
<feBlend mode="normal" in2="shape" result="effect1_innerShadow_0_559"/>
</filter>
<filter id="filter9_i_0_559" x="142" y="24" width="96" height="40" filterUnits="userSpaceOnUse" color-interpolation-filters="sRGB">
<feFlood flood-opacity="0" result="BackgroundImageFix"/>
<feBlend mode="normal" in="SourceGraphic" in2="BackgroundImageFix" result="shape"/>
<feColorMatrix in="SourceAlpha" type="matrix" values="0 0 0 0 0 0 0 0 0 0 0 0 0 0 0 0 0 0 127 0" result="hardAlpha"/>
<feOffset dy="-4"/>
<feComposite in2="hardAlpha" operator="arithmetic" k2="-1" k3="1"/>
<feColorMatrix type="matrix" values="0 0 0 0 0.0627451 0 0 0 0 0.129412 0 0 0 0 0.164706 0 0 0 1 0"/>
<feBlend mode="normal" in2="shape" result="effect1_innerShadow_0_559"/>
</filter>
<filter id="filter10_i_0_559" x="312" y="24" width="40" height="40" filterUnits="userSpaceOnUse" color-interpolation-filters="sRGB">
<feFlood flood-opacity="0" result="BackgroundImageFix"/>
<feBlend mode="normal" in="SourceGraphic" in2="BackgroundImageFix" result="shape"/>
<feColorMatrix in="SourceAlpha" type="matrix" values="0 0 0 0 0 0 0 0 0 0 0 0 0 0 0 0 0 0 127 0" result="hardAlpha"/>
<feOffset dy="-4"/>
<feComposite in2="hardAlpha" operator="arithmetic" k2="-1" k3="1"/>
<feColorMatrix type="matrix" values="0 0 0 0 0.418727 0 0 0 0 0.538482 0 0 0 0 0.590549 0 0 0 1 0"/>
<feBlend mode="normal" in2="shape" result="effect1_innerShadow_0_559"/>
</filter>
<filter id="filter11_i_0_559" x="69" y="348" width="76" height="52" filterUnits="userSpaceOnUse" color-interpolation-filters="sRGB">
<feFlood flood-opacity="0" result="BackgroundImageFix"/>
<feBlend mode="normal" in="SourceGraphic" in2="BackgroundImageFix" result="shape"/>
<feColorMatrix in="SourceAlpha" type="matrix" values="0 0 0 0 0 0 0 0 0 0 0 0 0 0 0 0 0 0 127 0" result="hardAlpha"/>
<feOffset dy="-4"/>
<feComposite in2="hardAlpha" operator="arithmetic" k2="-1" k3="1"/>
<feColorMatrix type="matrix" values="0 0 0 0 0.418727 0 0 0 0 0.538482 0 0 0 0 0.590549 0 0 0 1 0"/>
<feBlend mode="normal" in2="shape" result="effect1_innerShadow_0_559"/>
</filter>
<filter id="filter12_i_0_559" x="161" y="348" width="146" height="52" filterUnits="userSpaceOnUse" color-interpolation-filters="sRGB">
<feFlood flood-opacity="0" result="BackgroundImageFix"/>
<feBlend mode="normal" in="SourceGraphic" in2="BackgroundImageFix" result="shape"/>
<feColorMatrix in="SourceAlpha" type="matrix" values="0 0 0 0 0 0 0 0 0 0 0 0 0 0 0 0 0 0 127 0" result="hardAlpha"/>
<feOffset dy="-4"/>
<feComposite in2="hardAlpha" operator="arithmetic" k2="-1" k3="1"/>
<feColorMatrix type="matrix" values="0 0 0 0 0.79836 0 0 0 0 0.546708 0 0 0 0 0.0743756 0 0 0 1 0"/>
<feBlend mode="normal" in2="shape" result="effect1_innerShadow_0_559"/>
</filter>
<clipPath id="clip0_0_559">
<rect width="49" height="40" fill="white" transform="translate(48 488)"/>
</clipPath>
</defs>
</svg>
