<svg width="375" height="667" viewBox="0 0 375 667" fill="none" xmlns="http://www.w3.org/2000/svg">
<rect width="375" height="667" fill="#1A2A33"/>
<g filter="url(#filter0_i_0_368)">
<rect x="24" y="128" width="96" height="96" rx="10" fill="#1F3641"/>
</g>
<g filter="url(#filter1_i_0_368)">
<rect x="140" y="128" width="96" height="96" rx="10" fill="#1F3641"/>
</g>
<path fill-rule="evenodd" clip-rule="evenodd" d="M207.446 158.612L201.388 152.554C200.649 151.815 199.452 151.815 198.714 152.554L188 163.268L177.286 152.554C176.548 151.815 175.351 151.815 174.612 152.554L168.554 158.612C167.815 159.351 167.815 160.548 168.554 161.286L179.268 172L168.554 182.714C167.815 183.452 167.815 184.649 168.554 185.388L174.612 191.446C175.351 192.185 176.548 192.185 177.286 191.446L188 180.732L198.714 191.446C199.452 192.185 200.649 192.185 201.388 191.446L207.446 185.388C208.185 184.649 208.185 183.452 207.446 182.714L196.732 172L207.446 161.286C208.185 160.548 208.185 159.351 207.446 158.612Z" fill="#31C3BD"/>
<g filter="url(#filter2_i_0_368)">
<rect x="256" y="128" width="96" height="96" rx="10" fill="#1F3641"/>
</g>
<path fill-rule="evenodd" clip-rule="evenodd" d="M324 172C324 160.954 315.046 152 304 152C292.954 152 284 160.954 284 172C284 183.046 292.954 192 304 192C315.046 192 324 183.046 324 172ZM295.852 172C295.852 167.5 299.5 163.852 304 163.852C308.5 163.852 312.148 167.5 312.148 172C312.148 176.5 308.5 180.148 304 180.148C299.5 180.148 295.852 176.5 295.852 172Z" fill="#F2B137"/>
<g filter="url(#filter3_i_0_368)">
<rect x="24" y="360" width="96" height="96" rx="10" fill="#1F3641"/>
</g>
<g filter="url(#filter4_i_0_368)">
<rect x="256" y="360" width="96" height="96" rx="10" fill="#1F3641"/>
</g>
<path fill-rule="evenodd" clip-rule="evenodd" d="M323.446 390.612L317.388 384.554C316.649 383.815 315.452 383.815 314.714 384.554L304 395.268L293.286 384.554C292.548 383.815 291.351 383.815 290.612 384.554L284.554 390.612C283.815 391.351 283.815 392.548 284.554 393.286L295.268 404L284.554 414.714C283.815 415.452 283.815 416.649 284.554 417.388L290.612 423.446C291.351 424.185 292.548 424.185 293.286 423.446L304 412.732L314.714 423.446C315.452 424.185 316.649 424.185 317.388 423.446L323.446 417.388C324.185 416.649 324.185 415.452 323.446 414.714L312.732 404L323.446 393.286C324.185 392.548 324.185 391.351 323.446 390.612Z" fill="#31C3BD"/>
<g filter="url(#filter5_i_0_368)">
<rect x="140" y="360" width="96" height="96" rx="10" fill="#1F3641"/>
</g>
<path fill-rule="evenodd" clip-rule="evenodd" d="M208 404C208 392.954 199.046 384 188 384C176.954 384 168 392.954 168 404C168 415.046 176.954 424 188 424C199.046 424 208 415.046 208 404ZM179.852 404C179.852 399.5 183.5 395.852 188 395.852C192.5 395.852 196.148 399.5 196.148 404C196.148 408.5 192.5 412.148 188 412.148C183.5 412.148 179.852 408.5 179.852 404Z" fill="#F2B137"/>
<g filter="url(#filter6_i_0_368)">
<rect x="24" y="244" width="96" height="96" rx="10" fill="#1F3641"/>
</g>
<path fill-rule="evenodd" clip-rule="evenodd" d="M91.4462 274.612L85.3878 268.554C84.6494 267.815 83.4522 267.815 82.7137 268.554L72 279.268L61.2863 268.554C60.5478 267.815 59.3506 267.815 58.6122 268.554L52.5538 274.612C51.8154 275.351 51.8154 276.548 52.5538 277.286L63.2676 288L52.5538 298.714C51.8154 299.452 51.8154 300.649 52.5538 301.388L58.6122 307.446C59.3506 308.185 60.5478 308.185 61.2863 307.446L72 296.732L82.7137 307.446C83.4522 308.185 84.6494 308.185 85.3878 307.446L91.4462 301.388C92.1846 300.649 92.1846 299.452 91.4462 298.714L80.7324 288L91.4462 277.286C92.1846 276.548 92.1846 275.351 91.4462 274.612Z" fill="#31C3BD"/>
<g filter="url(#filter7_i_0_368)">
<rect x="256" y="244" width="96" height="96" rx="10" fill="#1F3641"/>
</g>
<path fill-rule="evenodd" clip-rule="evenodd" d="M323.446 274.612L317.388 268.554C316.649 267.815 315.452 267.815 314.714 268.554L304 279.268L293.286 268.554C292.548 267.815 291.351 267.815 290.612 268.554L284.554 274.612C283.815 275.351 283.815 276.548 284.554 277.286L295.268 288L284.554 298.714C283.815 299.452 283.815 300.649 284.554 301.388L290.612 307.446C291.351 308.185 292.548 308.185 293.286 307.446L304 296.732L314.714 307.446C315.452 308.185 316.649 308.185 317.388 307.446L323.446 301.388C324.185 300.649 324.185 299.452 323.446 298.714L312.732 288L323.446 277.286C324.185 276.548 324.185 275.351 323.446 274.612Z" fill="#31C3BD"/>
<g filter="url(#filter8_i_0_368)">
<rect x="140" y="244" width="96" height="96" rx="10" fill="#1F3641"/>
</g>
<path fill-rule="evenodd" clip-rule="evenodd" d="M208 288C208 276.954 199.046 268 188 268C176.954 268 168 276.954 168 288C168 299.046 176.954 308 188 308C199.046 308 208 299.046 208 288ZM179.852 288C179.852 283.5 183.5 279.852 188 279.852C192.5 279.852 196.148 283.5 196.148 288C196.148 292.5 192.5 296.148 188 296.148C183.5 296.148 179.852 292.5 179.852 288Z" fill="#F2B137"/>
<rect x="24" y="476" width="96" height="64" rx="10" fill="#31C3BD"/>
<g clip-path="url(#clip0_0_368)">
<path d="M51.7719 502L48.8879 497.632H48.5939L44.7159 492.2H46.6199L49.5179 496.316H49.8119L53.6479 502H51.7719ZM44.5479 502L48.2719 496.764L49.3779 497.702L46.3539 502H44.5479ZM49.9239 497.31L48.8179 496.372L51.6739 492.2H53.4799L49.9239 497.31ZM61.508 503.666C61.0134 503.227 60.584 502.691 60.22 502.056C59.8654 501.421 59.59 500.726 59.394 499.97C59.198 499.214 59.1 498.43 59.1 497.618C59.1 496.806 59.198 496.022 59.394 495.266C59.59 494.51 59.8654 493.815 60.22 493.18C60.584 492.545 61.0134 492.009 61.508 491.57L62.39 492.354C61.774 492.923 61.2934 493.661 60.948 494.566C60.612 495.462 60.444 496.479 60.444 497.618C60.444 498.747 60.612 499.765 60.948 500.67C61.2934 501.575 61.774 502.313 62.39 502.882L61.508 503.666ZM67.7286 498.08L63.9066 492.2H65.7686L68.7506 496.89H67.8826L70.8646 492.2H72.6986L68.8486 498.08H67.7286ZM67.5046 502V497.072H69.1146V502H67.5046ZM78.6452 502.14C77.9452 502.14 77.2919 502.009 76.6852 501.748C76.0786 501.487 75.5466 501.127 75.0892 500.67C74.6319 500.203 74.2726 499.667 74.0112 499.06C73.7592 498.444 73.6332 497.786 73.6332 497.086C73.6332 496.386 73.7592 495.733 74.0112 495.126C74.2726 494.519 74.6272 493.987 75.0752 493.53C75.5326 493.063 76.0599 492.704 76.6572 492.452C77.2639 492.191 77.9172 492.06 78.6172 492.06C79.3172 492.06 79.9659 492.191 80.5632 492.452C81.1699 492.704 81.7019 493.063 82.1592 493.53C82.6166 493.987 82.9712 494.524 83.2232 495.14C83.4846 495.747 83.6152 496.4 83.6152 497.1C83.6152 497.8 83.4846 498.458 83.2232 499.074C82.9712 499.681 82.6166 500.213 82.1592 500.67C81.7112 501.127 81.1839 501.487 80.5772 501.748C79.9799 502.009 79.3359 502.14 78.6452 502.14ZM78.6172 500.6C79.2799 500.6 79.8586 500.451 80.3532 500.152C80.8572 499.853 81.2492 499.443 81.5292 498.92C81.8186 498.388 81.9632 497.777 81.9632 497.086C81.9632 496.573 81.8792 496.106 81.7112 495.686C81.5526 495.257 81.3239 494.888 81.0252 494.58C80.7266 494.263 80.3719 494.02 79.9612 493.852C79.5599 493.684 79.1119 493.6 78.6172 493.6C77.9639 493.6 77.3852 493.749 76.8812 494.048C76.3866 494.337 75.9946 494.743 75.7052 495.266C75.4252 495.789 75.2852 496.395 75.2852 497.086C75.2852 497.599 75.3646 498.075 75.5232 498.514C75.6912 498.943 75.9199 499.312 76.2092 499.62C76.5079 499.928 76.8626 500.171 77.2732 500.348C77.6839 500.516 78.1319 500.6 78.6172 500.6ZM89.9075 502.14C89.1701 502.14 88.5075 501.972 87.9195 501.636C87.3315 501.3 86.8648 500.843 86.5195 500.264C86.1835 499.676 86.0155 499.013 86.0155 498.276V492.2H87.6255V498.262C87.6255 498.738 87.7235 499.153 87.9195 499.508C88.1248 499.853 88.4001 500.124 88.7455 500.32C89.0908 500.507 89.4781 500.6 89.9075 500.6C90.3461 500.6 90.7335 500.507 91.0695 500.32C91.4055 500.124 91.6715 499.853 91.8675 499.508C92.0635 499.153 92.1615 498.743 92.1615 498.276V492.2H93.7715V498.29C93.7715 499.027 93.6035 499.685 93.2675 500.264C92.9315 500.843 92.4741 501.3 91.8955 501.636C91.3168 501.972 90.6541 502.14 89.9075 502.14ZM96.8225 503.666L95.9405 502.882C96.5565 502.313 97.0325 501.575 97.3685 500.67C97.7138 499.765 97.8865 498.747 97.8865 497.618C97.8865 496.479 97.7138 495.462 97.3685 494.566C97.0325 493.661 96.5565 492.923 95.9405 492.354L96.8225 491.57C97.3172 492.009 97.7418 492.545 98.0965 493.18C98.4605 493.815 98.7405 494.51 98.9365 495.266C99.1325 496.022 99.2305 496.806 99.2305 497.618C99.2305 498.43 99.1325 499.214 98.9365 499.97C98.7405 500.726 98.4605 501.421 98.0965 502.056C97.7418 502.691 97.3172 503.227 96.8225 503.666Z" fill="#1A2A33"/>
<path d="M65.622 523V508.88H68.742V523H65.622ZM62.902 511.54V508.88H68.542V511.54H62.902ZM71.7305 518.1L76.3705 508.88H79.7905L75.0505 518.1H71.7305ZM71.7305 519.86V518.1L72.7705 517.2H83.0505V519.86H71.7305ZM78.3905 523V514.26H81.4705V523H78.3905Z" fill="#1A2A33"/>
</g>
<rect x="140" y="476" width="96" height="64" rx="10" fill="#A8BFC9"/>
<path d="M178.817 500V491.84H180.197V500H178.817ZM176.081 492.86V491.6H182.933V492.86H176.081ZM184.885 500V491.6H186.265V500H184.885ZM188.834 500V491.6H190.214V500H188.834ZM189.782 500V498.74H194.486V500H189.782ZM189.782 496.316V495.104H194.078V496.316H189.782ZM189.782 492.86V491.6H194.426V492.86H189.782ZM198.791 500.12C198.127 500.12 197.563 500 197.099 499.76C196.635 499.52 196.219 499.168 195.851 498.704L196.787 497.768C197.019 498.104 197.295 498.368 197.615 498.56C197.935 498.744 198.343 498.836 198.839 498.836C199.303 498.836 199.671 498.74 199.943 498.548C200.223 498.356 200.363 498.092 200.363 497.756C200.363 497.476 200.291 497.248 200.147 497.072C200.003 496.896 199.811 496.752 199.571 496.64C199.339 496.52 199.079 496.416 198.791 496.328C198.511 496.232 198.227 496.128 197.939 496.016C197.659 495.896 197.399 495.748 197.159 495.572C196.927 495.396 196.739 495.168 196.595 494.888C196.451 494.608 196.379 494.252 196.379 493.82C196.379 493.324 196.499 492.904 196.739 492.56C196.987 492.208 197.319 491.94 197.735 491.756C198.151 491.572 198.615 491.48 199.127 491.48C199.679 491.48 200.171 491.588 200.603 491.804C201.043 492.02 201.399 492.296 201.671 492.632L200.735 493.568C200.495 493.296 200.243 493.096 199.979 492.968C199.723 492.832 199.427 492.764 199.091 492.764C198.675 492.764 198.347 492.848 198.107 493.016C197.875 493.184 197.759 493.42 197.759 493.724C197.759 493.98 197.831 494.188 197.975 494.348C198.119 494.5 198.307 494.632 198.539 494.744C198.779 494.848 199.039 494.948 199.319 495.044C199.607 495.14 199.891 495.248 200.171 495.368C200.459 495.488 200.719 495.644 200.951 495.836C201.191 496.02 201.383 496.26 201.527 496.556C201.671 496.852 201.743 497.224 201.743 497.672C201.743 498.424 201.475 499.02 200.939 499.46C200.411 499.9 199.695 500.12 198.791 500.12Z" fill="#1A2A33"/>
<path d="M181.705 523.22C180.731 523.22 179.838 523.053 179.025 522.72C178.211 522.373 177.525 521.88 176.965 521.24L178.985 519.22C179.238 519.593 179.605 519.9 180.085 520.14C180.578 520.367 181.098 520.48 181.645 520.48C182.138 520.48 182.565 520.393 182.925 520.22C183.285 520.047 183.565 519.8 183.765 519.48C183.978 519.16 184.085 518.78 184.085 518.34C184.085 517.9 183.978 517.527 183.765 517.22C183.565 516.9 183.265 516.653 182.865 516.48C182.478 516.307 182.011 516.22 181.465 516.22C181.211 516.22 180.945 516.24 180.665 516.28C180.398 516.307 180.171 516.353 179.985 516.42L181.365 514.68C181.738 514.573 182.091 514.487 182.425 514.42C182.771 514.34 183.091 514.3 183.385 514.3C184.105 514.3 184.751 514.473 185.325 514.82C185.898 515.153 186.351 515.633 186.685 516.26C187.031 516.873 187.205 517.607 187.205 518.46C187.205 519.393 186.971 520.22 186.505 520.94C186.051 521.66 185.411 522.22 184.585 522.62C183.771 523.02 182.811 523.22 181.705 523.22ZM179.985 516.42V514.68L183.425 510.64L186.945 510.62L183.365 514.7L179.985 516.42ZM177.845 511.54V508.88H186.945V510.62L184.485 511.54H177.845ZM189.546 521.24L194.966 515.64C195.3 515.307 195.566 515 195.766 514.72C195.966 514.44 196.113 514.18 196.206 513.94C196.3 513.687 196.346 513.433 196.346 513.18C196.346 512.633 196.166 512.207 195.806 511.9C195.46 511.58 195 511.42 194.426 511.42C193.866 511.42 193.36 511.573 192.906 511.88C192.466 512.173 192.04 512.66 191.626 513.34L189.526 511.52C190.086 510.573 190.8 509.86 191.666 509.38C192.533 508.9 193.526 508.66 194.646 508.66C195.62 508.66 196.46 508.84 197.166 509.2C197.886 509.56 198.44 510.073 198.826 510.74C199.226 511.407 199.426 512.187 199.426 513.08C199.426 513.64 199.353 514.16 199.206 514.64C199.06 515.107 198.82 515.573 198.486 516.04C198.166 516.493 197.733 516.993 197.186 517.54L193.426 521.28L189.546 521.24ZM189.546 523V521.24L192.206 520.32H199.706V523H189.546Z" fill="#1A2A33"/>
<rect x="256" y="476" width="96" height="64" rx="10" fill="#F2B137"/>
<path d="M285.686 500.12C285.086 500.12 284.526 500.008 284.006 499.784C283.486 499.56 283.03 499.252 282.638 498.86C282.246 498.46 281.938 498 281.714 497.48C281.498 496.952 281.39 496.388 281.39 495.788C281.39 495.188 281.498 494.628 281.714 494.108C281.938 493.588 282.242 493.132 282.626 492.74C283.018 492.34 283.47 492.032 283.982 491.816C284.502 491.592 285.062 491.48 285.662 491.48C286.262 491.48 286.818 491.592 287.33 491.816C287.85 492.032 288.306 492.34 288.698 492.74C289.09 493.132 289.394 493.592 289.61 494.12C289.834 494.64 289.946 495.2 289.946 495.8C289.946 496.4 289.834 496.964 289.61 497.492C289.394 498.012 289.09 498.468 288.698 498.86C288.314 499.252 287.862 499.56 287.342 499.784C286.83 500.008 286.278 500.12 285.686 500.12ZM285.662 498.8C286.23 498.8 286.726 498.672 287.15 498.416C287.582 498.16 287.918 497.808 288.158 497.36C288.406 496.904 288.53 496.38 288.53 495.788C288.53 495.348 288.458 494.948 288.314 494.588C288.178 494.22 287.982 493.904 287.726 493.64C287.47 493.368 287.166 493.16 286.814 493.016C286.47 492.872 286.086 492.8 285.662 492.8C285.102 492.8 284.606 492.928 284.174 493.184C283.75 493.432 283.414 493.78 283.166 494.228C282.926 494.676 282.806 495.196 282.806 495.788C282.806 496.228 282.874 496.636 283.01 497.012C283.154 497.38 283.35 497.696 283.598 497.96C283.854 498.224 284.158 498.432 284.51 498.584C284.862 498.728 285.246 498.8 285.662 498.8ZM296.884 501.428C296.46 501.052 296.092 500.592 295.78 500.048C295.476 499.504 295.24 498.908 295.072 498.26C294.904 497.612 294.82 496.94 294.82 496.244C294.82 495.548 294.904 494.876 295.072 494.228C295.24 493.58 295.476 492.984 295.78 492.44C296.092 491.896 296.46 491.436 296.884 491.06L297.64 491.732C297.112 492.22 296.7 492.852 296.404 493.628C296.116 494.396 295.972 495.268 295.972 496.244C295.972 497.212 296.116 498.084 296.404 498.86C296.7 499.636 297.112 500.268 297.64 500.756L296.884 501.428ZM303.263 500.12C302.655 500.12 302.091 500.012 301.571 499.796C301.059 499.572 300.611 499.264 300.227 498.872C299.843 498.472 299.547 498.012 299.339 497.492C299.131 496.964 299.027 496.4 299.027 495.8C299.027 495.2 299.131 494.64 299.339 494.12C299.547 493.592 299.843 493.132 300.227 492.74C300.611 492.348 301.059 492.04 301.571 491.816C302.091 491.592 302.655 491.48 303.263 491.48C303.943 491.48 304.531 491.592 305.027 491.816C305.523 492.04 305.963 492.344 306.347 492.728L305.411 493.664C305.163 493.392 304.859 493.18 304.499 493.028C304.147 492.876 303.735 492.8 303.263 492.8C302.847 492.8 302.467 492.872 302.123 493.016C301.779 493.16 301.479 493.368 301.223 493.64C300.975 493.904 300.783 494.22 300.647 494.588C300.511 494.956 300.443 495.36 300.443 495.8C300.443 496.24 300.511 496.644 300.647 497.012C300.783 497.38 300.975 497.7 301.223 497.972C301.479 498.236 301.779 498.44 302.123 498.584C302.467 498.728 302.847 498.8 303.263 498.8C303.775 498.8 304.207 498.724 304.559 498.572C304.919 498.412 305.223 498.196 305.471 497.924L306.407 498.86C306.023 499.252 305.571 499.56 305.051 499.784C304.531 500.008 303.935 500.12 303.263 500.12ZM309.337 496.832V495.632H311.437C311.725 495.632 311.977 495.576 312.193 495.464C312.417 495.344 312.593 495.18 312.721 494.972C312.849 494.756 312.913 494.504 312.913 494.216C312.913 493.928 312.849 493.68 312.721 493.472C312.593 493.256 312.417 493.092 312.193 492.98C311.977 492.86 311.725 492.8 311.437 492.8H309.337V491.6H311.509C312.037 491.6 312.509 491.708 312.925 491.924C313.349 492.14 313.681 492.444 313.921 492.836C314.169 493.228 314.293 493.688 314.293 494.216C314.293 494.744 314.169 495.204 313.921 495.596C313.681 495.988 313.349 496.292 312.925 496.508C312.509 496.724 312.037 496.832 311.509 496.832H309.337ZM308.389 500V491.6H309.769V500H308.389ZM319.621 500.12C318.989 500.12 318.421 499.976 317.917 499.688C317.413 499.4 317.013 499.008 316.717 498.512C316.429 498.008 316.285 497.44 316.285 496.808V491.6H317.665V496.796C317.665 497.204 317.749 497.56 317.917 497.864C318.093 498.16 318.329 498.392 318.625 498.56C318.921 498.72 319.253 498.8 319.621 498.8C319.997 498.8 320.329 498.72 320.617 498.56C320.905 498.392 321.133 498.16 321.301 497.864C321.469 497.56 321.553 497.208 321.553 496.808V491.6H322.933V496.82C322.933 497.452 322.789 498.016 322.501 498.512C322.213 499.008 321.821 499.4 321.325 499.688C320.829 499.976 320.261 500.12 319.621 500.12ZM325.548 501.428L324.792 500.756C325.32 500.268 325.728 499.636 326.016 498.86C326.312 498.084 326.46 497.212 326.46 496.244C326.46 495.268 326.312 494.396 326.016 493.628C325.728 492.852 325.32 492.22 324.792 491.732L325.548 491.06C325.972 491.436 326.336 491.896 326.64 492.44C326.952 492.984 327.192 493.58 327.36 494.228C327.528 494.876 327.612 495.548 327.612 496.244C327.612 496.94 327.528 497.612 327.36 498.26C327.192 498.908 326.952 499.504 326.64 500.048C326.336 500.592 325.972 501.052 325.548 501.428Z" fill="#1A2A33"/>
<path d="M300.436 523V508.88H303.556V523H300.436ZM297.716 511.54V508.88H303.356V511.54H297.716ZM309.245 523V508.88H312.365V523H309.245ZM306.525 511.54V508.88H312.165V511.54H306.525Z" fill="#1A2A33"/>
<path fill-rule="evenodd" clip-rule="evenodd" d="M51.681 29.6344C50.5094 28.4628 48.6099 28.4628 47.4383 29.6344L40 37.0727L32.5617 29.6344C31.3901 28.4628 29.4906 28.4628 28.319 29.6344L25.6344 32.319C24.4628 33.4906 24.4628 35.3901 25.6344 36.5617L33.0727 44L25.6344 51.4383C24.4628 52.6099 24.4628 54.5094 25.6344 55.681L28.319 58.3656C29.4906 59.5372 31.3901 59.5372 32.5617 58.3656L40 50.9273L47.4383 58.3656C48.6099 59.5372 50.5094 59.5372 51.681 58.3656L54.3656 55.681C55.5372 54.5094 55.5372 52.6099 54.3656 51.4383L46.9273 44L54.3656 36.5617C55.5372 35.3901 55.5372 33.4906 54.3656 32.319L51.681 29.6344Z" fill="#31C3BD"/>
<path fill-rule="evenodd" clip-rule="evenodd" d="M95.9704 43.8706C95.9704 35.1055 88.8649 28 80.0998 28C71.3348 28 64.2292 35.1055 64.2292 43.8706C64.2292 52.6357 71.3348 59.7412 80.0998 59.7412C88.8649 59.7412 95.9704 52.6357 95.9704 43.8706ZM73.634 43.8706C73.634 40.2996 76.5289 37.4048 80.0998 37.4048C83.6708 37.4048 86.5656 40.2996 86.5656 43.8706C86.5656 47.4416 83.6708 50.3364 80.0998 50.3364C76.5289 50.3364 73.634 47.4416 73.634 43.8706Z" fill="#F2B137"/>
<g filter="url(#filter9_i_0_368)">
<rect x="142" y="24" width="96" height="40" rx="5" fill="#1F3641"/>
</g>
<g clip-path="url(#clip1_0_368)">
<path fill-rule="evenodd" clip-rule="evenodd" d="M172.778 36.6449L170.355 34.2215C170.06 33.9262 169.581 33.9262 169.285 34.2215L165 38.507L160.715 34.2215C160.419 33.9262 159.94 33.9262 159.645 34.2215L157.222 36.6449C156.926 36.9402 156.926 37.4191 157.222 37.7145L161.507 42L157.222 46.2855C156.926 46.5809 156.926 47.0598 157.222 47.3551L159.645 49.7785C159.94 50.0738 160.419 50.0738 160.715 49.7785L165 45.493L169.285 49.7785C169.581 50.0738 170.06 50.0738 170.355 49.7785L172.778 47.3551C173.074 47.0598 173.074 46.5809 172.778 46.2855L168.493 42L172.778 37.7145C173.074 37.4191 173.074 36.9402 172.778 36.6449Z" fill="#A8BFC9"/>
<path d="M185.564 47V37.256H187.762V47H185.564ZM182.47 39.034V37.116H190.856V39.034H182.47ZM196.88 47.154C196.068 47.154 195.349 46.9813 194.724 46.636C194.108 46.2907 193.623 45.8147 193.268 45.208C192.923 44.592 192.75 43.892 192.75 43.108V37.116H194.962V43.234C194.962 43.626 195.046 43.9667 195.214 44.256C195.382 44.5453 195.611 44.7693 195.9 44.928C196.199 45.0773 196.525 45.152 196.88 45.152C197.253 45.152 197.58 45.0773 197.86 44.928C198.14 44.7693 198.359 44.55 198.518 44.27C198.686 43.9807 198.77 43.64 198.77 43.248V37.116H200.982V43.122C200.982 43.906 200.809 44.6013 200.464 45.208C200.119 45.8147 199.638 46.2907 199.022 46.636C198.406 46.9813 197.692 47.154 196.88 47.154ZM205.289 42.926V41.302H207.375C207.814 41.302 208.15 41.19 208.383 40.966C208.626 40.742 208.747 40.4387 208.747 40.056C208.747 39.7013 208.631 39.4073 208.397 39.174C208.164 38.9407 207.828 38.824 207.389 38.824H205.289V37.116H207.641C208.295 37.116 208.869 37.242 209.363 37.494C209.858 37.7367 210.245 38.0773 210.525 38.516C210.805 38.9547 210.945 39.4587 210.945 40.028C210.945 40.6067 210.805 41.1153 210.525 41.554C210.245 41.9833 209.853 42.3193 209.349 42.562C208.845 42.8047 208.253 42.926 207.571 42.926H205.289ZM203.609 47V37.116H205.807V47H203.609ZM208.985 47L205.905 42.744L207.921 42.198L211.589 47H208.985ZM213.426 47V37.116H214.966L215.624 39.09V47H213.426ZM220.244 47L214.42 39.538L214.966 37.116L220.79 44.578L220.244 47ZM220.244 47L219.656 45.026V37.116H221.854V47H220.244Z" fill="#A8BFC9"/>
</g>
<g filter="url(#filter10_i_0_368)">
<rect x="312" y="24" width="40" height="40" rx="5" fill="#A8BFC9"/>
</g>
<path d="M339.326 36.3076H337.88C337.678 36.3074 337.514 36.4712 337.514 36.6735C337.514 36.6794 337.514 36.6854 337.514 36.6913L337.636 39.2176C336.2 37.5244 334.092 36.5494 331.873 36.5518C327.704 36.5518 324.305 39.9563 324.308 44.1278C324.311 48.3061 327.697 51.6922 331.873 51.6922C333.746 51.6949 335.554 50.9994 336.942 49.7414C337.093 49.6064 337.106 49.3749 336.971 49.2241C336.966 49.2191 336.962 49.2141 336.957 49.2093L335.92 48.1715C335.784 48.0352 335.565 48.0279 335.42 48.1547C333.194 50.1146 329.801 49.8975 327.843 47.6699C325.884 45.4422 326.101 42.0475 328.327 40.0876C330.553 38.1277 333.946 38.3448 335.905 40.5724C336.058 40.747 336.2 40.9314 336.33 41.1244L333.233 40.9758C333.031 40.9662 332.859 41.1222 332.85 41.3243C332.849 41.3302 332.849 41.3362 332.849 41.3421V42.7893C332.849 42.9916 333.013 43.1556 333.215 43.1556H339.326C339.529 43.1556 339.692 42.9916 339.692 42.7893V36.6739C339.692 36.4716 339.528 36.3076 339.326 36.3076Z" fill="#1F3641"/>
<rect opacity="0.5" width="375" height="667" fill="black"/>
<rect y="220" width="375" height="228" fill="#1F3641"/>
<path d="M88.2151 298.016V295.232H91.7911C92.5431 295.232 93.1191 295.04 93.5191 294.656C93.9351 294.272 94.1431 293.752 94.1431 293.096C94.1431 292.488 93.9431 291.984 93.5431 291.584C93.1431 291.184 92.5671 290.984 91.8151 290.984H88.2151V288.056H92.2471C93.3671 288.056 94.3511 288.272 95.1991 288.704C96.0471 289.12 96.7111 289.704 97.1911 290.456C97.6711 291.208 97.9111 292.072 97.9111 293.048C97.9111 294.04 97.6711 294.912 97.1911 295.664C96.7111 296.4 96.0391 296.976 95.1751 297.392C94.3111 297.808 93.2951 298.016 92.1271 298.016H88.2151ZM85.3351 305V288.056H89.1031V305H85.3351ZM94.5511 305L89.2711 297.704L92.7271 296.768L99.0151 305H94.5511ZM102.163 305V288.056H105.931V305H102.163ZM105.043 305V301.736H114.331V305H105.043ZM105.043 297.92V294.776H113.491V297.92H105.043ZM105.043 291.296V288.056H114.211V291.296H105.043ZM123.095 305.264C121.703 305.264 120.503 305.04 119.495 304.592C118.503 304.128 117.591 303.432 116.759 302.504L119.207 300.08C119.751 300.704 120.351 301.192 121.007 301.544C121.679 301.88 122.455 302.048 123.335 302.048C124.135 302.048 124.751 301.904 125.183 301.616C125.631 301.328 125.855 300.928 125.855 300.416C125.855 299.952 125.711 299.576 125.423 299.288C125.135 299 124.751 298.752 124.271 298.544C123.807 298.336 123.287 298.136 122.711 297.944C122.151 297.752 121.591 297.536 121.031 297.296C120.471 297.04 119.951 296.728 119.471 296.36C119.007 295.976 118.631 295.504 118.343 294.944C118.055 294.368 117.911 293.648 117.911 292.784C117.911 291.744 118.159 290.848 118.655 290.096C119.167 289.344 119.871 288.776 120.767 288.392C121.663 287.992 122.695 287.792 123.863 287.792C125.047 287.792 126.127 288 127.103 288.416C128.095 288.832 128.911 289.4 129.551 290.12L127.103 292.544C126.591 292.016 126.071 291.624 125.543 291.368C125.031 291.112 124.447 290.984 123.791 290.984C123.135 290.984 122.615 291.112 122.231 291.368C121.847 291.608 121.655 291.96 121.655 292.424C121.655 292.856 121.799 293.208 122.087 293.48C122.375 293.736 122.751 293.96 123.215 294.152C123.695 294.344 124.215 294.536 124.775 294.728C125.351 294.92 125.919 295.144 126.479 295.4C127.039 295.656 127.551 295.984 128.015 296.384C128.495 296.768 128.879 297.264 129.167 297.872C129.455 298.464 129.599 299.2 129.599 300.08C129.599 301.696 129.023 302.968 127.871 303.896C126.719 304.808 125.127 305.264 123.095 305.264ZM137.018 305V288.296H140.786V305H137.018ZM131.714 291.344V288.056H146.09V291.344H131.714ZM146.337 305L153.057 288.056H156.465L163.113 305H159.129L154.041 290.936H155.409L150.249 305H146.337ZM150.153 301.928V298.856H159.393V301.928H150.153ZM169.285 298.016V295.232H172.861C173.613 295.232 174.189 295.04 174.589 294.656C175.005 294.272 175.213 293.752 175.213 293.096C175.213 292.488 175.013 291.984 174.613 291.584C174.213 291.184 173.637 290.984 172.885 290.984H169.285V288.056H173.317C174.437 288.056 175.421 288.272 176.269 288.704C177.117 289.12 177.781 289.704 178.261 290.456C178.741 291.208 178.981 292.072 178.981 293.048C178.981 294.04 178.741 294.912 178.261 295.664C177.781 296.4 177.109 296.976 176.245 297.392C175.381 297.808 174.365 298.016 173.197 298.016H169.285ZM166.405 305V288.056H170.173V305H166.405ZM175.621 305L170.341 297.704L173.797 296.768L180.085 305H175.621ZM186.8 305V288.296H190.568V305H186.8ZM181.496 291.344V288.056H195.872V291.344H181.496ZM213.163 305.264C211.931 305.264 210.771 305.04 209.683 304.592C208.611 304.144 207.675 303.528 206.875 302.744C206.075 301.944 205.443 301.016 204.979 299.96C204.531 298.888 204.307 297.736 204.307 296.504C204.307 295.272 204.539 294.128 205.003 293.072C205.467 292.016 206.107 291.096 206.923 290.312C207.755 289.512 208.723 288.896 209.827 288.464C210.931 288.016 212.115 287.792 213.379 287.792C214.835 287.792 216.155 288.056 217.339 288.584C218.539 289.112 219.531 289.84 220.315 290.768L217.747 293.336C217.203 292.632 216.563 292.104 215.827 291.752C215.091 291.4 214.259 291.224 213.331 291.224C212.339 291.224 211.451 291.448 210.667 291.896C209.883 292.328 209.267 292.944 208.819 293.744C208.387 294.528 208.171 295.448 208.171 296.504C208.171 297.56 208.387 298.488 208.819 299.288C209.251 300.088 209.843 300.712 210.595 301.16C211.347 301.608 212.211 301.832 213.187 301.832C214.179 301.832 215.019 301.648 215.707 301.28C216.411 300.896 216.947 300.352 217.315 299.648C217.699 298.928 217.891 298.056 217.891 297.032L220.387 298.712L212.827 298.592V295.4H221.731V295.952C221.731 297.984 221.363 299.696 220.627 301.088C219.907 302.464 218.899 303.504 217.603 304.208C216.323 304.912 214.843 305.264 213.163 305.264ZM223.516 305L230.236 288.056H233.644L240.292 305H236.308L231.22 290.936H232.588L227.428 305H223.516ZM227.332 301.928V298.856H236.572V301.928H227.332ZM243.585 305V288.056H246.273L252.945 298.448H251.577L258.225 288.056H260.937V305H257.169V294.416L257.841 294.584L253.497 301.352H251.001L246.681 294.584L247.329 294.416V305H243.585ZM265.687 305V288.056H269.455V305H265.687ZM268.567 305V301.736H277.855V305H268.567ZM268.567 297.92V294.776H277.015V297.92H268.567ZM268.567 291.296V288.056H277.735V291.296H268.567ZM285.12 298.88L284.928 294.272H285.96C286.36 294.272 286.704 294.2 286.992 294.056C287.296 293.912 287.528 293.712 287.688 293.456C287.864 293.184 287.952 292.864 287.952 292.496C287.952 292.144 287.872 291.84 287.712 291.584C287.552 291.312 287.328 291.112 287.04 290.984C286.752 290.84 286.416 290.768 286.032 290.768C285.44 290.768 284.896 290.944 284.4 291.296C283.92 291.632 283.528 292.096 283.224 292.688L280.872 290.48C281.352 289.536 282.048 288.776 282.96 288.2C283.872 287.608 284.952 287.312 286.2 287.312C287.24 287.312 288.16 287.528 288.96 287.96C289.76 288.392 290.384 288.984 290.832 289.736C291.28 290.472 291.504 291.304 291.504 292.232C291.504 293.176 291.312 293.984 290.928 294.656C290.544 295.328 290.024 295.88 289.368 296.312C288.712 296.728 287.968 297.024 287.136 297.2L288.216 295.784L288 298.88H285.12ZM286.56 305.264C285.92 305.264 285.392 305.048 284.976 304.616C284.576 304.184 284.376 303.664 284.376 303.056C284.376 302.416 284.576 301.888 284.976 301.472C285.392 301.04 285.92 300.824 286.56 300.824C287.184 300.824 287.696 301.04 288.096 301.472C288.512 301.888 288.72 302.416 288.72 303.056C288.72 303.664 288.512 304.184 288.096 304.616C287.696 305.048 287.184 305.264 286.56 305.264Z" fill="#A8BFC9"/>
<g filter="url(#filter11_i_0_368)">
<rect x="35" y="335" width="139" height="52" rx="10" fill="#A8BFC9"/>
</g>
<path d="M54.2364 366V354.704H55.9964L56.7484 356.96V366H54.2364ZM62.0284 366L55.3724 357.472L55.9964 354.704L62.6524 363.232L62.0284 366ZM62.0284 366L61.3564 363.744V354.704H63.8684V366H62.0284ZM72.4409 366.192C71.5876 366.192 70.7983 366.043 70.0729 365.744C69.3583 365.445 68.7289 365.029 68.1849 364.496C67.6409 363.963 67.2196 363.344 66.9209 362.64C66.6223 361.925 66.4729 361.157 66.4729 360.336C66.4729 359.504 66.6223 358.736 66.9209 358.032C67.2196 357.328 67.6356 356.715 68.1689 356.192C68.7023 355.659 69.3263 355.248 70.0409 354.96C70.7663 354.661 71.5556 354.512 72.4089 354.512C73.2516 354.512 74.0303 354.661 74.7449 354.96C75.4703 355.248 76.0996 355.659 76.6329 356.192C77.1769 356.715 77.5983 357.333 77.8969 358.048C78.1956 358.752 78.3449 359.52 78.3449 360.352C78.3449 361.173 78.1956 361.941 77.8969 362.656C77.5983 363.36 77.1823 363.979 76.6489 364.512C76.1156 365.035 75.4863 365.445 74.7609 365.744C74.0463 366.043 73.2729 366.192 72.4409 366.192ZM72.4089 363.904C73.0809 363.904 73.6676 363.755 74.1689 363.456C74.6809 363.157 75.0756 362.741 75.3529 362.208C75.6303 361.664 75.7689 361.04 75.7689 360.336C75.7689 359.803 75.6889 359.323 75.5289 358.896C75.3689 358.459 75.1396 358.085 74.8409 357.776C74.5423 357.456 74.1849 357.216 73.7689 357.056C73.3636 356.885 72.9103 356.8 72.4089 356.8C71.7369 356.8 71.1449 356.949 70.6329 357.248C70.1316 357.536 69.7423 357.947 69.4649 358.48C69.1876 359.003 69.0489 359.621 69.0489 360.336C69.0489 360.869 69.1289 361.355 69.2889 361.792C69.4489 362.229 69.6729 362.608 69.9609 362.928C70.2596 363.237 70.6169 363.477 71.0329 363.648C71.4489 363.819 71.9076 363.904 72.4089 363.904ZM80.1999 367.92L81.3679 365.744L82.0879 365.536C82.0133 365.696 81.9226 365.829 81.8159 365.936C81.7093 366.032 81.5866 366.08 81.4479 366.08C81.1386 366.08 80.8559 365.952 80.5999 365.696C80.3439 365.44 80.2159 365.12 80.2159 364.736C80.2159 364.32 80.3546 363.963 80.6319 363.664C80.9199 363.365 81.2719 363.216 81.6879 363.216C82.0826 363.216 82.4239 363.365 82.7119 363.664C83.0106 363.952 83.1599 364.309 83.1599 364.736C83.1599 364.907 83.1279 365.104 83.0639 365.328C82.9999 365.552 82.8719 365.845 82.6799 366.208L81.3839 368.576L80.1999 367.92ZM95.3621 366.176C94.5194 366.176 93.7354 366.032 93.0101 365.744C92.2954 365.445 91.6661 365.029 91.1221 364.496C90.5887 363.963 90.1727 363.344 89.8741 362.64C89.5754 361.925 89.4261 361.157 89.4261 360.336C89.4261 359.515 89.5754 358.752 89.8741 358.048C90.1727 357.333 90.5887 356.715 91.1221 356.192C91.6554 355.669 92.2794 355.264 92.9941 354.976C93.7194 354.677 94.5034 354.528 95.3461 354.528C96.2421 354.528 97.0367 354.672 97.7301 354.96C98.4341 355.248 99.0474 355.643 99.5701 356.144L97.8901 357.84C97.5914 357.52 97.2287 357.269 96.8021 357.088C96.3861 356.907 95.9007 356.816 95.3461 356.816C94.8554 356.816 94.4021 356.901 93.9861 357.072C93.5807 357.232 93.2287 357.467 92.9301 357.776C92.6421 358.085 92.4127 358.459 92.2421 358.896C92.0821 359.333 92.0021 359.813 92.0021 360.336C92.0021 360.869 92.0821 361.355 92.2421 361.792C92.4127 362.229 92.6421 362.603 92.9301 362.912C93.2287 363.221 93.5807 363.461 93.9861 363.632C94.4021 363.803 94.8554 363.888 95.3461 363.888C95.9221 363.888 96.4234 363.797 96.8501 363.616C97.2767 363.435 97.6447 363.184 97.9541 362.864L99.6501 364.56C99.1061 365.061 98.4821 365.456 97.7781 365.744C97.0847 366.032 96.2794 366.176 95.3621 366.176ZM100.904 366L105.384 354.704H107.656L112.088 366H109.432L106.04 356.624H106.952L103.512 366H100.904ZM103.448 363.952V361.904H109.608V363.952H103.448ZM114.283 366V354.704H116.043L116.795 356.96V366H114.283ZM122.075 366L115.419 357.472L116.043 354.704L122.699 363.232L122.075 366ZM122.075 366L121.403 363.744V354.704H123.915V366H122.075ZM132.456 366.176C131.613 366.176 130.829 366.032 130.104 365.744C129.389 365.445 128.76 365.029 128.216 364.496C127.682 363.963 127.266 363.344 126.968 362.64C126.669 361.925 126.52 361.157 126.52 360.336C126.52 359.515 126.669 358.752 126.968 358.048C127.266 357.333 127.682 356.715 128.216 356.192C128.749 355.669 129.373 355.264 130.088 354.976C130.813 354.677 131.597 354.528 132.44 354.528C133.336 354.528 134.13 354.672 134.824 354.96C135.528 355.248 136.141 355.643 136.664 356.144L134.984 357.84C134.685 357.52 134.322 357.269 133.896 357.088C133.48 356.907 132.994 356.816 132.44 356.816C131.949 356.816 131.496 356.901 131.08 357.072C130.674 357.232 130.322 357.467 130.024 357.776C129.736 358.085 129.506 358.459 129.336 358.896C129.176 359.333 129.096 359.813 129.096 360.336C129.096 360.869 129.176 361.355 129.336 361.792C129.506 362.229 129.736 362.603 130.024 362.912C130.322 363.221 130.674 363.461 131.08 363.632C131.496 363.803 131.949 363.888 132.44 363.888C133.016 363.888 133.517 363.797 133.944 363.616C134.37 363.435 134.738 363.184 135.048 362.864L136.744 364.56C136.2 365.061 135.576 365.456 134.872 365.744C134.178 366.032 133.373 366.176 132.456 366.176ZM139.127 366V354.704H141.639V366H139.127ZM141.047 366V363.824H147.239V366H141.047ZM141.047 361.28V359.184H146.679V361.28H141.047ZM141.047 356.864V354.704H147.159V356.864H141.047ZM149.971 366V354.704H152.483V366H149.971ZM151.907 366V363.792H157.491V366H151.907Z" fill="#1A2A33"/>
<g filter="url(#filter12_i_0_368)">
<rect x="190" y="335" width="151" height="52" rx="10" fill="#F2B137"/>
</g>
<path d="M210.482 361.792L206.13 354.704H209.042L212.386 360.432H210.514L213.858 354.704H216.706L212.322 361.792H210.482ZM210.178 366V360.64H212.69V366H210.178ZM218.604 366V354.704H221.116V366H218.604ZM220.524 366V363.824H226.716V366H220.524ZM220.524 361.28V359.184H226.156V361.28H220.524ZM220.524 356.864V354.704H226.636V356.864H220.524ZM232.558 366.176C231.63 366.176 230.83 366.027 230.158 365.728C229.497 365.419 228.889 364.955 228.334 364.336L229.966 362.72C230.329 363.136 230.729 363.461 231.166 363.696C231.614 363.92 232.131 364.032 232.718 364.032C233.251 364.032 233.662 363.936 233.95 363.744C234.249 363.552 234.398 363.285 234.398 362.944C234.398 362.635 234.302 362.384 234.11 362.192C233.918 362 233.662 361.835 233.342 361.696C233.033 361.557 232.686 361.424 232.302 361.296C231.929 361.168 231.555 361.024 231.182 360.864C230.809 360.693 230.462 360.485 230.142 360.24C229.833 359.984 229.582 359.669 229.39 359.296C229.198 358.912 229.102 358.432 229.102 357.856C229.102 357.163 229.267 356.565 229.598 356.064C229.939 355.563 230.409 355.184 231.006 354.928C231.603 354.661 232.291 354.528 233.07 354.528C233.859 354.528 234.579 354.667 235.23 354.944C235.891 355.221 236.435 355.6 236.862 356.08L235.23 357.696C234.889 357.344 234.542 357.083 234.19 356.912C233.849 356.741 233.459 356.656 233.022 356.656C232.585 356.656 232.238 356.741 231.982 356.912C231.726 357.072 231.598 357.307 231.598 357.616C231.598 357.904 231.694 358.139 231.886 358.32C232.078 358.491 232.329 358.64 232.638 358.768C232.958 358.896 233.305 359.024 233.678 359.152C234.062 359.28 234.441 359.429 234.814 359.6C235.187 359.771 235.529 359.989 235.838 360.256C236.158 360.512 236.414 360.843 236.606 361.248C236.798 361.643 236.894 362.133 236.894 362.72C236.894 363.797 236.51 364.645 235.742 365.264C234.974 365.872 233.913 366.176 232.558 366.176ZM239.27 367.92L240.438 365.744L241.158 365.536C241.084 365.696 240.993 365.829 240.886 365.936C240.78 366.032 240.657 366.08 240.518 366.08C240.209 366.08 239.926 365.952 239.67 365.696C239.414 365.44 239.286 365.12 239.286 364.736C239.286 364.32 239.425 363.963 239.702 363.664C239.99 363.365 240.342 363.216 240.758 363.216C241.153 363.216 241.494 363.365 241.782 363.664C242.081 363.952 242.23 364.309 242.23 364.736C242.23 364.907 242.198 365.104 242.134 365.328C242.07 365.552 241.942 365.845 241.75 366.208L240.454 368.576L239.27 367.92ZM250.992 361.344V359.488H253.376C253.878 359.488 254.262 359.36 254.528 359.104C254.806 358.848 254.944 358.501 254.944 358.064C254.944 357.659 254.811 357.323 254.544 357.056C254.278 356.789 253.894 356.656 253.392 356.656H250.992V354.704H253.68C254.427 354.704 255.083 354.848 255.648 355.136C256.214 355.413 256.656 355.803 256.976 356.304C257.296 356.805 257.456 357.381 257.456 358.032C257.456 358.693 257.296 359.275 256.976 359.776C256.656 360.267 256.208 360.651 255.632 360.928C255.056 361.205 254.379 361.344 253.6 361.344H250.992ZM249.072 366V354.704H251.584V366H249.072ZM255.216 366L251.696 361.136L254 360.512L258.192 366H255.216ZM260.291 366V354.704H262.803V366H260.291ZM262.211 366V363.824H268.403V366H262.211ZM262.211 361.28V359.184H267.843V361.28H262.211ZM262.211 356.864V354.704H268.323V356.864H262.211ZM274.246 366.176C273.318 366.176 272.518 366.027 271.846 365.728C271.184 365.419 270.576 364.955 270.022 364.336L271.654 362.72C272.016 363.136 272.416 363.461 272.854 363.696C273.302 363.92 273.819 364.032 274.406 364.032C274.939 364.032 275.35 363.936 275.638 363.744C275.936 363.552 276.086 363.285 276.086 362.944C276.086 362.635 275.99 362.384 275.798 362.192C275.606 362 275.35 361.835 275.03 361.696C274.72 361.557 274.374 361.424 273.99 361.296C273.616 361.168 273.243 361.024 272.87 360.864C272.496 360.693 272.15 360.485 271.83 360.24C271.52 359.984 271.27 359.669 271.078 359.296C270.886 358.912 270.79 358.432 270.79 357.856C270.79 357.163 270.955 356.565 271.286 356.064C271.627 355.563 272.096 355.184 272.694 354.928C273.291 354.661 273.979 354.528 274.758 354.528C275.547 354.528 276.267 354.667 276.918 354.944C277.579 355.221 278.123 355.6 278.55 356.08L276.918 357.696C276.576 357.344 276.23 357.083 275.878 356.912C275.536 356.741 275.147 356.656 274.71 356.656C274.272 356.656 273.926 356.741 273.67 356.912C273.414 357.072 273.286 357.307 273.286 357.616C273.286 357.904 273.382 358.139 273.574 358.32C273.766 358.491 274.016 358.64 274.326 358.768C274.646 358.896 274.992 359.024 275.366 359.152C275.75 359.28 276.128 359.429 276.502 359.6C276.875 359.771 277.216 359.989 277.526 360.256C277.846 360.512 278.102 360.843 278.294 361.248C278.486 361.643 278.582 362.133 278.582 362.72C278.582 363.797 278.198 364.645 277.43 365.264C276.662 365.872 275.6 366.176 274.246 366.176ZM283.528 366V354.864H286.04V366H283.528ZM279.992 356.896V354.704H289.576V356.896H279.992ZM289.74 366L294.22 354.704H296.492L300.924 366H298.268L294.876 356.624H295.788L292.348 366H289.74ZM292.284 363.952V361.904H298.444V363.952H292.284ZM305.039 361.344V359.488H307.423C307.925 359.488 308.309 359.36 308.575 359.104C308.853 358.848 308.991 358.501 308.991 358.064C308.991 357.659 308.858 357.323 308.591 357.056C308.325 356.789 307.941 356.656 307.439 356.656H305.039V354.704H307.727C308.474 354.704 309.13 354.848 309.695 355.136C310.261 355.413 310.703 355.803 311.023 356.304C311.343 356.805 311.503 357.381 311.503 358.032C311.503 358.693 311.343 359.275 311.023 359.776C310.703 360.267 310.255 360.651 309.679 360.928C309.103 361.205 308.426 361.344 307.647 361.344H305.039ZM303.119 366V354.704H305.631V366H303.119ZM309.263 366L305.743 361.136L308.047 360.512L312.239 366H309.263ZM316.715 366V354.864H319.227V366H316.715ZM313.179 356.896V354.704H322.763V356.896H313.179Z" fill="#1A2A33"/>
<defs>
<filter id="filter0_i_0_368" x="24" y="128" width="96" height="96" filterUnits="userSpaceOnUse" color-interpolation-filters="sRGB">
<feFlood flood-opacity="0" result="BackgroundImageFix"/>
<feBlend mode="normal" in="SourceGraphic" in2="BackgroundImageFix" result="shape"/>
<feColorMatrix in="SourceAlpha" type="matrix" values="0 0 0 0 0 0 0 0 0 0 0 0 0 0 0 0 0 0 127 0" result="hardAlpha"/>
<feOffset dy="-8"/>
<feComposite in2="hardAlpha" operator="arithmetic" k2="-1" k3="1"/>
<feColorMatrix type="matrix" values="0 0 0 0 0.0627451 0 0 0 0 0.129412 0 0 0 0 0.164706 0 0 0 1 0"/>
<feBlend mode="normal" in2="shape" result="effect1_innerShadow_0_368"/>
</filter>
<filter id="filter1_i_0_368" x="140" y="128" width="96" height="96" filterUnits="userSpaceOnUse" color-interpolation-filters="sRGB">
<feFlood flood-opacity="0" result="BackgroundImageFix"/>
<feBlend mode="normal" in="SourceGraphic" in2="BackgroundImageFix" result="shape"/>
<feColorMatrix in="SourceAlpha" type="matrix" values="0 0 0 0 0 0 0 0 0 0 0 0 0 0 0 0 0 0 127 0" result="hardAlpha"/>
<feOffset dy="-8"/>
<feComposite in2="hardAlpha" operator="arithmetic" k2="-1" k3="1"/>
<feColorMatrix type="matrix" values="0 0 0 0 0.0627451 0 0 0 0 0.129412 0 0 0 0 0.164706 0 0 0 1 0"/>
<feBlend mode="normal" in2="shape" result="effect1_innerShadow_0_368"/>
</filter>
<filter id="filter2_i_0_368" x="256" y="128" width="96" height="96" filterUnits="userSpaceOnUse" color-interpolation-filters="sRGB">
<feFlood flood-opacity="0" result="BackgroundImageFix"/>
<feBlend mode="normal" in="SourceGraphic" in2="BackgroundImageFix" result="shape"/>
<feColorMatrix in="SourceAlpha" type="matrix" values="0 0 0 0 0 0 0 0 0 0 0 0 0 0 0 0 0 0 127 0" result="hardAlpha"/>
<feOffset dy="-8"/>
<feComposite in2="hardAlpha" operator="arithmetic" k2="-1" k3="1"/>
<feColorMatrix type="matrix" values="0 0 0 0 0.0627451 0 0 0 0 0.129412 0 0 0 0 0.164706 0 0 0 1 0"/>
<feBlend mode="normal" in2="shape" result="effect1_innerShadow_0_368"/>
</filter>
<filter id="filter3_i_0_368" x="24" y="360" width="96" height="96" filterUnits="userSpaceOnUse" color-interpolation-filters="sRGB">
<feFlood flood-opacity="0" result="BackgroundImageFix"/>
<feBlend mode="normal" in="SourceGraphic" in2="BackgroundImageFix" result="shape"/>
<feColorMatrix in="SourceAlpha" type="matrix" values="0 0 0 0 0 0 0 0 0 0 0 0 0 0 0 0 0 0 127 0" result="hardAlpha"/>
<feOffset dy="-8"/>
<feComposite in2="hardAlpha" operator="arithmetic" k2="-1" k3="1"/>
<feColorMatrix type="matrix" values="0 0 0 0 0.0627451 0 0 0 0 0.129412 0 0 0 0 0.164706 0 0 0 1 0"/>
<feBlend mode="normal" in2="shape" result="effect1_innerShadow_0_368"/>
</filter>
<filter id="filter4_i_0_368" x="256" y="360" width="96" height="96" filterUnits="userSpaceOnUse" color-interpolation-filters="sRGB">
<feFlood flood-opacity="0" result="BackgroundImageFix"/>
<feBlend mode="normal" in="SourceGraphic" in2="BackgroundImageFix" result="shape"/>
<feColorMatrix in="SourceAlpha" type="matrix" values="0 0 0 0 0 0 0 0 0 0 0 0 0 0 0 0 0 0 127 0" result="hardAlpha"/>
<feOffset dy="-8"/>
<feComposite in2="hardAlpha" operator="arithmetic" k2="-1" k3="1"/>
<feColorMatrix type="matrix" values="0 0 0 0 0.0627451 0 0 0 0 0.129412 0 0 0 0 0.164706 0 0 0 1 0"/>
<feBlend mode="normal" in2="shape" result="effect1_innerShadow_0_368"/>
</filter>
<filter id="filter5_i_0_368" x="140" y="360" width="96" height="96" filterUnits="userSpaceOnUse" color-interpolation-filters="sRGB">
<feFlood flood-opacity="0" result="BackgroundImageFix"/>
<feBlend mode="normal" in="SourceGraphic" in2="BackgroundImageFix" result="shape"/>
<feColorMatrix in="SourceAlpha" type="matrix" values="0 0 0 0 0 0 0 0 0 0 0 0 0 0 0 0 0 0 127 0" result="hardAlpha"/>
<feOffset dy="-8"/>
<feComposite in2="hardAlpha" operator="arithmetic" k2="-1" k3="1"/>
<feColorMatrix type="matrix" values="0 0 0 0 0.0627451 0 0 0 0 0.129412 0 0 0 0 0.164706 0 0 0 1 0"/>
<feBlend mode="normal" in2="shape" result="effect1_innerShadow_0_368"/>
</filter>
<filter id="filter6_i_0_368" x="24" y="244" width="96" height="96" filterUnits="userSpaceOnUse" color-interpolation-filters="sRGB">
<feFlood flood-opacity="0" result="BackgroundImageFix"/>
<feBlend mode="normal" in="SourceGraphic" in2="BackgroundImageFix" result="shape"/>
<feColorMatrix in="SourceAlpha" type="matrix" values="0 0 0 0 0 0 0 0 0 0 0 0 0 0 0 0 0 0 127 0" result="hardAlpha"/>
<feOffset dy="-8"/>
<feComposite in2="hardAlpha" operator="arithmetic" k2="-1" k3="1"/>
<feColorMatrix type="matrix" values="0 0 0 0 0.0627451 0 0 0 0 0.129412 0 0 0 0 0.164706 0 0 0 1 0"/>
<feBlend mode="normal" in2="shape" result="effect1_innerShadow_0_368"/>
</filter>
<filter id="filter7_i_0_368" x="256" y="244" width="96" height="96" filterUnits="userSpaceOnUse" color-interpolation-filters="sRGB">
<feFlood flood-opacity="0" result="BackgroundImageFix"/>
<feBlend mode="normal" in="SourceGraphic" in2="BackgroundImageFix" result="shape"/>
<feColorMatrix in="SourceAlpha" type="matrix" values="0 0 0 0 0 0 0 0 0 0 0 0 0 0 0 0 0 0 127 0" result="hardAlpha"/>
<feOffset dy="-8"/>
<feComposite in2="hardAlpha" operator="arithmetic" k2="-1" k3="1"/>
<feColorMatrix type="matrix" values="0 0 0 0 0.0627451 0 0 0 0 0.129412 0 0 0 0 0.164706 0 0 0 1 0"/>
<feBlend mode="normal" in2="shape" result="effect1_innerShadow_0_368"/>
</filter>
<filter id="filter8_i_0_368" x="140" y="244" width="96" height="96" filterUnits="userSpaceOnUse" color-interpolation-filters="sRGB">
<feFlood flood-opacity="0" result="BackgroundImageFix"/>
<feBlend mode="normal" in="SourceGraphic" in2="BackgroundImageFix" result="shape"/>
<feColorMatrix in="SourceAlpha" type="matrix" values="0 0 0 0 0 0 0 0 0 0 0 0 0 0 0 0 0 0 127 0" result="hardAlpha"/>
<feOffset dy="-8"/>
<feComposite in2="hardAlpha" operator="arithmetic" k2="-1" k3="1"/>
<feColorMatrix type="matrix" values="0 0 0 0 0.0627451 0 0 0 0 0.129412 0 0 0 0 0.164706 0 0 0 1 0"/>
<feBlend mode="normal" in2="shape" result="effect1_innerShadow_0_368"/>
</filter>
<filter id="filter9_i_0_368" x="142" y="24" width="96" height="40" filterUnits="userSpaceOnUse" color-interpolation-filters="sRGB">
<feFlood flood-opacity="0" result="BackgroundImageFix"/>
<feBlend mode="normal" in="SourceGraphic" in2="BackgroundImageFix" result="shape"/>
<feColorMatrix in="SourceAlpha" type="matrix" values="0 0 0 0 0 0 0 0 0 0 0 0 0 0 0 0 0 0 127 0" result="hardAlpha"/>
<feOffset dy="-4"/>
<feComposite in2="hardAlpha" operator="arithmetic" k2="-1" k3="1"/>
<feColorMatrix type="matrix" values="0 0 0 0 0.0627451 0 0 0 0 0.129412 0 0 0 0 0.164706 0 0 0 1 0"/>
<feBlend mode="normal" in2="shape" result="effect1_innerShadow_0_368"/>
</filter>
<filter id="filter10_i_0_368" x="312" y="24" width="40" height="40" filterUnits="userSpaceOnUse" color-interpolation-filters="sRGB">
<feFlood flood-opacity="0" result="BackgroundImageFix"/>
<feBlend mode="normal" in="SourceGraphic" in2="BackgroundImageFix" result="shape"/>
<feColorMatrix in="SourceAlpha" type="matrix" values="0 0 0 0 0 0 0 0 0 0 0 0 0 0 0 0 0 0 127 0" result="hardAlpha"/>
<feOffset dy="-4"/>
<feComposite in2="hardAlpha" operator="arithmetic" k2="-1" k3="1"/>
<feColorMatrix type="matrix" values="0 0 0 0 0.418727 0 0 0 0 0.538482 0 0 0 0 0.590549 0 0 0 1 0"/>
<feBlend mode="normal" in2="shape" result="effect1_innerShadow_0_368"/>
</filter>
<filter id="filter11_i_0_368" x="35" y="335" width="139" height="52" filterUnits="userSpaceOnUse" color-interpolation-filters="sRGB">
<feFlood flood-opacity="0" result="BackgroundImageFix"/>
<feBlend mode="normal" in="SourceGraphic" in2="BackgroundImageFix" result="shape"/>
<feColorMatrix in="SourceAlpha" type="matrix" values="0 0 0 0 0 0 0 0 0 0 0 0 0 0 0 0 0 0 127 0" result="hardAlpha"/>
<feOffset dy="-4"/>
<feComposite in2="hardAlpha" operator="arithmetic" k2="-1" k3="1"/>
<feColorMatrix type="matrix" values="0 0 0 0 0.418727 0 0 0 0 0.538482 0 0 0 0 0.590549 0 0 0 1 0"/>
<feBlend mode="normal" in2="shape" result="effect1_innerShadow_0_368"/>
</filter>
<filter id="filter12_i_0_368" x="190" y="335" width="151" height="52" filterUnits="userSpaceOnUse" color-interpolation-filters="sRGB">
<feFlood flood-opacity="0" result="BackgroundImageFix"/>
<feBlend mode="normal" in="SourceGraphic" in2="BackgroundImageFix" result="shape"/>
<feColorMatrix in="SourceAlpha" type="matrix" values="0 0 0 0 0 0 0 0 0 0 0 0 0 0 0 0 0 0 127 0" result="hardAlpha"/>
<feOffset dy="-4"/>
<feComposite in2="hardAlpha" operator="arithmetic" k2="-1" k3="1"/>
<feColorMatrix type="matrix" values="0 0 0 0 0.79836 0 0 0 0 0.546708 0 0 0 0 0.0743756 0 0 0 1 0"/>
<feBlend mode="normal" in2="shape" result="effect1_innerShadow_0_368"/>
</filter>
<clipPath id="clip0_0_368">
<rect width="49" height="40" fill="white" transform="translate(48 488)"/>
</clipPath>
<clipPath id="clip1_0_368">
<rect width="66" height="18" fill="white" transform="translate(157 33)"/>
</clipPath>
</defs>
</svg>
